<svg id="Ebene_3" data-name="Ebene 3" xmlns="http://www.w3.org/2000/svg" viewBox="0 0 252 243.56"><defs><style>.cls-1{fill:#fff;}</style></defs><path class="cls-1" d="M179.37,159.57a3.59,3.59,0,0,1-2.89-2.25c-.54-1.11-1-2.24-1.56-3.35a2.65,2.65,0,0,0-.28-.45l-3.22-.25c-.09.13-.34.48-.56.84a64.54,64.54,0,0,1-22.54,22,21.76,21.76,0,0,1-6,2.49,2.14,2.14,0,0,0-.72.29,2.64,2.64,0,0,1-3.11,0,27.68,27.68,0,0,1-3.29-2.63,10.66,10.66,0,0,0-3.94-2.61.88.88,0,0,0-1.15.29c-.4.55-1,.85-1.22,1.65s-1.22.94-2.19.35a3,3,0,0,0-.29.41c-.13.31-.14.76-.37.94s-.63,0-1,0a1.65,1.65,0,0,0-.59.2,1.45,1.45,0,0,1-2.24-1.06,7.06,7.06,0,0,0,0-.93c-.11-.4-.22-1-.51-1.1a1.43,1.43,0,0,0-1.61.23c-.13.12-.22.28-.35.4-1.08,1-2.13,2-3.24,2.9a6.08,6.08,0,0,1-4.31,1.41c-1.46-.07-2.92-.13-4.36-.32a12.82,12.82,0,0,1-5.1-1.76c-3.25-2-6.59-3.81-9.34-6.48A52.2,52.2,0,0,1,89,166.08a61.18,61.18,0,0,1-8.73-14.18c-.41-1-.92-1.89-1.35-2.76l-3.3,3.06-1.15-.94a8.87,8.87,0,0,0-.78.83c-1.23,1.67-2.39,3.39-3.68,5s-2.8,3.29-4.2,4.94c-.63.74-1.28,1.47-1.85,2.25-2.12,2.88-4.1,5.87-6.37,8.62a5.92,5.92,0,0,0-1.43,4.94,1.52,1.52,0,0,0,.39.79,1.59,1.59,0,0,1,.3,1.93,12.66,12.66,0,0,0-.41,1.54c1.38.27,2.61.55,3.86.74,2.78.45,5.57.89,8.36,1.25,1.66.22,3.35.26,5,.4l6.45.57c1.84.16,3.68.36,5.53.49,2.68.18,5.37.33,8,.49a2.2,2.2,0,0,1,1.93,1,3.22,3.22,0,0,1-1.92,1.5c-1.27.51-2.54,1-3.84,1.44a18.29,18.29,0,0,1-3.48.74,69.69,69.69,0,0,1-11.91.25c-3.21-.27-6.4-.75-9.59-1.15-1.3-.17-2.6-.38-4.07-.59a4.64,4.64,0,0,0,.37.87c4.48,6.36,8.92,12.75,13.47,19.06,2.19,3,4.52,6,6.91,8.88,1.46,1.77,3.12,3.37,4.74,5a1.71,1.71,0,0,0,2,.58,1.43,1.43,0,0,1,1,.13c.72.32,1.37.75,2.14,1a1.67,1.67,0,0,0,1.68-.12,56.07,56.07,0,0,0,13-11.13,76.91,76.91,0,0,0,10.53-16,56.44,56.44,0,0,0,2.09-5.29c.35-.9.71-1.8,1-2.72a4,4,0,0,0,.22-1.28c0-1.58,0-3.17.13-4.79a5.54,5.54,0,0,1,.17.58c.45,2.07.93,4.12,1.32,6.2a12.39,12.39,0,0,1-.48,6.27c-.35,1.08-.54,2.23-.84,3.33a57.21,57.21,0,0,1-8.64,17.93,70.59,70.59,0,0,1-9.93,11.87c-2.14,2-4.47,3.73-6.72,5.59L91,238.63a5.34,5.34,0,0,1-1,.71c-1.06.55-1.73.28-2.21-.83-.18-.4-.35-.8-.52-1.2a.66.66,0,0,0,1.08-.31,4.05,4.05,0,0,0,.37-1.26c.31-3.11.58-6.21.86-9.32a.73.73,0,0,0,0-.39,4.85,4.85,0,0,0-.35-.57l-.26,0c0,.6-.06,1.19-.1,1.78a21.44,21.44,0,0,1-.19,3c-.36,1.95-.88,3.86-1.3,5.79a7.67,7.67,0,0,0,0,1.27l-.9.47a1.58,1.58,0,0,1-2-.29c-3.09-3.69-6.22-7.35-9.25-11.08-6.49-8-12.81-16.13-18.77-24.54-3.76-5.29-7.6-10.53-11.38-15.81a2.64,2.64,0,0,0-1.35-1c-2.54-.88-5.06-1.84-7.59-2.74a16.21,16.21,0,0,0-2.53-.73c-2.61-.45-4.93-1.65-7.35-2.59a5.81,5.81,0,0,0-1.63-.4A6.15,6.15,0,0,1,21,177.05c-.42-.37-.87-.7-1.52-1.23a4,4,0,0,0,.09,1,82,82,0,0,0,5.72,12.23c1.25,2.08,2.65,4.07,4.06,6.06A153.53,153.53,0,0,0,42.14,211c.36.39.71.79,1,1.21a33.37,33.37,0,0,0,5,5.27,12.34,12.34,0,0,1,1.4,1.4c.47.54.41.94-.2,1.3a2.26,2.26,0,0,1-2.15.24,13.52,13.52,0,0,1-2-1.11,83.46,83.46,0,0,1-13.13-11.51c-9.67-9.95-16.72-21.63-22.75-34a1.21,1.21,0,0,1-.08-.25c.46.68,1,1.34,1.39,2.05,3.29,5.6,6.58,11.19,10.34,16.49a127.67,127.67,0,0,0,17.19,19.23c1.19,1.12,2.47,2.14,3.72,3.19a11.53,11.53,0,0,0,1.14.79l.2-.22c-.33-.44-.64-.89-1-1.3-2.16-2.44-4.35-4.87-6.51-7.32a117.18,117.18,0,0,1-11.94-16.2c-3.68-6-6-12.68-8.06-19.39l-.42-1.33c-.2.08-.3.09-.35.15a12,12,0,0,1-5.44,3.37c-.12,0-.16.35-.23.53-.71-.76-1.42-1.53-2.14-2.28a5.35,5.35,0,0,1-1.54-3.16c-.31-2.49-.62-5-.81-7.49-.15-2.16-.22-4.33-.17-6.49A124.9,124.9,0,0,1,6.1,136.89c.51-3.18.92-6.38,1.6-9.52a79.85,79.85,0,0,1,4.5-13.56,9,9,0,0,0,.61-5.11c-.6-3.69-1-7.42-1.54-11.13-.06-.48,0-1-.07-1.46-.18-2.68-.22-5.38-.59-8A13.86,13.86,0,0,1,12,79.87,107.13,107.13,0,0,1,28.58,55,143.34,143.34,0,0,1,49.84,34.93c4.33-3.22,8.4-6.78,12.82-9.86,9.53-6.61,19.47-12.53,30.39-16.63a50.15,50.15,0,0,1,9.73-3,4.55,4.55,0,0,0,.89-.26c1.61-.61,2.29-.42,3.4,1,.06.07.14.11.24.2.35-.08.73-.18,1.12-.24a1,1,0,0,1,1.16.68,17.48,17.48,0,0,1,1.88,8.93c-.11,1.63-.19,3.26-.22,4.89,0,2.42-.08,4.86,0,7.29.18,4.53.43,9.07.69,13.61.15,2.73.26,5.47.58,8.18.48,4.11,1.1,8.21,1.73,12.3.42,2.71.92,5.4,1.46,8.08a17.8,17.8,0,0,0,2.74,6.56,4.27,4.27,0,0,1,.66,1.69,1.1,1.1,0,0,0,1,1,34.7,34.7,0,0,0,11.18.5,8.06,8.06,0,0,0,1.29-.3c2.47-.72,2.87-1.12,3.33-3.64s.87-4.87,1.2-7.31c.18-1.35.11-2.74.22-4.1.26-3.12.56-6.23.84-9.35.26-2.94.53-5.89.76-8.83.28-3.52.51-7,.78-10.56.15-2,.42-4,.46-5.93,0-2.42-.12-4.85-.19-7.27s-.18-4.76-.21-7.14a25.8,25.8,0,0,1,.2-2.77,7.86,7.86,0,0,1,2.16-4.87,3.47,3.47,0,0,0,.71-1.2c.31-.86.92-1.27,1.69-.82a3.17,3.17,0,0,0,1.78.29A56.22,56.22,0,0,1,155,7c7,1.08,13.48,3.78,19.88,6.71,3.37,1.54,6.81,2.95,10.12,4.62a87.42,87.42,0,0,1,18.84,13,199.7,199.7,0,0,1,15.33,15.6A214.05,214.05,0,0,1,234.8,66.3a53.47,53.47,0,0,1,3,5.14c.6,1.08,1.06,2.24,1.65,3.33A6,6,0,0,1,240,80a4.1,4.1,0,0,0-.09,1.94c.24,2.28.52,4.57.55,6.85a18.94,18.94,0,0,1-.56,5,50,50,0,0,0-1.26,8,62.34,62.34,0,0,1-1.3,8.36,38.79,38.79,0,0,0-.62,4.58,2.57,2.57,0,0,0,.13.91c1.4,4.93,2.83,9.84,4.21,14.77.74,2.64,1.43,5.29,2.12,7.94a9.65,9.65,0,0,1,.29,4.83,2.16,2.16,0,0,0,.06.91c.42,2.12.88,4.23,1.27,6.35a13.53,13.53,0,0,1,0,1.56,4.36,4.36,0,0,0,.24,1.91,5.07,5.07,0,0,1,.58,3.82,25.67,25.67,0,0,1-2.14,7.22,2.65,2.65,0,0,0-.2.49c-.76,2.66-1.61,5.31-2.27,8a61.4,61.4,0,0,1-4.13,12.14c-1.28,2.66-2.33,5.46-4.22,7.8a5.11,5.11,0,0,0-.41.68,142,142,0,0,1-11,16.51,70.64,70.64,0,0,1-7.18,7.78,7,7,0,0,1-3.56,1.64,1.48,1.48,0,0,1-1.75-.59,1.93,1.93,0,0,1-.21-2.23,49.86,49.86,0,0,1,2.83-4.16,78.51,78.51,0,0,0,6.78-9.81c2.8-4.66,5.62-9.31,8.28-14,1.34-2.38,2.34-4.93,3.5-7.41l-.24-.16c-.47.41-.93.83-1.41,1.23a39.64,39.64,0,0,1-6.39,3.73c-4.81,2.58-10.07,3.75-15.35,4.84a37.28,37.28,0,0,1-3.93.6,1.67,1.67,0,0,0-1.42,1,52,52,0,0,1-4.22,6.87c-3.16,3.89-5.36,8.42-8.56,12.27-1.61,1.93-3.22,3.86-4.82,5.81-.84,1-1.7,2-2.43,3.14a31.94,31.94,0,0,1-3.93,4.82,45.51,45.51,0,0,0-5.48,6.28c-1.18,1.75-2.46,3.44-3.75,5.12-.72,1-.94,1-2.14,1-.88,1.33-1.51,1.56-3.08,1.17a1.5,1.5,0,0,0-1,0,2.83,2.83,0,0,1-2.43,0,1.05,1.05,0,0,1-.56-.76,2.82,2.82,0,0,0-1.29-1.75,61.92,61.92,0,0,1-5.43-4.21A84.23,84.23,0,0,1,137,213.72a49.93,49.93,0,0,1-5.75-15.18,35.18,35.18,0,0,1-.71-9.86,23.69,23.69,0,0,1,.59-3.09c0-.22.13-.42.16-.64a32.14,32.14,0,0,1,.69-4.66c0,.42,0,.84,0,1.26a4.16,4.16,0,0,0,.4,1.91,7.36,7.36,0,0,1,.55,2.42,46,46,0,0,0,3.16,13.63,59.38,59.38,0,0,0,3.55,6.36,52.48,52.48,0,0,0,7.51,10.07,39.42,39.42,0,0,0,4.77,3.78c.93.73,1.84,1.51,2.77,2.25.72.58,1.43,1.18,2.19,1.71.57.41,1.17.76,1.93.23.49-.34.92.06,1.26.42s.78.91,1.53.81c.27,0,.58.3,1,.57.89-.8,1.88-1.61,2.76-2.51,2.92-3,5.88-5.88,8.68-8.95,3.18-3.49,6.23-7.11,9.28-10.71a47.56,47.56,0,0,0,5.9-8.31c1.14-2.14,2.47-4.19,3.65-6.31a13.59,13.59,0,0,0,1.13-2.83c-1,1.12-2.37.89-3.56.94a65.76,65.76,0,0,1-12.69-.66c-4.44-.68-8.88-1.41-13.32-2.11-.52-.08-1.05-.09-1.62-.13,0,.71.54.86.91,1.09a18.44,18.44,0,0,0,6.4,2.43,127,127,0,0,0,14.38,2.18c2,.14,3.95.35,5.93.54a3.67,3.67,0,0,1,.7.21l-.34,1.17a4.92,4.92,0,0,1-.81.08c-1.62-.17-3.24-.36-4.87-.55-5.09-.59-10.12-1.56-15.13-2.62a20.61,20.61,0,0,1-7.11-2.8,4.16,4.16,0,0,1-1.22-1.18c-.56-.92-.17-1.74.9-1.76a33.73,33.73,0,0,1,4.48.31c4.76.61,9.42,1.87,14.22,2.24a53.8,53.8,0,0,0,11.9,0c.5-.08,1-.1,1.09-.53a5.79,5.79,0,0,1-.63-2c.07-.63.64-1.2,1.07-1.93a12.88,12.88,0,0,0-3.12-6.63c-1.77-2.16-3.42-4.4-5.17-6.57-2.19-2.7-4.44-5.37-6.67-8.05a3,3,0,0,1,.95.41c1.45,1.37,2.93,2.71,4.26,4.18q4.23,4.65,8.31,9.45c1.3,1.52,2.82,2.94,3.29,5.11a11,11,0,0,0,2.11.21,51.76,51.76,0,0,1,8.44-.48,1.21,1.21,0,0,0,1.33-1c-.1-.14-.15-.28-.26-.34a13.92,13.92,0,0,1-4.09-4.45c-2.39-3.61-4.76-7.23-7-10.92a41.78,41.78,0,0,0-8.48-10.29,10.62,10.62,0,0,1-1.69-1.85c-.52-.72-.45-.93.28-1.52a.42.42,0,0,1,.29-.1,5.77,5.77,0,0,0-2.91-3.44,6.71,6.71,0,0,1-1.6-1.71c-.48-.63-.83-1.35-1.27-2a2.9,2.9,0,0,0-2.26-1.42,3.41,3.41,0,0,1-3-2.3c-.43-1.15-.75-2.35-1.09-3.53a2.18,2.18,0,0,0-.84-1.51c-.14,1.29-.24,2.46-.42,3.62s-.43,2.43-.68,3.64a38.54,38.54,0,0,1-.88,3.86c-.74,2.26-1.59,4.49-2.41,6.73a1.25,1.25,0,0,0,1,1.81c.47.07.93.23,1.39.34a4.2,4.2,0,0,0,1.14.23c1.36-.06,1.47-.05,1.91,1.23a6,6,0,0,0,1.37,2.37,1.75,1.75,0,0,1,.54,2Zm-32.73-30.23c-.54,1.19-1,2.42-1.63,3.59a40.62,40.62,0,0,0-2.14,3.93c-.56,1.53-1.26,3.14-.42,4.85a2.83,2.83,0,0,1,.07,1.17c0,1.8-.11,3.6-.11,5.4a1.85,1.85,0,0,1-.7,1.62c-.35.26-.78.42-1.12.7s-1,.7-1.14,1.16a1.87,1.87,0,0,0,.49,2.1c-.8.88-1.53,1.76-2.35,2.56q-2,2-4.05,3.8a17.1,17.1,0,0,1-2.43,1.79,1.22,1.22,0,0,0-.64,1.52c1.28-.35,2.46-.66,3.63-1,.67-.2,1.34-.42,2-.67a8.74,8.74,0,0,0,1.68-.74c1.23-.77,2.43-1.59,3.61-2.43a1.67,1.67,0,0,0,.84-1.67,13.6,13.6,0,0,1,0-2.21c0-.69-.07-1.54.72-1.84,1.26-.47,2.53-1.13,4-.83a2.71,2.71,0,0,0,2.76-1.16,3.42,3.42,0,0,0,1-3,4.06,4.06,0,0,1,1.27-4.2,1.19,1.19,0,0,0,.27-1c-.39-1-.64-2.26-2.1-2.42a1.53,1.53,0,0,1-.81-.43,11.27,11.27,0,0,1-3-4.58,2,2,0,0,1,.06-1.51,6.15,6.15,0,0,1,2.35-2.26,5.24,5.24,0,0,0,2.61-2.8c-1.49-.16-2.86-.6-4.2.19-.16-.16-.31-.43-.51-.47a16.25,16.25,0,0,0-2.1-.23,2.73,2.73,0,0,1-2.07-1c-.8-.93-1.66-1.81-2.44-2.76a1.38,1.38,0,0,0-1.73-.55c-.66.25-1.32.49-2,.77-1.52.66-1.93.44-2.28-1.18a7.9,7.9,0,0,1,.37-4.14,10,10,0,0,0,.61-2.82,25.13,25.13,0,0,0-.44-3.55l-6.25.41c-.79,1.82-1.44,3.66-2.37,5.34a5.21,5.21,0,0,0-.39,3.93,12.05,12.05,0,0,0,.53,1.64A19,19,0,0,1,127.2,130a2.34,2.34,0,0,0,1.8,2.18,17.86,17.86,0,0,0,3,.46,10.1,10.1,0,0,1,5,1.09,2.6,2.6,0,0,0,2.88-.16,10.28,10.28,0,0,1,2-1c1.7-.64,3.58-1,4.44-2.92C146.35,129.57,146.52,129.46,146.64,129.34ZM92.46,89.7c.27-.54.53-1.09.83-1.62a3,3,0,0,0-.6-4.14,10.87,10.87,0,0,1-3.44-6.25c-.17-.82-.12-1.68-.33-2.48a56.86,56.86,0,0,0-3-8.19c-1.27-3-2.55-6-3.7-9.06-.77-2.06-1.31-4.21-2-6.32-.4-1.27-.81-2.54-1.21-3.82a16.72,16.72,0,0,0-1.43,3.32A13.22,13.22,0,0,1,75,56a15.42,15.42,0,0,0-3.33,7.67,1.83,1.83,0,0,0,.18,1.25c1.51,2.27,2.27,4.86,3.26,7.35C76.58,76,78,79.89,79.67,83.64c1,2.32,2.44,4.49,3.67,6.73L81.83,89c-1.11,1.2-2.28,2.29-3.23,3.54a31.36,31.36,0,0,0-2.19,3.62,35.66,35.66,0,0,0-3.94,12.27c-.22,1.36-.27,2.74-.34,3.57a23,23,0,0,1,0-2.76A48.27,48.27,0,0,1,74.48,98.9,24.92,24.92,0,0,1,78,91.36c1-1.29,2-2.53,3.16-3.91L79.5,85a12.19,12.19,0,0,0-2.63,3,13.15,13.15,0,0,1-1.7,2.21c.37-1,1-1.88,1.36-2.86a8.31,8.31,0,0,1,2.18-3.49l-1.93-3.22c-.41.53-.74.88-1,1.27-.9,1.42-1.73,2.88-2.65,4.29a29.68,29.68,0,0,0-4.46,15.58,13.53,13.53,0,0,1-.21,2.63,35.59,35.59,0,0,0-.85,8.67,17.62,17.62,0,0,1-.23,3.56,2.93,2.93,0,0,0,.28,2A31.38,31.38,0,0,1,69,121.52c1.17,3.37,2.28,6.77,3.41,10.16.11.31.26.61.5,1.17.51-.83.94-1.43,1.27-2.09a1.52,1.52,0,0,0,0-1c-.62-1.87-1.29-3.73-1.93-5.6A9.33,9.33,0,0,1,72,123c-.25-1.21-.53-2.41-.73-3.63a37.9,37.9,0,0,1-.75-5.75c0-3.09.26-6.17.52-9.25a11.61,11.61,0,0,1,1.15-4.48c-.27,1.35-.65,2.88-.85,4.43-.26,2-.41,4-.53,6.06a18.39,18.39,0,0,0,.26,6.28c1.08,3.66,1.83,7.45,4.2,10.67.44,0,.49-.38.44-.81s-.15-1-.19-1.58a35.82,35.82,0,0,1,.53-9.36c.21-1,.12-2.19.81-3.11h0c-.1.42-.23.84-.3,1.27-.49,2.83-1,5.67-.34,8.53a33.38,33.38,0,0,0,1.32,3.79c.22-.2.32-.39.27-.52-.51-1.39.3-2.32,1.11-3.25a2.45,2.45,0,0,0,.31-.41c.91-1.77,1.81-3.53,2.73-5.3.12-.24.28-.48.42-.72a.72.72,0,0,1,.08.57,47.72,47.72,0,0,1-2.84,7.67,2.25,2.25,0,0,0-.23.88c0,1.79-.41,3.56,0,5.38.32,1.64.39,3.32.55,5,.11,1.05.18,2.1.28,3.15a13,13,0,0,0,2.36,6.62,2.18,2.18,0,0,1,.52,1,7.7,7.7,0,0,0,1.38,3.54c.79,1.33,1.73,2.58,2.46,3.93a22.06,22.06,0,0,0,3.81,5.23,11.09,11.09,0,0,1,2.76,4.27.84.84,0,0,1-.38-.3,40.43,40.43,0,0,0-4.5-5c-2.47-2.43-4.18-5.46-6.17-8.27-.73-1-1.37-2.12-2.1-3.26l-1.31.88c1,1.89,1.84,3.67,2.78,5.42.79,1.48,1.57,3,2.5,4.37a62,62,0,0,0,10.06,11,74.76,74.76,0,0,0,7.59,5.54,17.7,17.7,0,0,0,9.6,2.95,6.24,6.24,0,0,0,4.08-1.29c1.11-.79,2.27-1.51,3.41-2.27.19-.13.38-.29.61-.46-1.41-.6-1.75-.53-2.68.38a7.93,7.93,0,0,1-1.17,1.08c-1.51,1-3.12,1.35-4.78-.2a3.43,3.43,0,0,1,.8.32,2.88,2.88,0,0,0,3-.12,9.82,9.82,0,0,0,1.44-1.15c.69-.63,1.36-1.28,2.18-2.05a5.57,5.57,0,0,0-1.5-.37c-2.59.14-4.83-1.19-7.27-1.67a2.09,2.09,0,0,1-.82-.43,7.11,7.11,0,0,0-3.65-1.44,18.4,18.4,0,0,1-4.93-1.45,13,13,0,0,1-5.3-4.27,19.65,19.65,0,0,0-3-3.47,7.69,7.69,0,0,1-1.88-2.16c1,.81,1.82,1.42,2.58,2.08a15,15,0,0,1,2.49,2.34,15.83,15.83,0,0,0,7,5.48,4.36,4.36,0,0,0,2.9.49l-2.34-1.09a1.82,1.82,0,0,1,1,.13c2.06.78,4.13,1.54,6.19,2.34a4.61,4.61,0,0,1,1.37.77,5.09,5.09,0,0,0,4.07,1.16c.31,0,.62,0,.93,0a6.75,6.75,0,0,1,4.45.88c1,.58,2.15,1.07,3.51,1.74l-1.24-2,.86.32c-.19-.63-.36-1.22-.54-1.8a4.13,4.13,0,0,0-2.93-3.05c-2.18-.68-4.29-1.65-5.5-3.84a1.65,1.65,0,0,0-2-.9,6.31,6.31,0,0,1-3.14-.09,6.39,6.39,0,0,0-1.83-.27,2.31,2.31,0,0,1-1.89-1c-.86-1-1.78-2-2.59-3a31.91,31.91,0,0,1-2.58-3.67,7.66,7.66,0,0,0-2.33-3,2.53,2.53,0,0,1-.71-.78c-1.18-1.74-2.34-3.49-3.52-5.26,1.1-1.12.68-2.54,1-3.81l1,.05c.07.59.16,1.15.21,1.72a20.36,20.36,0,0,0,.26,3.14,7.51,7.51,0,0,0,2.92,4.15,3.9,3.9,0,0,1,.86.81c1.2,1.79,2.31,3.65,3.56,5.4,2,2.87,4.69,4.87,8.34,4.91a5.43,5.43,0,0,1,3.89,1.21c.32.29.64.58,1,.86s.58.46.88.69c-.7-1.84-.7-1.84-2.23-2.61a4.71,4.71,0,0,1-2.16-5,4,4,0,0,0,.31-1.53,7.68,7.68,0,0,0-1.53-4c-2-2.33-4-4.61-6.78-6-1.56-.81-2-1.94-1.47-3.67.21-.76.51-1.51.67-2.28a2.32,2.32,0,0,0,0-1.41c-.74-1.36-.45-2.73-.29-4.14a8,8,0,0,0-.06-2.92c-.49-1.91-1.2-3.76-1.83-5.66-1.25.22-1.84,1.25-2.58,2.11a3.73,3.73,0,0,1-1.45,1.28,3.12,3.12,0,0,0-1.93,1.84c-.23.48-.54.91-.8,1.38q-1.31,2.37-2.58,4.77a1.23,1.23,0,0,0-.2.62c.08,1.31.19,2.62.3,4-.41-.4-1-.76-1.26-1.28a5.83,5.83,0,0,1-.29-3.37c.4-1.9.67-3.82,1-5.73a5.18,5.18,0,0,1,.26-1c.66-1.7,1.34-3.4,2-5.1l2.28-5.64a3.91,3.91,0,0,1,.37-.7c.89-1.26,1.79-2.52,2.67-3.79a4.56,4.56,0,0,0,.52-.91,37.93,37.93,0,0,1,1.5-3.66c1.2-2.18,2.93-3.84,5.56-4a70.25,70.25,0,0,0,7.66-.44,6.68,6.68,0,0,0,2.81-1c.21-.15.46-.37.67-.35,1.51.16,2.62-.68,3.71-1.47a2.75,2.75,0,0,1,3.35.16,7.1,7.1,0,0,0,3.64,2,12.68,12.68,0,0,1,2.74.94,3.9,3.9,0,0,0,2.93.32,3.7,3.7,0,0,1,2.67.34c.81.36,1.61.75,2.43,1a4.58,4.58,0,0,1,2.4,1.74c.91,1.28,1.9,2.61,3.66,2.82a2.25,2.25,0,0,1,2,1.87,9.27,9.27,0,0,0,2,3.54,4.09,4.09,0,0,1,1.18,3.25,2.43,2.43,0,0,0,.14.91c.47,1.74,1,3.47,1.44,5.21a1.83,1.83,0,0,1-.07,1.27c-1.12,1.84-2,3.84-3.61,5.36-.8.76-1.57,1.53-2.33,2.28a7.52,7.52,0,0,0,2.77,4.85c.32.3.64.61,1,.89a5.76,5.76,0,0,1,1.66,3.24c.23.81-.38,1.48-.87,2.13a1.45,1.45,0,0,0-.24.84,8.81,8.81,0,0,1-3.41,7.53c-1.06.84-2.29,1.73-3.86,1.32a.51.51,0,0,0-.27.08c-.32,1.3-.64,2.53-.92,3.77a1.73,1.73,0,0,1-1.28,1.36,3,3,0,0,0-1.07.72c-.69.61-1.34,1.28-2,1.89a3.64,3.64,0,0,1-2.67.94,4.36,4.36,0,0,0-1.68.27,7.92,7.92,0,0,1-3.36.61,5.88,5.88,0,0,0-.92.1l-2.22.34a9.07,9.07,0,0,0-1.4,2.32,27.61,27.61,0,0,0-.69,4.55,2.47,2.47,0,0,0,.6,1.78c.61-2.1-.45-4.22.83-6a3.74,3.74,0,0,0,.45,3.1c.11-.08.16-.1.17-.14a3.54,3.54,0,0,0,.23-.48,3.44,3.44,0,0,1,4-2.64,4.48,4.48,0,0,0,3.1-.93c.86-.61,1.7-1.27,2.55-1.9a11.22,11.22,0,0,1-3.91,3.27,4.1,4.1,0,0,1-1.27.33c-.56.1-1.14.12-1.71.2s-1.12.55-1.57,1.41a4.53,4.53,0,0,1,3.3-.23,19.69,19.69,0,0,0,6.54.87c-1.07.65-1.08.65-2,.54a7.26,7.26,0,0,0-.92-.07c-1.37.06-2.73.14-4.1.23-.44,0-.87.12-1.31.19v.26a15.24,15.24,0,0,1,5.39,2.4,8,8,0,0,0,2.56,1.39l-1.56.48c1,.7,1.82,1.24,2.58,1.87a1.63,1.63,0,0,0,1.71.29,17.65,17.65,0,0,0,5.28-2.72c2.51-1.94,5-3.94,7.41-6a81.38,81.38,0,0,0,8.6-8.62c.79-.9.57-2,1-3a3.9,3.9,0,0,0-1.33,1.05,16.37,16.37,0,0,1-3.36,3.54,4.51,4.51,0,0,0-.84.85,11.43,11.43,0,0,1-3.82,3,36,36,0,0,0-7.27,4.77,19.71,19.71,0,0,1-3.3,1.94,5,5,0,0,1-1,.3c.54-.44,1.17-.7,1.69-1.09,2.29-1.72,4.54-3.5,6.83-5.23a43.57,43.57,0,0,0,3.85-2.8c2.23-2.12,4.64-4.09,6.36-6.7a5,5,0,0,1,3.28-2.42,2.75,2.75,0,0,0,1.25-.68,10.76,10.76,0,0,0,2.66-4.36c.71-1.84,1.19-3.78,1.75-5.69.35-1.22.74-2.45,1-3.7.58-3,1.05-6.08,1.62-9.11a4.87,4.87,0,0,0-.15-3,7.14,7.14,0,0,1-.31-1.81c-.21-1.48-.35-3-.64-4.43a34.41,34.41,0,0,0-1-3.44c-.29-1-.65-1.91-.94-2.88-.34-1.13-.66-2.27-.95-3.42-.09-.38,0-.81-.12-1.18a19.45,19.45,0,0,0-3.79-7.52,15,15,0,0,1-2.4-3.75c-.92-2.14-2.26-4.09-3.36-6.15-.84-1.59-1.59-3.24-2.37-4.86.22.33.45.65.66,1,.8,1.26,1.59,2.54,2.4,3.8.67,1,1.39,2,2,3.09a12.11,12.11,0,0,0,3.07,3.63,3.75,3.75,0,0,0,.18-.39,12.28,12.28,0,0,0-.19-4.6,5,5,0,0,1,1.94-5,2.56,2.56,0,0,0,.61-.83c1.16-2.23,2.29-4.47,3.47-6.69,1.32-2.49,2.69-5,4-7.45a6.16,6.16,0,0,0,.44-1.1c.34-1,.65-2,1-3,.4-1.26.86-2.5,1.17-3.79a6.12,6.12,0,0,0-.17-4.62,1.82,1.82,0,0,1-.11-1c.23-1.52.49-3,.76-4.55a88.39,88.39,0,0,0,1.42-13.67,4.5,4.5,0,0,0-.34-1.3,2.52,2.52,0,0,0-2.19.41c-.68.41-1.32.89-2,1.27A8.94,8.94,0,0,0,172,47.79c-1,1.82-2,3.65-2.89,5.51-.59,1.18-1.14,2.39-1.64,3.61-2.23,5.48-3.57,11.27-6,16.68a34.93,34.93,0,0,0-1.71,6.23c-.38,1.53-1,2.85-2.7,3.26-.07,0-.12.11-.25.26a8.1,8.1,0,0,1,0,2.14,2.72,2.72,0,0,0,.22,2.15,10,10,0,0,1,.46,1.23c-.47-.45-1-.88-1.4-1.37a11.34,11.34,0,0,1-1.77-2.1c-.81-1.51-1.45-3.11-2.15-4.67a1.82,1.82,0,0,1-.24-.76c.06-.76-.44-1.1-1-1.43-1.13-.69-2.23-1.44-3.4-2a5.5,5.5,0,0,0-2-.49c-.69,0-1.39.13-2.09.11a3.23,3.23,0,0,0-2.21.69,4.09,4.09,0,0,1-2.7,1.14,20.45,20.45,0,0,1,4.13-2.75,9,9,0,0,1,3-1,30.55,30.55,0,0,0,3.67-.74c.16-1.58-.47-2.88-.79-4.24a4.53,4.53,0,0,1-.26-1.68c.29-1.82.23-3.71,1.07-5.43a1.42,1.42,0,0,0,.15-.87,14.48,14.48,0,0,1,0-5c.24-2.77.67-5.52.93-8.28.29-3.12.52-6.24.73-9.36.15-2.24.59-4.47.22-6.73a1.71,1.71,0,0,1,.64-1.64,1.45,1.45,0,0,0,.52-1.09,20,20,0,0,0-1-4.24c-.93-2.29-2.05-4.5-3.16-6.71-1.31-2.6-2.73-5.15-4-7.76a3.13,3.13,0,0,0-1.54-1.72A13,13,0,0,0,141,13.27a39.2,39.2,0,0,0-.35,9.62,70.29,70.29,0,0,1,.29,7.54q-.13,8.34-.52,16.68c-.12,2.86-.38,5.72-.73,8.56-.41,3.2-.75,6.39-.84,9.61a51.44,51.44,0,0,1-.76,8.3c-.32,1.71-.5,3.44-.72,5a57.05,57.05,0,0,1-7.17,6.51,2.62,2.62,0,0,0,1-.33c1.87-1.25,3.72-2.54,5.59-3.78a10.65,10.65,0,0,1,5.37-2,10.78,10.78,0,0,1,4.71.81,11,11,0,0,1,5.95,5c.92,1.65,2.06,3.19,3.09,4.79a9.61,9.61,0,0,1,.45.91l0,0a3.59,3.59,0,0,1-.61-.48c-1.39-1.71-2.78-3.43-4.14-5.16a7.54,7.54,0,0,0-5.56-3.18,9.8,9.8,0,0,1-3-.93,5.26,5.26,0,0,0-5.6,1c-.59.6-1.08,1.29-1.67,1.89A11.06,11.06,0,0,1,130.5,87a15,15,0,0,1-9.59-.82c-1.9-.83-3.73-1.82-5.59-2.74,0,0,0-.13,0-.27,1.31.5,2.58,1,3.85,1.46a7.22,7.22,0,0,0,4,.57l-4.15-3a5,5,0,0,1,1.64.45c1.05.45,2.13.84,3.14,1.37,2.45,1.28,4.62.43,6.73-.81A3.58,3.58,0,0,0,132,81.24a3.88,3.88,0,0,1-2.69-.08,9,9,0,0,0-1.56-.06c-1,0-1.93,0-2.89-.09a15.63,15.63,0,0,0-3-.24c-3.13.45-5.89-.72-8.47-2.07-1.92-1-3.92-1.81-5.83-2.81a3.08,3.08,0,0,0-2.82,0c-.71.35-1.41.73-2.12,1.08a8.56,8.56,0,0,0-3,2.7c-.75,1-1.65,1.95-2.43,3a19.57,19.57,0,0,0-1.27,2c-.29.49-.51,1-.79,1.52-.56,1-1.15,2-1.72,2.92ZM169.82,94c-.21-.25-.44-.5-.64-.76-.47-.62-.93-1.25-1.54-2.07a13.38,13.38,0,0,0-.64,1.37,4.22,4.22,0,0,0,.07,3c.59,1.56.82,3.35,1.73,4.67a40.29,40.29,0,0,1,2.45,4.2,7.69,7.69,0,0,1,1.23,3,17.1,17.1,0,0,0,1,5.93.5.5,0,0,1,0,.13c.41,1.81.82,3.61,1.22,5.42.06.26.08.53.12.8a20.12,20.12,0,0,1-1.21-3.89,15.88,15.88,0,0,0-.71-3.22,10.31,10.31,0,0,1-.85-4.36,2.6,2.6,0,0,0-.64-1.69,21.64,21.64,0,0,1-3.5-5.43,9,9,0,0,0-.61-.9c-.59,2.78-.59,2.78,1,4.63.11.14.25.26.35.4a9.22,9.22,0,0,1,2.18,6.62,7.43,7.43,0,0,0,.51,3.63,24.74,24.74,0,0,1,.63,2.43c.3,1,.66,2,1,3,.22.66.43,1.33.59,2,.26,1.11.47,2.22.7,3.34a1.8,1.8,0,0,1,.11.64,4.39,4.39,0,0,0,1.8,4.42c1.06-3.34.84-6.67.81-10a58.87,58.87,0,0,0-1.2-10c.31,1.2.58,2.4.87,3.59a21.24,21.24,0,0,1,.6,2.57c.25,2.64.43,5.28.6,7.92.06.83-.11,1.69,0,2.51a17.14,17.14,0,0,1-.62,5.34,2,2,0,0,0,.59,2c.26-1,.42-1.84.7-2.66a37.69,37.69,0,0,0,2.16-9.26c.17-2.15.46-4.29.65-6.45s.45-4.48.48-6.72c0-2.42-.14-4.85-.23-7.27h.08l.71,11a14.73,14.73,0,0,0,.39-1.79,23.83,23.83,0,0,1,.91-3.8,7.35,7.35,0,0,0,.27-3.39,42.31,42.31,0,0,0-1.8-10.28,63.19,63.19,0,0,0-3.53-9.7,13.3,13.3,0,0,0-4.17-4.41L172,84.59a5.84,5.84,0,0,1,.72.8c1.16,1.86,2.58,3.59,2.81,5.9a9.12,9.12,0,0,0,.51,1.64c.57,2.09,1.14,4.17,1.68,6.26a20.78,20.78,0,0,1,.38,2.09c.11.68.19,1.36.28,2a60.91,60.91,0,0,0-2.93-9.21c-.66-1.49-1.28-3-1.87-4.53s-1.72-2.26-2.55-3.69l-.75,1.25,2.22,3.72a18.49,18.49,0,0,0-2.82-2.61l-1.29,1.93c.26.69.49,1.25.7,1.82s.47,1.31.7,2Zm43.3,6.91.68-.83-6.08-9.42c-1.32.72-2.51,1.29-3.64,2a42.75,42.75,0,0,1-7.73,3.75,7.65,7.65,0,0,0-1.18.59q-1.9,1.07-3.78,2.16l-6.49,3.76c-.17,2.08-.33,4.1-.49,6.13-.06.74-.14,1.49-.16,2.23,0,1.4,0,2.81,0,4.21v1.76c.7-.34,1.25-.57,1.77-.88,3.88-2.29,7.73-4.63,11.63-6.88,3.29-1.89,6.65-3.67,10-5.51,1.85-1,3.69-2.06,5.54-3.1a4.1,4.1,0,0,1-.71.73c-2.14,1.41-4.28,2.82-6.44,4.19-2.68,1.72-5.4,3.37-8.07,5.1-2.15,1.4-4.24,2.88-6.37,4.3-2.47,1.64-4.93,3.28-7.42,4.88a1.58,1.58,0,0,0-.77,1.28,72.88,72.88,0,0,1-3.68,14.75,8.56,8.56,0,0,0-.23.83c2.61,1.3,2.71,1.26,3.66,3.58a11,11,0,0,0,3.47,4.88.47.47,0,0,1,.1.1c.76,1,1.72,2,1.19,3.52-.06.18.12.51.28.69a14.32,14.32,0,0,0,1,1,56,56,0,0,1,4.52,4.46,146.8,146.8,0,0,1,9.16,13.32c1.79,2.78,3.36,5.71,6.07,7.78a1.81,1.81,0,0,1,.68,1.89c-.12.69-.13,1.39-.22,2.08s-.23,1.33-.39,2.21c.95-.35,1.7-.68,2.49-.9,2.67-.74,5.36-1.43,8-2.17.32-.09.76-.27.86-.52a6.48,6.48,0,0,1,2.25-2.37,3.51,3.51,0,0,0,1.48-2.68c.1-2.06.29-4.13.49-6.19.25-2.59.57-5.17.83-7.76.17-1.66.28-3.33.45-5,.26-2.37.55-4.73.81-7.09a4.87,4.87,0,0,0-.15-1c-.32.54-.51.83-.66,1.14a57.56,57.56,0,0,1-7,10.62,5.62,5.62,0,0,1-1.61,1.34c-.75.44-1.36.11-1.33-.77a4.49,4.49,0,0,1,.58-1.85c1.1-2.16,2.34-4.26,3.37-6.45,1.74-3.72,3.35-7.5,5-11.25a7.11,7.11,0,0,0,.71-3.46c-.1-1.36-.13-2.73-.2-4.09,0-.8-.11-1.59-.13-2.39-.06-2.29-.18-4.59-.11-6.88a7,7,0,0,0-.42-3.08c-.34-.77-.66-1.56-1.06-2.29-1.86-3.41-3.7-6.84-5.64-10.21-1.27-2.21-2.7-4.34-4.06-6.49Zm-172,76.82a7.78,7.78,0,0,1,1-1.44c1.46-1.35,3-2.62,4.46-3.94a4.41,4.41,0,0,0,.78-.89c1.17-1.82,2.31-3.66,3.47-5.49,1.69-2.64,3.31-5.34,5.08-7.92,1.94-2.8,4.06-5.46,6-8.24,1.22-1.73,2.3-3.57,3.44-5.35.55-.86,1.1-1.7,1.67-2.54,1.38-2.05,3.06-3.88,4.17-6.13a2.91,2.91,0,0,0,.1-2.75c-2.16-4.58-3.06-9.57-4.62-14.36A3.36,3.36,0,0,0,65,116.51c-3.06-1.69-6-3.52-9.08-5.22-3.63-2-7.18-4.17-11-5.85a26.12,26.12,0,0,1-6.65-3.79A12.41,12.41,0,0,0,36,100.36a114.22,114.22,0,0,0-7.37,12.09,3.37,3.37,0,0,0-.29,1,89.65,89.65,0,0,0-.79,11.34c0,2.26.06,4.52,0,6.77a59.58,59.58,0,0,0-.17,9c0,.39,0,.8,0,1.19a4.58,4.58,0,0,0,.15,1.17c1.28,3.66,2.53,7.34,3.91,11,.77,2,1.77,3.95,2.67,5.91a2.76,2.76,0,0,1,.12,2.75A10.78,10.78,0,0,1,31.34,160c-.78-1-1.51-2.08-2.23-3.13-1.06-1.55-2.1-3.11-3.15-4.67l-.26,0c.06.85.07,1.7.16,2.55a63.92,63.92,0,0,1,.72,9A6.46,6.46,0,0,0,27,167a1.68,1.68,0,0,1,0,1.17c-.36,1.08.26,1.7,1,2.21a39.13,39.13,0,0,0,7,4.48c1.5.65,3,1.26,4.51,1.93A17.42,17.42,0,0,1,41.08,177.71ZM6.85,153.78a74.27,74.27,0,0,0,.55,11.39,8,8,0,0,0,1.73,4c.46.56.92.65,1.46.15a5.24,5.24,0,0,0,.85-1.17c.42-.73.76-1.5,1.2-2.21a1.79,1.79,0,0,0,.19-1.61,12.71,12.71,0,0,1-.46-2.46,25.76,25.76,0,0,1,.61-7.63c.77-3.8,1.72-7.57,2.54-11.37A111.25,111.25,0,0,1,26.82,113,178.49,178.49,0,0,1,41.76,90.19c3.46-4.53,6.86-9.1,10.29-13.66a39.72,39.72,0,0,1,4-4.43,48.82,48.82,0,0,0,5.24-5.23,4.81,4.81,0,0,1,5-2,5.39,5.39,0,0,0,2.31-.37,1,1,0,0,0,.52-.77c-.24-2.47.79-4.61,1.9-6.65a48.17,48.17,0,0,0,3.88-10.94,14.78,14.78,0,0,0,.38-3.52c0-1-.31-1.25-1.29-1.26a8.17,8.17,0,0,0-1.71.14,16.83,16.83,0,0,0-5.18,1.95A47.62,47.62,0,0,0,54.74,53.59C49.32,59.7,44.13,66,38.88,72.28a146.26,146.26,0,0,0-13,17.86,171.34,171.34,0,0,0-10.93,21.48c-3.05,7.11-5.63,14.38-6.57,22.14C7.52,140.51,6.66,147.25,6.85,153.78Zm144.84-80.6c1.1-.27,2.24-.57,3.39-.82,1.68-.36,3.36-.75,5.06-1a1.49,1.49,0,0,0,1.46-1.06c.49-1.37,1.06-2.72,1.48-4.11C164.76,60.65,166.2,55,169,49.81c.42-.77.65-1.64,1.05-2.43a23.46,23.46,0,0,1,1.3-2.14c1.2-1.83,3.14-2.64,5-3.58a4.55,4.55,0,0,1,3.2-.46,2.22,2.22,0,0,0,1.62-.22,4.62,4.62,0,0,1,6.67,4.2A3.14,3.14,0,0,0,189,47.72a5.88,5.88,0,0,0,1.39,1A9.16,9.16,0,0,1,193.34,51c.46.48,1,.92,1.42,1.39,1.94,2,4,3.88,5.79,6A65.14,65.14,0,0,0,207.66,66c1.61,1.37,3,3,4.55,4.45a23.83,23.83,0,0,1,3.71,4.13c1.93,2.8,3.83,5.62,5.75,8.43.13.18.27.34.43.54,1.38-.57,2.71-1.15,4.06-1.67,1.55-.6,3.08-.85,4.39.55.07.07.24,0,.42.07.21-.62.4-1.15-.3-1.63-.26-.17-.38-.57-.57-.87-1.21-2-2.27-4.09-3.49-6.08-2.39-3.91-4.91-7.78-7.67-11.45a137.71,137.71,0,0,0-18.53-19.64,77,77,0,0,0-22-13.85,39.18,39.18,0,0,0-7.7-2.37c-2.17-.42-4.29-1-6.44-1.48-1.33-.31-2.66-.65-4-.93a3.71,3.71,0,0,0-4.4,2.75,1.61,1.61,0,0,1-1.32,1.45,1.22,1.22,0,0,0-.8.56c-.64,1.54-1.75,3-1.22,4.81a2.65,2.65,0,0,1,0,.93c-.34,3.15-.7,6.31-1,9.46-.17,1.67-.24,3.34-.4,5-.28,2.68-.69,5.34-.87,8a50.54,50.54,0,0,0-.37,5.64c.07,1.4-.15,2.82-.2,4.23a2.59,2.59,0,0,0,.16,1C150.41,69.74,151,71.39,151.69,73.18ZM97.37,28.42c-.71.33-1.34.43-1.86-.33-1.05-1.51-2.56-1.67-4.25-1.45a40.14,40.14,0,0,0-6.72,2,171.39,171.39,0,0,0-16.38,6.1A105.7,105.7,0,0,0,48.62,46.35,81.21,81.21,0,0,0,35.66,58,142.38,142.38,0,0,0,21.37,77.6c-.72,1.15-1.39,2.34-2.15,3.63.76.29.74.83.63,1.41-.21,1-.79,2-.6,3.06a1,1,0,0,1-.31.71c-.75.65-.61,1.51-.59,2.33q.07,4.17.17,8.34c0,.45,0,.9.06,1.35h.31c.21-1.64.44-3.29.63-4.93.17-1.49.22-3,.45-4.47s.6-2.83.94-4.23a2.8,2.8,0,0,1,1.56-1.88c.27-.14.62-.21.8-.43a1.91,1.91,0,0,1,2.46-.6,2.32,2.32,0,0,0,.79.09,2.5,2.5,0,0,1,2.12,1c1.47-2,2.81-3.81,4.23-5.61,5.39-6.84,11-13.45,16.78-20a80.62,80.62,0,0,1,9.69-10,40.7,40.7,0,0,1,8.29-5.67,13.58,13.58,0,0,1,6.25-1.5c1.38.06,1.85.5,2.07,1.9a1.49,1.49,0,0,0,.08.31l1.3.61a5.27,5.27,0,0,0,.92.46A3.74,3.74,0,0,1,81,46.51c.27,1,.54,2.05.75,3.09a103.62,103.62,0,0,0,6.57,20.65c1,2.2,1.3,2.47,3.68,1.86a10.67,10.67,0,0,1,4.43-.06c2,.31,4.07.64,6.19,1,0-.2,0-.41,0-.62-.09-3-.16-6.09-.28-9.13-.1-2.74-.19-5.47-.37-8.2s-.49-5.71-.78-8.56-.68-5.69-.93-8.54a23.92,23.92,0,0,1-.14-6.6,9.41,9.41,0,0,0,0-1.42C98.48,30.6,98.15,29.28,97.37,28.42ZM240.4,158c1.67-1.7,2.12-3.85,3.07-5.53-.36-.37-.69-.54-.74-.78a4.7,4.7,0,0,1-.18-1.7,13.81,13.81,0,0,0-.87-5.84,3.32,3.32,0,0,1-.2-1.69,8,8,0,0,0-.26-4q-2-8-4-15.92a97,97,0,0,0-7.72-21.08c-2.62-5.07-5.32-10.08-8-15.14-2.24-4.33-5.15-8.24-7.84-12.28a6.63,6.63,0,0,0-.76-.92l-6.66-6.84c-1.47-1.52-3-3-4.42-4.56s-2.55-2.93-3.92-4.3a55,55,0,0,0-9.3-8,2.69,2.69,0,0,1-.41-.33,4.17,4.17,0,0,1-1.48-3.66c0-.27,0-.53,0-.8.13-1.69-.81-2.66-2.42-3.52a10.92,10.92,0,0,1,1.1,6.76,35.26,35.26,0,0,1-3,10.94l-2,4.15a5.62,5.62,0,0,0,4.49.83,1.74,1.74,0,0,1,1.8.55l2,2.28c1.7,1.92,3.34,3.88,5.1,5.74s3.88,3.75,5.68,5.75c2.24,2.49,4.43,5,6.46,7.71,3.73,4.94,7,10.21,10.28,15.45a219.17,219.17,0,0,1,14.64,27.9c2.69,6,4.26,12.44,6.18,18.72a8.65,8.65,0,0,1-.06,2.58,2.11,2.11,0,0,0,0,.75c.32.91.67,1.81,1.06,2.7.32.72.69,1.43,1.07,2.12S239.94,157.25,240.4,158ZM154,27.09h.28a6.87,6.87,0,0,0,.21-.87,2.81,2.81,0,0,1,1.4-2.14c.44-.29.9-.55,1.35-.83a1.91,1.91,0,0,1,2.23,0,4.73,4.73,0,0,0,1.45.6c4.84,1.14,9.75,2.05,14.53,3.43a66.16,66.16,0,0,1,21.46,11A130.77,130.77,0,0,1,214.36,54.5a88.91,88.91,0,0,1,9,11.43c2.6,3.95,5,8,7.33,12.11a4.73,4.73,0,0,1,.36.71,3.9,3.9,0,0,0,1.74,1.91,8.43,8.43,0,0,0,2.26.65c1.62.52,2.51-.57,3.43-1.46a2.31,2.31,0,0,0,.24-2.84c-.81-1.72-1.6-3.45-2.52-5.11a48.93,48.93,0,0,0-3.33-5.4c-4.81-6.45-9.91-12.65-15.25-18.67a203.66,203.66,0,0,0-14.71-15.26,85.63,85.63,0,0,0-20.37-13.95c-4.2-2.06-8.51-3.89-12.75-5.88a72.71,72.71,0,0,0-22-6.09,19.59,19.59,0,0,0-2.31,0c.49.64.93,1.12,1.28,1.66,1.47,2.2,2.9,4.42,4.36,6.62a8.16,8.16,0,0,1,1.47,4.3.7.7,0,0,1-.28-.39,13.49,13.49,0,0,0-2.16-3.91A54.8,54.8,0,0,1,146,9a14.91,14.91,0,0,0-1.93-2.27A1.5,1.5,0,0,0,144,8.35c.42.92.8,1.87,1.3,2.75,2.33,4.11,4.85,8.12,6.84,12.42,0,.09.18.12.32.21.34-1.31-.37-2.66.44-3.88C153.85,22.16,153.2,24.75,154,27.09ZM106.32,7.43a1.34,1.34,0,0,0-1.87-1.19c-.74.26-1.5.48-2.26.69-1.07.3-2.15.52-3.2.86a106.34,106.34,0,0,0-18.67,8.15A158.11,158.11,0,0,0,61.05,28.1c-4.55,3.49-9,7.14-13.51,10.69a87,87,0,0,0-8.88,8c-1.44,1.5-2.89,3-4.33,4.48A128.18,128.18,0,0,0,22.75,65a112.53,112.53,0,0,0-8.56,14.17c-.51,1-1,2-1.51,2.94A1,1,0,0,0,13,83.5a2.55,2.55,0,0,0,3.2-.7A29.5,29.5,0,0,0,18,80.15,132.81,132.81,0,0,1,31.11,60.92q3.73-4.39,7.76-8.52A72.47,72.47,0,0,1,49.14,44a107,107,0,0,1,18-10.65C74,30.28,81.21,28,88.36,25.53A11.52,11.52,0,0,1,92.92,25a3.8,3.8,0,0,1,3.25,2,2.62,2.62,0,0,0,.32.57c.17.16.45.38.61.33a.79.79,0,0,0,.42-.58c.09-.56,0-1.15.13-1.71a30.21,30.21,0,0,1,3.52-9.8c1.45-2.62,3.18-5.09,4.78-7.63C106.11,7.84,106.24,7.57,106.32,7.43Zm-40,93.51c.08-.31.12-.47.16-.64C67,98,67.36,95.7,68,93.45c1.21-4.6,3.93-8.39,6.91-12a3.14,3.14,0,0,0,.55-4C74,74.43,73,71.17,71.83,68c-.29-.77-.66-1.51-1.06-2.4-.75.27-1.35.52-2,.7a11.38,11.38,0,0,1-2.9.75,5.1,5.1,0,0,0-3.54,1.51c-1,.94-2.07,1.79-3.1,2.68a58.67,58.67,0,0,0-4.87,4.28,104.56,104.56,0,0,0-9,11.4c-.61.87-1.24,1.71-1.92,2.65l1.27.61c2.59,1.31,5.53,1.86,7.94,3.57a26.69,26.69,0,0,0,2.57,1.65c1.19.65,2.43,1.21,3.65,1.81Zm118.59-.58c.58-.28,1.07-.54,1.57-.77s.79-.3,1.18-.47.55-.39.82-.38c1.67,0,3-.93,4.39-1.64,1.72-.9,3.45-1.71,5.25-2.47,3-1.28,6-2.79,9-4.22.06,0,.08-.14.12-.22a.66.66,0,0,0-.06-.25A75.55,75.55,0,0,0,196.89,76.5c-3-3.15-6.14-6.23-9.21-9.34a5.18,5.18,0,0,0-1.11-.94,2.85,2.85,0,0,0-1.47-.39A4.17,4.17,0,0,1,182,65c-.58-.43-1.21-.81-2-1.33,0,.62.06,1,.06,1.4a19,19,0,0,1-.07,3,29.13,29.13,0,0,1-3.48,9.56c.49.49,1,1,1.56,1.54A13.49,13.49,0,0,1,181.42,84a35.77,35.77,0,0,1,2,7.39ZM118.53,78.93l.22-.29a8.41,8.41,0,0,0-.72-1.36,17.73,17.73,0,0,1-3.22-6.91c-.57-2.41-1-4.84-1.53-7.26A136.35,136.35,0,0,1,110.6,45.6c-.34-4.09-.56-8.19-.82-12.28-.07-1.15-.12-2.3-.12-3.44q0-6.42.11-12.85a2.3,2.3,0,0,1,0-.26,17.4,17.4,0,0,0-.07-7.08,16.91,16.91,0,0,0-1.08-3,8.31,8.31,0,0,0-.57.81c-.5,1-1,2.06-1.48,3.09-.27.56-.53,1.11-.78,1.67-.69,1.53-1.36,3.06-2.06,4.58s-1.37,2.68-1.92,4.07c-.62,1.56-1.08,3.17-1.6,4.77-.19.57-.34,1.16-.5,1.73,1.21.38,1.27.38,1.37,1.42.13,1.27.15,2.55.21,3.83.08,1.62,0,3.26.23,4.87.52,4.38,1.17,8.74,1.72,13.11.26,2.15.44,4.3.62,6.45.23,2.81.45,5.63.62,8.44.14,2.38.2,4.76.29,7.15a1.9,1.9,0,0,0,1.37,1.87,35.57,35.57,0,0,1,4.58,2.06,14.81,14.81,0,0,0,5,1.7C116.67,78.5,117.6,78.74,118.53,78.93ZM85.81,236.87a15.54,15.54,0,0,0,1.8-5.69,45.69,45.69,0,0,0,.49-5.81,4.53,4.53,0,0,1-1.39-.37,23.88,23.88,0,0,1-2.88-2.31,73.38,73.38,0,0,1-5.75-6.91c-4.6-5.84-8.91-11.87-13-18-2.93-4.37-5.55-8.94-8.85-13.05a4,4,0,0,1-.6-1.59,4.87,4.87,0,0,1,.6-3c.21-.51.41-1-.38-1.5-1.62.59-3.33,1.27-5.07,1.84a29.81,29.81,0,0,1-4.34,1.14,23.44,23.44,0,0,1-3.68,0,26.91,26.91,0,0,0,2.18,2.28,10.43,10.43,0,0,1,2.22,2.78C49,189.76,50.82,193,53,196c3.36,4.71,6.89,9.31,10.46,13.86,6.11,7.79,12.28,15.52,18.89,22.9C83.47,234,84.57,235.39,85.81,236.87Zm120.76-54a3,3,0,0,0-.6,0,8.66,8.66,0,0,1-4.32-.11c-1.33-.32-2.65-.69-4-.92a5.32,5.32,0,0,0-2,.15.9.9,0,0,0-.44,1.29c.13.3.34.68.26.94a22.33,22.33,0,0,1-1.44,4.12c-2.1,3.93-4.19,7.89-6.58,11.64a96.49,96.49,0,0,1-6.35,8.48q-3.35,4.2-6.88,8.23a78,78,0,0,1-8.64,8.41c-.87.73-1.7,1.5-2.59,2.28a7.44,7.44,0,0,1,.75,1.14,4.62,4.62,0,0,1,.57,1.85,5.06,5.06,0,0,0,.54,2.76,9.27,9.27,0,0,1,.47,1.52c.23.78.47,1.56.78,2.59a12.59,12.59,0,0,0,1.32-1.3c1.2-1.62,2.43-3.24,3.53-4.94a48.25,48.25,0,0,1,5.42-6.34,26.15,26.15,0,0,0,2.77-3.2,68.78,68.78,0,0,1,5.42-6.85,77.31,77.31,0,0,0,7.92-10.77,27.19,27.19,0,0,1,1.71-2.52c.88-1.16,1.86-2.25,2.68-3.45a40.75,40.75,0,0,0,4.5-8.09,3.12,3.12,0,0,1,1.8-2,2.09,2.09,0,0,0,1.37-1.3,2.74,2.74,0,0,1,1.88-1.73c.21-.06.38-.27.67-.48l-.78-.2ZM76.63,128.44c-.1.63-.19,1-.23,1.45a7.46,7.46,0,0,1-1.72,4.34c-.76.91-1.3,2-2,3s-1.3,1.89-2,2.79c-1.69,2.15-3.44,4.25-5.11,6.42-1.27,1.64-2.44,3.35-3.67,5a133.21,133.21,0,0,0-8.05,11.51c-1.76,3-3.62,6-5.47,8.91a6.39,6.39,0,0,1-1.2,1.39c-1.5,1.3-3,2.55-4.54,3.84a1.24,1.24,0,0,0-.59,1.32c.39,0,.79,0,1.18,0,1.8-.11,3.61-.14,5.4-.36,2-.24,4-.65,6-1a.3.3,0,0,0,.05-.07.55.55,0,0,0,0-.25,4.13,4.13,0,0,1,1.62-4.2,3.35,3.35,0,0,0,.49-.62c2.12-2.77,4.22-5.56,6.38-8.3,1-1.24,2.11-2.37,3.14-3.58s2-2.34,3-3.56c1.46-1.88,2.85-3.81,4.33-5.68a2.42,2.42,0,0,1,1.33-.72c.22,0,.54.4.93.73A9.59,9.59,0,0,0,77.65,149c.22-.37-.09-1.07-.18-1.62a1.63,1.63,0,0,1,.69-1.74c.32-.22.66-.42,1-.61a8,8,0,0,0-.07-3.83c-.27-1.47-.69-2.92-.88-4.39-.28-2.19-.4-4.39-.62-6.58A2.15,2.15,0,0,0,76.63,128.44ZM66.46,103c-2.65-1.44-5.25-2.84-7.84-4.27a66.2,66.2,0,0,0-8-4.17c-.82-.31-1.63-.66-2.43-1a4.75,4.75,0,0,1-1.27-.7A13.38,13.38,0,0,0,43.35,91,1,1,0,0,0,42,91.4c-1.57,2.29-3.18,4.56-4.76,6.85a3.35,3.35,0,0,0-.27.67,6.49,6.49,0,0,1,3.71,1.74,19.94,19.94,0,0,0,3,2.1c1.86,1.1,3.84,2,5.66,3.17,5.29,3.37,10.52,6.83,15.78,10.25a10.15,10.15,0,0,0,.95.5c-.16-2.38-.48-4.62-.42-6.85S66.17,105.39,66.46,103Zm165.17,32.5a4.88,4.88,0,0,0-1.46,2.35c-.71,1.76-1.32,3.57-2.14,5.28a7.19,7.19,0,0,0-.47,3.6c.09,1.76.1,3.53.08,5.3s-.1,3.43-.15,5.15c0,1.1,0,2.21-.09,3.31-.12,1.85-.36,3.69-.41,5.54a19.09,19.09,0,0,1-1.93,8.41,4.41,4.41,0,0,1-1.68,2.16c-.14.08-.18.34-.32.62l3.43.16,2.77.18a1.48,1.48,0,0,0,1.69-1.15c.39-1.26.81-2.52,1.27-3.76a8.62,8.62,0,0,1,.86-1.75,17.8,17.8,0,0,0,2.68-7.26,32.79,32.79,0,0,0,.27-3.43c.06-2.83.11-5.66.07-8.49a12.73,12.73,0,0,0-.45-3c-.32-1.19-.82-2.33-1.17-3.51C233.53,142,232.62,138.84,231.63,135.47Zm-22,83.3a4.47,4.47,0,0,0,3.7-1.25,45.35,45.35,0,0,0,5.13-5.34,123.91,123.91,0,0,0,8.49-12c1.95-3.31,4.09-6.51,5.93-9.87a64.29,64.29,0,0,0,6-14.83,53,53,0,0,1,2.18-7.62c.15-.37.17-.78.29-1.16.39-1.26.78-2.52,1.21-3.76.3-.85.66-1.69,1-2.63-.53.43-.93.75-1.31,1.08-1.39,1.21-2.38,1.07-3.33-.46-.33-.54-.65-1.09-1-1.64a26,26,0,0,0-1.23,5.06,8.48,8.48,0,0,1-.89,3.74,18,18,0,0,0-1.88,5.33,76.4,76.4,0,0,1-7,18.52c-1.91,3.58-4,7.07-6.12,10.54A102.87,102.87,0,0,1,213.94,213C212.49,214.82,211.15,216.73,209.64,218.77Zm-50.32,5.88c-.85.94-1.75.64-2.65.13a7.9,7.9,0,0,1-.8-.46,26.74,26.74,0,0,1-5.07-4.42,4.85,4.85,0,0,0-.67-.61,57.9,57.9,0,0,1-4.6-3.76,46.93,46.93,0,0,1-6.81-8.61c-2.47-4-4.95-8.07-5.91-12.8,0-.12-.14-.22-.33-.47a30.26,30.26,0,0,0,0,4.28,43.45,43.45,0,0,0,5.16,14.68,83,83,0,0,0,15.47,19.76,37.25,37.25,0,0,0,4.36,3.44c1.07.74,2.1,1.45,2.41,2.75.66.22,1.25.51,1.71,0-.14-1.52-.28-3-.39-4.41-.2-2.41-.45-4.83-.55-7.25A2.25,2.25,0,0,0,159.32,224.65ZM18.9,174.09a3.88,3.88,0,0,0,.79-.21A12.69,12.69,0,0,0,24,170.44a5.08,5.08,0,0,0,1.34-4,7.38,7.38,0,0,1,0-1.33c.06-1.72.21-3.44.18-5.15q-.06-3.84-.32-7.68a6.54,6.54,0,0,0-.51-2.83,49.27,49.27,0,0,1-4.48-12.28c-.17-.73-.4-1.45-.61-2.17a4,4,0,0,0-.72,1.48c-.74,3.08-1.45,6.18-2.2,9.27a15.24,15.24,0,0,0-.74,6c.11.78.14,1.58.18,2.37a36.77,36.77,0,0,0,.81,7.09,20.57,20.57,0,0,1,.26,2.09q.66,4.51,1.35,9C18.64,172.87,18.77,173.44,18.9,174.09Zm116.22-50.16c.76-.31,1.47-.64,2.21-.9,1.7-.6,2.41-.31,3.5,1.14a23,23,0,0,0,2.25,2.58,2.36,2.36,0,0,0,1.38.64c1.93.16,3.86.27,5.8.31a2.51,2.51,0,0,0,2.57-3.34c-.51-2.22-1.35-4.37-1.42-6.68a1.06,1.06,0,0,0-.31-.71c-1.06-.85-1.33-2.12-1.9-3.24a5.18,5.18,0,0,0-2.7-2.78,6.46,6.46,0,0,1-4-3.17,15.75,15.75,0,0,1-1.71-.13,1,1,0,0,0-1.16.63,8.69,8.69,0,0,1-.53,1.21,6.87,6.87,0,0,1-1.35,1.74,4.46,4.46,0,0,0-1.8,3.63,28.23,28.23,0,0,1-.46,3.65c-.17.95-.46,1.89-.72,2.82A3.12,3.12,0,0,0,135.12,123.93ZM88.41,238.15c.37.57.79.62,1.21.35a8.17,8.17,0,0,0,1.12-.92c1.07-1,2.1-2,3.2-3,2.26-2,4.64-3.81,6.82-5.87a76.05,76.05,0,0,0,12.67-16.24,47.07,47.07,0,0,0,5.67-13.78,6.45,6.45,0,0,0,0-2.8,18.1,18.1,0,0,0-1.07,2,78.15,78.15,0,0,1-15.88,21.36A47.65,47.65,0,0,1,94,225.61c-1,.61-2,1.17-3.17.06-.12.61-.24,1.08-.29,1.55-.21,2.15-.36,4.3-.61,6.45A8.24,8.24,0,0,1,88.41,238.15Zm31.32-133.89-1.45.46a10,10,0,0,1-4.69.56,12.94,12.94,0,0,0-7.46,1.19,4,4,0,0,0-2.21,2.35,5.45,5.45,0,0,1-.86,1.47,18.18,18.18,0,0,0-3.07,6.52c-.31,1.16-.46,2.43-1.73,3.11a2.11,2.11,0,0,0-.75,1.07c-.45,1.1-.83,2.23-1.23,3.35a5.27,5.27,0,0,1-.44,1.23,14.68,14.68,0,0,0-2.51,7.67,2.3,2.3,0,0,0,.6-.77c.73-1.71,1.45-3.41,2.12-5.14a4.08,4.08,0,0,1,2.23-2.64,1.31,1.31,0,0,0,.6-.75c.66-2,1.89-3.19,3.94-3a15,15,0,0,0,2.12,0,2.76,2.76,0,0,0,1-.14c2.12-.91,4.26-1.79,5.41-4a2.35,2.35,0,0,1,.58-.71,32.1,32.1,0,0,0,3.36-3.34C117.48,110.34,119.34,107.79,119.73,104.26Zm7.71,9.28a52.31,52.31,0,0,1-10.12-1,.78.78,0,0,0-.62.11,18.77,18.77,0,0,0-1.55,1.41c-1.23,1.25-2.43,2.55-3.67,3.79a18.75,18.75,0,0,1-2.18,1.91,11.35,11.35,0,0,1-5.06,2.28c.09,2.63.14,5.16,1.5,7.66.38-.41.69-.74,1-1.08a19.81,19.81,0,0,1,1.65-1.88,19.78,19.78,0,0,1,2.06-1.42,1.25,1.25,0,0,1,1.87.18c.38.37.69.8,1.07,1.18.79.78,1.08.8,2.11.36a9.21,9.21,0,0,1,1.86-.67,3.77,3.77,0,0,0,2.16-1.19c1.34-1.59,2.7-3.17,3.9-4.86s2.17-3.43,3.22-5.16C126.92,114.68,127.14,114.16,127.44,113.54Zm1,49.72.23,0c.09-.3.19-.59.27-.89a3,3,0,0,1,2-2.23,3.82,3.82,0,0,0,1.21-.77c.78-.65,1.52-1.34,2.27-2,.9-.81,1.78-1.64,2.69-2.48l-2-1.33c-1.59-1-3.14-1.7-5.13-.79a10.71,10.71,0,0,1-5.58.81c-1.14-.12-2.42.1-3.27-1a1,1,0,0,0-.72-.24,14.68,14.68,0,0,0-2,0,3.64,3.64,0,0,0-3.26,3.68,3.74,3.74,0,0,0,1.82,3.06,2.68,2.68,0,0,1,1.47,1.45,5.52,5.52,0,0,0,3.37,3.32,2.18,2.18,0,0,1,.77.45c.63.73,1.21,1.49,1.82,2.24s1,.62,1.44-.06.81-1.36,1.29-2A11.85,11.85,0,0,1,128.4,163.26Zm12.31-57c-1.19-.26-2.07-.51-3-.65a28.83,28.83,0,0,1-7.3-1.82c-1.29-.58-2.6-1.1-3.89-1.66a3.58,3.58,0,0,0-4.23,1.2c-.67,1.15-1.36,2.28-1.93,3.47-.87,1.82-1.46,3.77-3.09,5.53,2.45.18,4.58.43,6.72.47,1.76,0,3.53-.32,5.28-.24a15,15,0,0,0,6.79-1.45,3.78,3.78,0,0,0,2.44-2.58A2.9,2.9,0,0,1,140.71,106.24Zm-12.28,46.48a24.42,24.42,0,0,1-1.31-2.85A2.38,2.38,0,0,0,125,148a4.44,4.44,0,0,1-1.62-.79,5.18,5.18,0,0,1-2.27-3.44,3,3,0,0,0-2.1-2.34,4.92,4.92,0,0,1-2.5-1.87,5,5,0,0,0-3.08-1.89,2,2,0,0,0-2.26.54,8.1,8.1,0,0,1-1.3.9c-.24.18-.59.38-.63.62a4.1,4.1,0,0,1-2.19,2.91,4.37,4.37,0,0,0,.39.32,21.9,21.9,0,0,1,7.27,7.37,1.79,1.79,0,0,0,.65.63,4.47,4.47,0,0,0,2.88.47c1.39-.24,2.72-.26,3.7,1.06.17.24.6.32.93.39a6.38,6.38,0,0,0,1.44.18A9.87,9.87,0,0,0,128.43,152.72Zm9.57,1a9.85,9.85,0,0,0,.18-1.12,2.68,2.68,0,0,1,1.65-2.62c.4-.18.76-.44,1.16-.64a1,1,0,0,0,.63-1c-.36-2.48.4-5-.28-7.47a2.91,2.91,0,0,1,0-1.31,14.26,14.26,0,0,1,1.22-4c.18-.33.31-.69.46-1l-.23-.17c-.81.86-1.56,1.8-2.44,2.58a29,29,0,0,1-6.72,4.43A4.42,4.42,0,0,0,131,146a5,5,0,0,1-.17,1.68,3.64,3.64,0,0,0-.3,2.17,11.23,11.23,0,0,1,.19,2.23,9,9,0,0,1,1.23-.34,2.06,2.06,0,0,1,1,.06c1.23.46,2.45,1,3.67,1.48C137,153.39,137.41,153.52,138,153.72ZM236.08,113h.28c.1-1,.17-2,.29-3,.43-3.49.88-7,1.31-10.47a34.71,34.71,0,0,1,.43-3.53,46.84,46.84,0,0,0,1.19-12.71c0-.35-.07-.69-.11-1a4.83,4.83,0,0,1-3,2.26,4.73,4.73,0,0,1-3.63-.8,1.21,1.21,0,0,0,.13,1.8,3.5,3.5,0,0,1,1,1.5,23.87,23.87,0,0,1,.75,7.72c-.18,1.53-.3,3.06-.44,4.6s-.3,3.06-.4,4.6a10.1,10.1,0,0,0,0,3.15C234.48,109.09,235.34,111,236.08,113ZM220.37,180a3.7,3.7,0,0,1-3.48,1.73,10.83,10.83,0,0,0-4.65.89c-1.12.5-2.3.87-3.43,1.37a1.85,1.85,0,0,0-.75.81c-.29.55-.51,1.14-1.19,1.34a2,2,0,0,0-1.28,1.23,2.8,2.8,0,0,1-1.9,1.72,1.33,1.33,0,0,0-1,1,2.64,2.64,0,0,0,.55.07l5.57-1.12c4-.78,7.77-2.33,11.65-3.5,1.31-.39,2.62-.77,3.95-1.09a3.35,3.35,0,0,0,2.61-2.65Zm-115.44-39c1.37-.28,2.57-.43,3-1.94a2.18,2.18,0,0,1,.94-1c.87-.59,1.79-1.11,2.7-1.64,3.13-1.81,4.79-4.69,5.85-8a13.46,13.46,0,0,0,.29-1.64c-.84.35-1.41.54-1.94.81-1.4.72-1.77.69-2.92-.4l-1.4-1.33a13,13,0,0,1-1.93,1.41,3.5,3.5,0,0,0-2,2.36,2.16,2.16,0,0,1-1.34,1.68,1.53,1.53,0,0,0-1.1,1.59,4.21,4.21,0,0,0,.3,2.57,3.32,3.32,0,0,1,.11,2.46c-.16.68-.38,1.36-.53,2A7.07,7.07,0,0,0,104.93,141.07ZM56.81,183.55l-.16.29c.69.89,1.43,1.76,2.06,2.7a2.46,2.46,0,0,0,2,1.13c1.75.17,3.49.48,5.24.65,3.37.33,6.75.72,10.13.85,2.73.11,5.47-.11,8.2-.21a27.89,27.89,0,0,0,3-.23,12.16,12.16,0,0,0,3.85-1.46C79.66,186,68.16,185.53,56.81,183.55Zm-43-74.62h.41c1-2,2-4,2.95-6a1.64,1.64,0,0,0,.05-.63c0-1.36-.08-2.72-.06-4.09,0-1.85.11-3.7.11-5.55,0-1.45-.12-2.91-.17-4.36a5.91,5.91,0,0,1,0-1.33,6.49,6.49,0,0,1,.55-1.22c-.38.19-.61.32-.85.43-2.25,1.14-3.37.8-4.69-1.38a2.9,2.9,0,0,0-.54-.57l-.26.11c.08,1.27.12,2.54.24,3.8.2,1.93.54,3.85.67,5.78.15,2.2,0,4.42.24,6.6C12.76,103.31,13.32,106.12,13.77,108.93Zm12.81,61.53c-.93-.22-1.19.34-1.55.87-1.09,1.64-1.54,3.83-4,4.52a5.87,5.87,0,0,0,.72.41l4.48,1.63c1.53.55,3.05,1.14,4.59,1.66a20.14,20.14,0,0,0,3.78,1.12,25.65,25.65,0,0,1,7,1.89,9.18,9.18,0,0,0,.93.3,4.66,4.66,0,0,0-1.22-2.07,2.75,2.75,0,0,1-1.16-2.07,81.72,81.72,0,0,1-10.3-4.64C28.26,173.18,26.7,172.48,26.58,170.46ZM21.87,127.4c-.24.56-.44.94-.58,1.35-.46,1.38-.88,2.78-1.36,4.15a3.2,3.2,0,0,0,0,2,68.88,68.88,0,0,0,7.25,17c1,1.59,2.11,3.08,3.17,4.61l.28-.15L30,154.71a94.57,94.57,0,0,1-5-16A64.47,64.47,0,0,0,21.87,127.4Zm208.6-43.86c-1.61,2.34-2.61,5-4.68,7.11,1,1.36,1.47,3,2.3,4.39s1.54,3,2.28,4.48,1.47,3,2.2,4.46c.4-2.14.6-4.22.83-6.3a10.82,10.82,0,0,0-.49-4.55c-.66-2.06-1.14-4.17-1.7-6.25-.07-.28-.2-.54-.34-.93-1.2,1.91-1.46,4.27-3.56,5.43C228.6,88.86,230,86.41,230.47,83.54Zm-1.13,46.29c-.6,2.12-1.26,3.94-1.6,5.82-.19,1.07-.13,2.1-1.17,2.78-.16.1-.24.36-.33.56-.78,1.77-1.52,3.57-2.33,5.33A116.12,116.12,0,0,1,217.42,157a10.54,10.54,0,0,0-.71,1.27,2.56,2.56,0,0,0-.07.79l.24.13A10.21,10.21,0,0,0,218.2,158a65.75,65.75,0,0,0,7.48-12c1.42-3.09,2.68-6.25,4.2-9.28A6.27,6.27,0,0,0,229.34,129.83ZM160,74.15c-1.16.12-2,.25-2.82.29a35.25,35.25,0,0,1-3.56.07c-1-.06-2-.54-3.14-.2-1,.28-2,.5-3.16.91l2.12,1.08a6.69,6.69,0,0,1,3.38,3.21c.4.95,1.32,1.15,2,1.59.29.18.88-.1,1.34-.18a2.72,2.72,0,0,1,.38-.11,1.55,1.55,0,0,0,1.53-1.22C158.69,77.85,159.29,76.11,160,74.15ZM94.11,82.89c1.66-1.6,3.47-2.71,4.69-4.52a11.74,11.74,0,0,1,2.35-2.07c.18-.15.4-.25.79-.5a14.86,14.86,0,0,0-1.41-.48c-2.37-.53-4.73-1-7.1-1.56a3.76,3.76,0,0,0-1.06,0c-.81.07-1.62.18-2.52.28l1.31,3.42a1.62,1.62,0,0,0,.49-.16,6.05,6.05,0,0,1,4.58-1.18,5.26,5.26,0,0,0,.65-.12c.45,0,.91,0,1.37,0a7.56,7.56,0,0,1-3.49.91,3.72,3.72,0,0,0-1.26.25c-.7.35-1.34.81-2.07,1.26Zm-66.3,32-.34-.12a2.16,2.16,0,0,0-.27.4c-1.48,3.25-3,6.49-4.4,9.76a2.2,2.2,0,0,0-.08,1.39c.8,2.88,1.65,5.75,2.5,8.62,0,.1.17.17.4.39A104.34,104.34,0,0,1,27.81,114.88Zm151.84-54.2.25,0a5.21,5.21,0,0,0,.35-.81c.49-2,1-3.92,1.4-5.91.53-2.89.94-5.81,1.33-8.73a5.32,5.32,0,0,0-.45-3.59c-1.59.06-1.66.61-1.73,1.78-.13,2.33-.16,4.67-.29,7-.11,2-.29,4-.46,5.92C179.93,57.82,179.78,59.25,179.65,60.68Zm17.17,119.26c-.24.78.24.92.65,1,1,.25,2.09.37,3.09.69a10.85,10.85,0,0,0,6.48,0c1.25-.37,1.4-.5,1.24-1.82h-2.35c-1.27,0-2.54-.05-3.8,0C200.38,180,198.64,180.41,196.82,179.94Zm28.42-90.23a35.13,35.13,0,0,0,3.5-6.53l-6.15,1.33Zm-63.19,138.2a1.27,1.27,0,0,0-.09.36q.3,3.87.63,7.74a11.54,11.54,0,0,0,.16,1.18c.1.65.55.83,1.13.87a.82.82,0,0,0,1-.86,5.09,5.09,0,0,0-.17-1.55c-.23-.89-.56-1.76-.8-2.65-.34-1.28-.64-2.56-1-3.85C162.78,228.64,162.68,228.11,162.05,227.91ZM76.74,44.55,74.16,54.94a9.59,9.59,0,0,0,1.27-1.62c.8-1.76,1.57-3.55,2.22-5.37a7.7,7.7,0,0,0,.18-2.22C77.87,45,77.45,44.63,76.74,44.55ZM23.18,83.67a2.39,2.39,0,0,0-1.61,2.71c.32,1.5.71,3,1.09,4.48a4.28,4.28,0,0,0,.49.85,5.73,5.73,0,0,0,.51-1.56c0-1.66-.14-3.32-.24-5C23.39,84.7,23.27,84.24,23.18,83.67ZM25,88.06l.26.08,2.73-4.07-3-.93ZM14.41,166.21l-.28-.12-1.66,2.81a4.25,4.25,0,0,1-2.36,2.18,9.38,9.38,0,0,0-1.52.84.86.86,0,0,0,1.26.15c1-.66,2.11-1.28,3.08-2A3.76,3.76,0,0,0,14.41,166.21Zm212.2-42.48c-.23,2.77.44,5.42.82,8.12a6.29,6.29,0,0,0,.37-1.75c0-1-.06-1.94,0-2.9C228,125.82,227.24,124.82,226.61,123.73ZM99.25,23.82l.28.13c.2-.52.45-1,.6-1.57a26.93,26.93,0,0,1,2.81-6.55,31.46,31.46,0,0,0,1.48-3.1,3.66,3.66,0,0,0,.15-.76A33.67,33.67,0,0,0,99.25,23.82ZM222.06,178.58c.58,1.12.9,1.29,2,1.08s2-.4,3-.62a4.44,4.44,0,0,0,.76-.3l0-.29C225.84,178.36,224,177.49,222.06,178.58ZM21.18,90H21l-.88,6.28.32.11,1.77-3.23ZM15,154.12a23.82,23.82,0,0,0-.65,8.1,2,2,0,0,0,.24.88c.12.2.41.29.66.45Zm27.83,25.82a7.07,7.07,0,0,0,6.46-.48l-6.3.31C43,179.78,42.9,179.88,42.85,179.94ZM243.3,156.39c-.45.74-.88,1.5-1.35,2.24s-1.06,1.42-2.15,1.14c.53,1.27.87,1.38,1.8.6C242.81,159.34,243.05,157.85,243.3,156.39ZM184.16,45.49c-.7,1-1.33,5.61-1,6.93A20.26,20.26,0,0,0,184.16,45.49ZM13.9,85.12c1,.75,1.48.67,3.24-.44,1.45-.91,1.76-1.38,1.58-2.67-.57.63-1,1.13-1.5,1.66A3.26,3.26,0,0,1,13.9,85.12ZM238,81.73c-1.08,1.11-2.29,1-3.55.57a2.76,2.76,0,0,0-.74,0C235,84,237,83.75,238,81.73Zm-8.36,97.55-.15-.29c-.75.22-1.51.41-2.25.67s-1.52.11-2.3.92C226.72,180.34,228.36,180.5,229.59,179.28ZM19.64,174.86c2-.08,2.89-.71,3.25-2.07ZM236.85,159.6c.9-1.13.47-2.27,0-3.65Zm-4.24-71.07.28-.07c0-.53.1-1.09-.63-1.45Zm-50.18,26.18h-.2v1.11h.12Z"/><path class="cls-1" d="M84.18,91.93a5.83,5.83,0,0,1,2,5c0,.72-.12,1.43-.2,2.37a4.9,4.9,0,0,0,1.71-2.39A34.62,34.62,0,0,1,92,90.11a3.23,3.23,0,0,1,.49-.41l.84-.7,4.89-5a6.7,6.7,0,0,0,.64-.67c1.3-2,3.35-2.6,5.52-3l-.78.42-1,.45a4.34,4.34,0,0,0-2.27,2.27,12.82,12.82,0,0,1-3.17,3.87,10,10,0,0,1-1.32,1.1,13.23,13.23,0,0,0-4.26,5.64,22.47,22.47,0,0,1-2.15,3.64c-.64.9-1.25,1.82-1.92,2.7-.33.45-.78.81-1.15,1.24a3.58,3.58,0,0,0-.66,1q-1.2,3.29-2.34,6.6c-.3.87-.51,1.79-.85,2.64a11.23,11.23,0,0,1-1,1.57,1.23,1.23,0,0,1-.61-1.47,39.05,39.05,0,0,1,2.46-7.26,13.66,13.66,0,0,0,1.17-3.63c-.09.06-.23.09-.27.17-1.13,2.2-2.23,4.41-3.39,6.59a14.54,14.54,0,0,0-1.55,4.76,13.5,13.5,0,0,1-.83,2.88c.43-3.57.61-7.19,2-10.57,1.26-3.06,2.53-6.12,3.78-9.18a2.79,2.79,0,0,0,.18-1.14C84.42,93.68,84.28,92.81,84.18,91.93Zm7.92-1a14.9,14.9,0,0,0-3.34,6.51C90.62,95.61,91.21,93.18,92.1,90.9Z"/><path class="cls-1" d="M182.43,114.71l-.08,1.1h-.12V114.7Z"/><path class="cls-1" d="M165,119.11c.19.75.43,1.49.55,2.25.53,3.4,1,6.79,1.52,10.2.14,1,.1,2.11.14,3.17a13.2,13.2,0,0,0,.93,4.94c.12-.12.24-.19.27-.29a32,32,0,0,0,1.21-10.18,60.6,60.6,0,0,0-2.29-13.66c0-.11,0-.25.21-.42.81,3.47,1.71,6.91,2.4,10.39.39,2,.41,4,.65,6,.09.77.42,1.52.49,2.29a10.61,10.61,0,0,1-.34,3.54c-.3,1.24-.39,2.53-.63,3.78-.11.62-.35,1.22-.6,2.1l-1-1.5-.24,0c0,.85.06,1.71,0,2.56a6.5,6.5,0,0,1-2,4.58,20.68,20.68,0,0,0-1.71,2.19c-.73.88-1.5,1.72-2.25,2.58-.61.7-1.23,1.39-1.79,2.12-.77,1-1.49,2.08-2.21,3.15a4.92,4.92,0,0,1-2,1.83,90,90,0,0,0-12.43,7.57,5.55,5.55,0,0,1-3.09,1.18c2.12-1.46,4-2.83,6-4.1,2.52-1.63,5.06-3.23,7.65-4.75a7.32,7.32,0,0,0,3.58-3.89c.16-.46.42-.88.59-1.33a10.48,10.48,0,0,1,3.11-4.84,12.58,12.58,0,0,0,1.42-1.73,18.17,18.17,0,0,1,2-2.25,3.94,3.94,0,0,0,1.46-2.72,21.4,21.4,0,0,0,0-5.54,28.46,28.46,0,0,1-.07-3.7c-.08-2.47-.11-4.94-.33-7.4-.23-2.67-.65-5.32-1-8,0-.08-.1-.15-.14-.22Z"/><path class="cls-1" d="M141.5,165.36c-.91-.93-.94-1-.22-1.64a15.64,15.64,0,0,1,3.11-2.21c2.31-1.28,4.83-2.2,6.91-3.88a2.73,2.73,0,0,0,.76-.71q1-2,2-4c.54-1.16,1-2.35,1.53-3.51a10.59,10.59,0,0,1,.58-1,6,6,0,0,0,.92-5c-.25-.79-.17-1.67-.4-2.47a6.56,6.56,0,0,0-1-2.13,2.67,2.67,0,0,1-.1-3.62,34.35,34.35,0,0,1,2.56-2.84c.71-.69.83-.86.51-1.81a5.26,5.26,0,0,0-.42-1,6.49,6.49,0,0,1-.94-3.92,16.94,16.94,0,0,0-.51-4.85c-.4-1.71-.56-3.48-.81-5.23a36.12,36.12,0,0,0-1.49-6.85c.22.48.45,1,.64,1.45s.34,1,.49,1.51.31,1.1.42,1.66c.38,2,.74,4.08,1.11,6.12a3.4,3.4,0,0,0,.13.65,24,24,0,0,1,1.22,6.34,4.54,4.54,0,0,0,.6,1.59c.37.75.89,1.43,1.22,2.2a3.16,3.16,0,0,1-1,3.92c-.75.67-1.43,1.43-2.12,2.18a1.06,1.06,0,0,0-.13,1.43,7.74,7.74,0,0,1,1,4.32c0,.92,0,1.85,0,2.78a9,9,0,0,1-1.3,3.84,35.44,35.44,0,0,0-1.89,4.8,24.69,24.69,0,0,1-2.17,4.21,2.12,2.12,0,0,1-.78.7c-1.38.78-2.81,1.47-4.16,2.31a29.56,29.56,0,0,0-5.25,3.79Z"/><path class="cls-1" d="M161.43,121.19c.51,2.58,1,5.17,1.52,7.75a3.2,3.2,0,0,0,.17.77,8.88,8.88,0,0,1,.1,6.81,20.93,20.93,0,0,0-.73,4,21.65,21.65,0,0,1-1.05,5c-1.17,3.23-2.16,6.54-4,9.47a15.92,15.92,0,0,1-2.33,2.91,6.75,6.75,0,0,1,.24-.91c.52-1.17,1.07-2.33,1.59-3.5a48.52,48.52,0,0,0,4-13.92,11.33,11.33,0,0,1,1.4-4.37,6.3,6.3,0,0,0,.54-4.6c-.21-1-.25-2-.43-3-.37-2.12-.78-4.23-1.17-6.35Z"/><path class="cls-1" d="M88.88,111.38c-.81,2.33-1.62,4.65-2.42,7a34.42,34.42,0,0,0-2,7.92.55.55,0,0,1,0,.26,8.36,8.36,0,0,0,.07,6.46c.68,2,.62,4.08,1,6.11A6.13,6.13,0,0,0,87,142.57c2.25,2.15,2.72,5,3,7.83a6.56,6.56,0,0,1,0,1.93,9,9,0,0,1-.67-1.4c-.46-1.52-.91-3-1.27-4.59a4.14,4.14,0,0,0-1-2.1,10.55,10.55,0,0,1-2.76-5.63c-.36-1.94-.51-3.92-.76-5.89a5.09,5.09,0,0,0-.19-1.43,7.8,7.8,0,0,1,.2-5.82c1.22-3.55,2.54-7.06,3.83-10.58.44-1.19.91-2.38,1.37-3.57Z"/><path class="cls-1" d="M86.74,133.05a5.36,5.36,0,0,0-.21-.9,11.83,11.83,0,0,1-.52-7.37,31.76,31.76,0,0,1,3.53-9.36,26.54,26.54,0,0,0,1.38-3.29c.63-1.5,1.25-3,1.9-4.5.56-1.3,1.2-2.56,1.75-3.86A46,46,0,0,1,99,96.1a6.11,6.11,0,0,1,3.52-2.67c0,.11,0,.2,0,.22a9.2,9.2,0,0,0-3.84,4.06c-1.63,2.84-2.93,5.83-4.37,8.75-2.14,4.33-3.43,9-5.55,13.31a35.08,35.08,0,0,0-1.64,5,19.34,19.34,0,0,1-.77,2.52,4.7,4.7,0,0,0,0,3.48c.22.74.38,1.51.57,2.26Z"/><path class="cls-1" d="M94.91,110.77c1.14-2.52,2.39-5,3.4-7.58a25.91,25.91,0,0,1,3.14-5.64,10.5,10.5,0,0,1,4.72-3.25L102.3,98l.17.23c.23-.13.47-.25.7-.39A41.84,41.84,0,0,1,107,95.7a12.8,12.8,0,0,1,3.31-.86,34,34,0,0,0,9.57-2.39,1.58,1.58,0,0,1,.41,0,14.8,14.8,0,0,1-4.77,2.26c-2,.47-3.94,1-5.94,1.24-2.31.32-4.19,1.56-6.19,2.57a8.67,8.67,0,0,0-3.31,2.94,6.13,6.13,0,0,0-1,2.94,2.71,2.71,0,0,1-.23,1c-.88,1.53-1.78,3.05-2.72,4.54a7.91,7.91,0,0,1-1,1.06Z"/><path class="cls-1" d="M116.4,98.73c.64-.28,1.27-.6,1.92-.85a9.2,9.2,0,0,0,3.05-1.82,3.42,3.42,0,0,1,3.93-.69,25.63,25.63,0,0,0,5.18,1.94,20.41,20.41,0,0,0,8,.43,10.81,10.81,0,0,1,2,0l-3.23.88a18.33,18.33,0,0,1-10.07,0,11.1,11.1,0,0,1-2.48-1.25,2.61,2.61,0,0,0-3.18,0c-1.52,1.08-3.39,1.14-5.11,1.64Z"/><path class="cls-1" d="M158,110.59c-.7-1.52-1.43-3-2.09-4.56a10.64,10.64,0,0,0-4.08-4.92c-2.34-1.5-4.78-2.83-7.17-4.24-1.18-.7-2.38-1.35-3.52-2.11a4.19,4.19,0,0,0-4.72.08,2.16,2.16,0,0,1-1.67.33c1-.46,2.1-.93,3.15-1.43a3.4,3.4,0,0,1,2.94,0c2.14.94,4.33,1.77,6.41,2.81a21.76,21.76,0,0,1,7.58,6.29,10.65,10.65,0,0,1,1.45,2.51c.7,1.7,1.27,3.45,1.9,5.18Z"/><path class="cls-1" d="M93.33,146.83a16.58,16.58,0,0,0-2.13-6.42,25.91,25.91,0,0,1-2.73-5.87A14.08,14.08,0,0,1,89,123.72c1.28-2.66,2.32-5.44,3.5-8.15a13.51,13.51,0,0,1,1.71-3c-.32.67-.68,1.33-1,2-1.46,3.79-2.92,7.57-4.31,11.39-.71,2-.39,4-.19,6a6.71,6.71,0,0,0,1.49,3.88,3.81,3.81,0,0,1,.81,2.33,3.32,3.32,0,0,0,.45,1.63A9.76,9.76,0,0,1,93.33,146.83Z"/><path class="cls-1" d="M158.38,94.39a11,11,0,0,1-5.84-1.56,8.61,8.61,0,0,1-1.37-1c-2.68-2.73-6.06-4.39-9.34-6.19A11.05,11.05,0,0,0,140,85a2,2,0,0,1,2.05-.18,13.34,13.34,0,0,1,4.1,1.78c1.25.9,2.83,1.45,3.85,2.54A20.08,20.08,0,0,0,157.66,94C157.82,94.07,158,94.17,158.38,94.39Z"/><path class="cls-1" d="M97.7,111.68c.42-1.11.77-2.24,1.27-3.31s1.09-1.9,1.63-2.85a6.22,6.22,0,0,0,.83-1.62,7.5,7.5,0,0,1,2.26-3.81,3.17,3.17,0,0,1,3.27-.92,5.93,5.93,0,0,0,1.58.13c2,0,4,0,6.06.08a18.21,18.21,0,0,1-4.51.71c-1.19.08-2.38.13-3.57.17a2.46,2.46,0,0,0-1.76.77,7.23,7.23,0,0,0-1.84,2.87,3.48,3.48,0,0,1-1.44,2A6.88,6.88,0,0,0,98.73,110c-.21.64-.28,1.39-1.06,1.68Z"/><path class="cls-1" d="M93,99.5a16.83,16.83,0,0,1,1.1-2.35,83,83,0,0,1,5-7.13c2.43-2.9,7.67-5.35,12.11-3.82h-2.29a11,11,0,0,0-9,4.52c-1.93,2.41-3.8,4.86-5.69,7.3-.39.5-.72,1-1.08,1.57Z"/><path class="cls-1" d="M120,167.59a6.12,6.12,0,0,1-3.42-1.14,16.62,16.62,0,0,1-2.21-1.88,2.13,2.13,0,0,0-2.13-.72,9.15,9.15,0,0,0-1.16.23,3.62,3.62,0,0,1-4.15-1.21,4.63,4.63,0,0,1-1-1.6c.3.3.61.59.91.9a3.17,3.17,0,0,0,3.72.83,10.17,10.17,0,0,1,2.56-.55,1.63,1.63,0,0,1,1.77.9,7.33,7.33,0,0,0,4.65,4A3.88,3.88,0,0,1,120,167.59Z"/><path class="cls-1" d="M152.31,159.45c-.45.33-.91.65-1.35,1-.79.63-1.59,1.26-2.34,1.94-1,.91-2,1.91-3,2.81a5.38,5.38,0,0,1-4,1.55,9.88,9.88,0,0,1-1.44,0,12.83,12.83,0,0,1,1.47-.52,6.68,6.68,0,0,0,3-1.58c1.37-1.18,2.69-2.43,4-3.63A5,5,0,0,1,152.31,159.45Z"/><path class="cls-1" d="M126.74,93.93c2.25.34,4.19-.55,6.16-1.45a11.19,11.19,0,0,1,7-1.14,3,3,0,0,1,.94.38c-2.49-.28-4.71.63-6.86,1.57a16.83,16.83,0,0,1-4.6.95,18.5,18.5,0,0,1-2.58,0Z"/><path class="cls-1" d="M124.66,93.25l-3.62.82A5,5,0,0,1,124.66,93.25Z"/><path class="cls-1" d="M100.42,157.84l1.75,2.13-.25.2L100.23,158Z"/><path class="cls-1" d="M83,114.42l1-2.07.21.09-.94,2.09Z"/><path class="cls-1" d="M98,155l1.82,2-.19.17A5,5,0,0,1,98,155Z"/><path class="cls-1" d="M76.88,112.48l.19-2.6h.12c-.1.86-.21,1.72-.31,2.58Z"/><path class="cls-1" d="M72.13,114v1.42h0V114Z"/><path class="cls-1" d="M97.67,111.65,97,113l-.23-.15.91-1.2Z"/><path class="cls-1" d="M156.36,90.5l.72.65-.21.15-.48-.82Z"/><path class="cls-1" d="M165,119.1,165,118H165v1.16Z"/><path class="cls-1" d="M98,155l-.74-.63A.67.67,0,0,1,98,155Z"/><path class="cls-1" d="M169.82,94c.41.91.79,1.84,1.22,2.73s.85,1.45,1.19,2.21a2.94,2.94,0,0,1,.31,1.39,7.3,7.3,0,0,0,.43,3.37,2.85,2.85,0,0,1,0,.77,3.28,3.28,0,0,1-1.39-3.12c.36-1.71-.33-3-1-4.49-.41-.89-1.08-1.76-.78-2.86Z"/><path class="cls-1" d="M173.62,106.63l-.55-1.38.28-.12.51,1.35Z"/><path class="cls-1" d="M173.72,93.81l-.3-.5.12-.07.3.47Z"/></svg>