<svg id="Ebene_2" data-name="Ebene 2" xmlns="http://www.w3.org/2000/svg" viewBox="0 0 252 243.56"><defs><style>.cls-1{fill:#fff;}</style></defs><path class="cls-1" d="M192.12,28c1.72-.31,3.3-.62,4.89-.86a2.19,2.19,0,0,1,1.87.73c2,1.81,4.12,3.49,6.16,5.25a1.14,1.14,0,0,0,1.15.18,31.36,31.36,0,0,1,3.78-.79,20.12,20.12,0,0,1,3.46.14,1.5,1.5,0,0,1,1.35,1.13A32.76,32.76,0,0,1,217,43c0,.42-.08.83-.11,1.24a2.22,2.22,0,0,0,2.2,2.69c1.81.23,3.62.46,5.43.75A7.63,7.63,0,0,1,228,49.37a2,2,0,0,1,.76,1.2,14,14,0,0,1,0,2.74,3.35,3.35,0,0,1-1,2.1c-.26.27-.46.59-.72.87-1.08,1.18-1.36,2.33-.25,3.75a13.1,13.1,0,0,1,1.26,2.7,1,1,0,0,1-.23,1.14c-.72.79-1.41,1.61-2.17,2.47,1,.19,2.09.42,3.16.58a3,3,0,0,1,2.52,2c3,7.26,6,14.52,7.83,22.22a58.31,58.31,0,0,1,1.41,9.11,12.45,12.45,0,0,0,1.14,4.44c.12.26.22.53.35.79.87,1.8.3,2.93-1.29,4.18a13.67,13.67,0,0,1-1.22.8,3.44,3.44,0,0,0,.53.32c1.95.68,2.6,2.27,2.66,4.11.15,4.49.37,9,.22,13.48a67.42,67.42,0,0,1-1.9,12.44c-.58,2.67-.9,5.4-1.28,8.12a2.66,2.66,0,0,1-1.08,2c-.62.41-1.26.8-1.9,1.19a11.07,11.07,0,0,0-1.3.73c-1.8,1.4-3.74,1.36-5.79.69a4.31,4.31,0,0,0-1.68-.31,2.57,2.57,0,0,0-2.41,2.33c-.12.52-.16,1.07-.33,1.58a2.19,2.19,0,0,1-1.57,1.63c-.73.18-1.2.56-1.14,1.38s-.54.79-1.25.9a24.79,24.79,0,0,0,1.73,2.29,1.92,1.92,0,0,1,.35,2.49c-.35.61-.76,1.18-1.15,1.78-.51.79-1.05,1.58-1.53,2.4a1,1,0,0,0,.18,1.25,5.28,5.28,0,0,1,.6.93,6.21,6.21,0,0,0,.92,1.47,5.35,5.35,0,0,1,1.76,2.92c.06.28.47.51.75.72s.54.23.78.38a2,2,0,0,1,1.06,2.82,29.4,29.4,0,0,1-5.49,9.31c-2.41,2.76-4.87,5.48-7.34,8.18-2.72,3-5.44,6-8.23,8.89a30.15,30.15,0,0,1-3,2.56,2.19,2.19,0,0,1-2.75.41,17.16,17.16,0,0,1-.61,2.21,6.69,6.69,0,0,1-2,2.47c-5.07,4.2-10.85,7.28-16.55,10.47-3.7,2.08-7.4,4.18-11.19,6.08-2.63,1.32-5.42,2.33-8.15,3.45a10.64,10.64,0,0,1-1.56.44,2.64,2.64,0,0,1-2.89-1,13.65,13.65,0,0,0-1.63-1.5c-.2.57-.37.94-.47,1.32a3.13,3.13,0,0,1-2.12,2.24,28.72,28.72,0,0,1-7.29,1.64c-3.63.44-7.28.79-10.92,1.08-3.15.25-6.32.37-9.47.53-2.91.14-5.82.34-8.73.37a25.26,25.26,0,0,1-4.58-.49c-2-.38-2.78-1.2-3.33-3.39-.61.53-1.17,1.07-1.78,1.54a4.44,4.44,0,0,1-4.33.82c-4.34-1.44-8.66-3-13-4.24a86.46,86.46,0,0,1-12.51-5c-2.56-1.2-5.18-2.27-7.75-3.44a10.37,10.37,0,0,1-2-1.19,14.09,14.09,0,0,1-1.48-1.55,5.22,5.22,0,0,1-2.5-.51,45.26,45.26,0,0,1-11.53-7.59l-.09-.09c-.68-.54-1.3-1.36-2.06-1.55a8.12,8.12,0,0,0-2.82.27c-1.65.21-3.29.43-4.93.67-.94.14-1.88.31-2.8.5-1.83.39-3.65.84-5.48,1.2-1,.19-1.56-.31-1.89-1.32-.26-.77-.66-1.5-1-2.24a3.71,3.71,0,0,1,.95-4.49l.76-.72a1.79,1.79,0,0,0-2.24.28,3.17,3.17,0,0,1-3.13.69,1.12,1.12,0,0,0-.72.06c-1.79.82-2.92-.32-4-1.38-.69-.66-1.24-1.45-1.86-2.17a4.81,4.81,0,0,1-1.29-2.52,39.31,39.31,0,0,1-.49-4.58c-.06-2.62,0-5.25.07-7.87a22.77,22.77,0,0,1,1.93-8.72,1.27,1.27,0,0,0,.07-1.38A84.45,84.45,0,0,1,15.1,167.7c-1.29-3.11-2.65-6.2-3.89-9.33a25.4,25.4,0,0,1-.91-3.48,14.26,14.26,0,0,1-.31-1.71,10.7,10.7,0,0,1-.05-1.6c0-.67.74-.55,1.11-.85a3.27,3.27,0,0,0,.36-.44c-.55-.32-1-.64-1.55-.9a2.35,2.35,0,0,1-1.3-1.58c-.88-3.33-1.8-6.66-2.62-10a41.6,41.6,0,0,1-1.33-9.49A4.12,4.12,0,0,1,4.74,127a10.9,10.9,0,0,0,.39-3.45c.12-3.49.3-7,.43-10.47.05-1.16,0-2.34.06-3.49.16-2.14.89-2.55,2.83-1.68l.5.23.12-.19-2.71-2.19c.26-1.73.4-3.4.81-5a4.88,4.88,0,0,0-.88-3.87c-.93-1.58-2-3.1-2.74-4.75C3,90.91,2.84,89.53,2.37,88.3A13.77,13.77,0,0,1,2.13,80,4.42,4.42,0,0,1,5.5,76.32a4.8,4.8,0,0,0,3.13-2.21,2.75,2.75,0,0,1,3.31-1.39,5.83,5.83,0,0,0,3.37-.31A18.06,18.06,0,0,1,16.47,70a1.74,1.74,0,0,1,1.17-.51c.81-.11,1.65-.1,2.49-.14L19.79,66a3.47,3.47,0,0,1,.53-2,146.91,146.91,0,0,1,9.67-15,76.68,76.68,0,0,1,6.76-8c2.48-2.64,5.17-5.07,7.78-7.58A16.66,16.66,0,0,1,46,32.2c1-.72,1.93-1.33,3.2-.79.14.06.33,0,.58,0,.46-3.48,2.74-5.71,5.47-7.49,2.43-1.59,5-3,7.56-4.38A180.26,180.26,0,0,1,83.2,9.82c1.78-.7,3.61-1.28,5.42-1.89A3.33,3.33,0,0,1,92.74,9a2.67,2.67,0,0,0,.44.39c.11-.07.21-.1.25-.16,1.42-2.41,3.81-3.28,6.33-3.8,3.94-.83,7.91-1.55,11.88-2.2,2.09-.35,4.21-.48,6.32-.64,1.62-.12,3.24-.19,4.86-.17,3.63,0,7.25.09,10.87.26,3.11.15,6.21.47,9.31.73a5.16,5.16,0,0,1,1.33.32,2.23,2.23,0,0,1,1.72,2.55c0,.31,0,.61,0,1.24a8.46,8.46,0,0,0,1.19-1.12,1.81,1.81,0,0,1,1.7-.77,15.47,15.47,0,0,1,4.07.47,64,64,0,0,1,9.88,3c1.14.51,2.3,1,3.44,1.48,2.93,1.27,5.88,2.52,8.79,3.85,1.78.81,3.48,1.79,5.24,2.64,1.34.65,2.73,1.22,4.1,1.82l5.37,2.36a6,6,0,0,1,.66.35c2.26,1.51,2.62,2.39,2,4.91C192.42,27.05,192.25,27.56,192.12,28ZM13.79,104.19l0,0c-.12,0-.34.09-.35.06-.21-.5-.37-1-.58-1.51-.74-1.77-1.43-3.56-2.26-5.28C9.89,96,9,94.74,8.27,93.41c-.15-.25-.34-.47-.5-.72A7.62,7.62,0,0,1,6.25,88.8a31.19,31.19,0,0,0-.47-4.32A13.42,13.42,0,0,1,5.71,80a6.83,6.83,0,0,0,0-.92A1.75,1.75,0,0,0,5,80.7c-.08,1.51-.12,3-.18,4.54a22.44,22.44,0,0,1-.45-2.94,15.7,15.7,0,0,0-.17-3,1.62,1.62,0,0,0-.31.24.94.94,0,0,0-.19.32c-.63,2-1.16,4.06-.42,6.21,1,3,2,6.08,3,9.11a4.84,4.84,0,0,0,1.4,2.14,12.58,12.58,0,0,1,4,7.3,8.87,8.87,0,0,0,1.12,3.15,4.47,4.47,0,0,0,.72.68l-.25-1.22c2.18,3.45,4.4,6.54,7.67,8.66a.71.71,0,0,0-.19-.44c-1.14-1.37-2.39-2.68-3.41-4.14a30.9,30.9,0,0,1-2.19-4c-.19-.38-.51-.89.07-1.44.24.41.47.75.64,1.11A28.36,28.36,0,0,0,27.7,119.52a3.54,3.54,0,0,0,.79.16c-.5-.4-.77-.6-1-.82A28.06,28.06,0,0,1,24.23,116c-.88-1-2.39-1.69-2.44-3.36-2.82-3.77-4.35-8.22-6.5-12.35a1.89,1.89,0,0,1,0-.46c1,1.73,1.87,3.25,2.71,4.81,1.05,1.93,2,3.92,3.09,5.84a14.13,14.13,0,0,0,1.72,2.29c2.2,2.56,5.18,4,8.1,5.52a41.45,41.45,0,0,1,4.77,2.7,22.09,22.09,0,0,0,6,2.62,2,2,0,0,0,1.93-.5c-3.84-.54-5.82-1.3-7.29-2.75,0,0,.08-.06.1,0a3.61,3.61,0,0,1,.44.22,11.8,11.8,0,0,0,7.79,1.61,9.16,9.16,0,0,1,4.77.55c2.09.82,4.11,1.8,6.12,2.8a8.28,8.28,0,0,1,1.71,1.44c1,.91,1.89,1.87,2.87,2.77a8.75,8.75,0,0,0,1.21.75l.18-.23-3.59-3.56c1.76.64,4.91,3.76,4.57,4.48l-1.18.32c.71.33,1.18.58,1.68.75,1.09.39,2.22.69,3.3,1.12a12.6,12.6,0,0,0,4.27.83,8.58,8.58,0,0,1,4.31,1.53h-5c2,.82,4.15.24,6.15.94a39.8,39.8,0,0,1-7.09-.47,63.94,63.94,0,0,1-7-2.23c.13.63.06,1.28.34,1.51a6.29,6.29,0,0,0,2.16,1.16c1.4.4,2.84.64,4.27.9,1.71.3,3.43.56,5.14.83a38.42,38.42,0,0,1-4.92-.08c-1.37-.12-2.71-.49-4.08-.55a6.08,6.08,0,0,1-3.38-1.45,1.16,1.16,0,0,1-.5-1.42,1.28,1.28,0,0,0-.33-1.38,5.2,5.2,0,0,0-1.11-1c-1.56-1.05-3.14-2.05-4.69-3.1a4.6,4.6,0,0,1-1.13-1,6,6,0,0,0-3-2.11c-.94-.33-1.87-.7-2.78-1.08a4.78,4.78,0,0,0-3.41-.21,6.88,6.88,0,0,1-6.11-.62c-.3-.2-.62-.48-1.1-.08.1.39.25.81.32,1.25a4.63,4.63,0,0,1,.21,2,3.57,3.57,0,0,0-.16,1.53c.06.67.22,1.32.31,2,.25,2,.44,4,.74,6s.66,3.7-.57,5.44c.42.24.78.42,1.13.65a2.84,2.84,0,0,1,1.54,2.13,5.26,5.26,0,0,0,.54,1.87c.56,1.39,1.14,2.78,1.72,4.16.3.71.63,1.41,1,2.15l2.18-.9c2.66-1,5.41-1.74,8.27-1.06a57.92,57.92,0,0,1,14.35,4.94c.76.42,1.56.77,2.34,1.15a40.28,40.28,0,0,0,4.05,1.91,9.44,9.44,0,0,1,2.53,1.29,13.42,13.42,0,0,0,4.83,2.28c1.32.34,2.67.62,4,.83s2.5.26,4,.41a4.72,4.72,0,0,1-3.43.6,21.85,21.85,0,0,0-3.27-.39l.5.94,0,0a7.47,7.47,0,0,0-4-.54,10.7,10.7,0,0,0,3.71,1.4,9.11,9.11,0,0,0,3.79.42,11.17,11.17,0,0,0,3.68-1.13c1.09-.62,2.16-1.3,3.24-2l.15.23-1.16.84c-.4.3-.79.62-1.2.89a30.5,30.5,0,0,1-3.36,2.12,3.74,3.74,0,0,1-2.3.29,33.33,33.33,0,0,1-5.81-1.86,39,39,0,0,0-4.25-1.73l-1.09-.37,0-.15,2.77.52.18-.26c-.16-.07-.31-.13-.46-.21a20,20,0,0,0-4.9-2.14,18.68,18.68,0,0,1-3.4-1.16c-2.86-1.32-5.69-2.72-8.53-4.1-.45-.22-.86-.51-1.42-.84a2.64,2.64,0,0,1,.43,0c2.12.94,4.25,1.87,6.37,2.83a44,44,0,0,0,4.64,2.13,35.61,35.61,0,0,1,6.69,2.7,8.09,8.09,0,0,0,3.92.79c-1-.55-1.72-1-2.49-1.39a13,13,0,0,0-3.83-1.46A9.42,9.42,0,0,1,72.5,160a38.16,38.16,0,0,0-9.86-4.62c-2.35-.69-4.77-1.14-7.16-1.66a12.6,12.6,0,0,0-5.33-.07,11.22,11.22,0,0,0-5.86,2.84c-1.43,1.45-2.86,2.9-4.19,4.44A30.23,30.23,0,0,0,37,165c-1.06,1.78-1.88,3.7-2.8,5.56v0c0-.16-.15-.35-.1-.46a57.77,57.77,0,0,1,3.42-6.92,28.78,28.78,0,0,1,7.39-8,1.69,1.69,0,0,0,.27-.32,6.22,6.22,0,0,0-2.1,1.07A19.31,19.31,0,0,0,39.68,159c-.75,1-1.53,1.95-2.31,2.92a22.16,22.16,0,0,0-3.43,5.33c-.46,1.1-1.07,2.13-1.61,3.19l-.24-.11a12.08,12.08,0,0,0,1.43-4.47,2.06,2.06,0,0,0-.71.66c-.59,1-1.14,1.93-1.7,2.9a14.82,14.82,0,0,1-1.25,2.16,23.8,23.8,0,0,0-4.16,8,14.68,14.68,0,0,1-1,2.52c-1.05,1.85-2.19,3.64-3.28,5.46a5.07,5.07,0,0,0-.68,1.19,34.31,34.31,0,0,0-.75,6.47l.25,0,.86-3.69a.4.4,0,0,1,.09.39,20,20,0,0,0-.44,8.64,2.59,2.59,0,0,0,1,1.86,3,3,0,0,0-.21-1.05,5.16,5.16,0,0,1-.1-3.77,33.33,33.33,0,0,0,.9-4.13c.79-4.12,1.58-8.25,3.58-12,1.3-2.46,2.64-4.9,4-7.33a2.32,2.32,0,0,1,.83-.9,14.44,14.44,0,0,1,1.83-.71,4.3,4.3,0,0,1-1.07.82,2.18,2.18,0,0,0-1.31,1.39c-.66,1.52-1.37,3-2.09,4.53-.28.58-.44,1.28-1.3,1.35-.16,0-.33.35-.43.56a33.37,33.37,0,0,0-2.59,7.53c-.48,2.58-1,5.16-1.51,7.71a3.5,3.5,0,0,0,.8,3.11c.53.69.95,1.46,1.45,2.17s1.22,1.61,1.82,2.41a24.47,24.47,0,0,1-1-5c.4,1.1.81,2.32,1.28,3.51a1.65,1.65,0,0,0,1.19,1.18,6.54,6.54,0,0,0,2.75,0,3.06,3.06,0,0,1-2.49-2.38,33.91,33.91,0,0,1-1.63-6.26,7.31,7.31,0,0,0-.18-.78h-.15l-.34,1.76c-.25-.25-.47-.56-.41-.81a14.79,14.79,0,0,1,.87-3.48,8.7,8.7,0,0,0,.71-4.6,4.29,4.29,0,0,1,.14-2.7c.67-1.12,1.45-2.18,2.18-3.27a6.32,6.32,0,0,1-1,2.37c-1.11,1.5-.57,3-.31,4.82l.81-1.42c-.45,1.74-.82,3.27-1.27,4.78a8.74,8.74,0,0,0-.24,4.67c.36,1.48.41,3.05,1.17,4.43.91,1.65,2,2.09,3.82,1.47A3.56,3.56,0,0,0,31,200.23a4.48,4.48,0,0,1-1.11-1.75,7,7,0,0,1,0-3.69,1.86,1.86,0,0,1,.28-.54,10.59,10.59,0,0,1,.08,1.66,20.48,20.48,0,0,0,.34,2.71A1.81,1.81,0,0,0,32,200a3.74,3.74,0,0,0-.1-.58,11.79,11.79,0,0,1-.56-1.9c-.15-1.1-.17-2.23-.26-3.34a4.31,4.31,0,0,1,1.39-3.93c1.76-1.52,2.47-3.83,3.93-5.58a.82.82,0,0,0,.11-.23c.27-.69.55-1.38.8-2.08a5.07,5.07,0,0,0,.32-1.2c.09-.94.16-1.89.16-2.84a4.2,4.2,0,0,1,.93-2.53,7,7,0,0,0,1-1.56,7,7,0,0,1,2.61-3.26c.87-.63,1.71-1.32,2.56-2a5.74,5.74,0,0,1-.51.68c-.8.78-1.61,1.56-2.44,2.32a5.63,5.63,0,0,0-1.44,2.15,12.91,12.91,0,0,1-1.27,2.55,7.47,7.47,0,0,0-1,3.67c0,.08.11.18.24.37A17.13,17.13,0,0,0,42,176.1a10.6,10.6,0,0,1,1.13-1.93,41.31,41.31,0,0,1,3-3.45,17.3,17.3,0,0,1,3.31-2.81c2.08-1.2,4.31-2.13,6.47-3.2a4.15,4.15,0,0,1,3.48-.08A14.29,14.29,0,0,1,64.33,168c1.17,1.12,2.19,2.41,3.41,3.47a52.25,52.25,0,0,0,6.1,5,6.89,6.89,0,0,0,2.6,1.05,7.09,7.09,0,0,1,3.91,1.46,1.17,1.17,0,0,0,1.39.12c-.52-.26-.89-.42-1.23-.63-.66-.4-1.3-.83-1.94-1.25l0,0,2.38.7.13-.24c-.28-.34-.58-.67-.83-1-.06-.08.07-.29.11-.44l.52.63.18-.26-.73-.34a2.41,2.41,0,0,0-.42-.56q-4.84-3.57-9.73-7.11c-.46-.34-1-.65-1.42-1a17.5,17.5,0,0,1,2.6,1.18c2.76,1.87,5.5,3.76,8.16,5.77a15.19,15.19,0,0,1,3.17,2.74,8,8,0,0,0,2.66,1.58A16.86,16.86,0,0,0,89.63,180a9.44,9.44,0,0,0,5.87-.43,10.2,10.2,0,0,1,1.09-.27l.1.27a11.15,11.15,0,0,1-2.41.89,23.33,23.33,0,0,1-4.57.2c-2.74-.21-5.45-.62-8.18-.91-.82-.08-1.65,0-2.47,0a6.14,6.14,0,0,1-1.36-.08c-1.24-.32-2.47-.72-3.71-1a2.73,2.73,0,0,0-1.1-.09,7,7,0,0,0-1.71.35,26.39,26.39,0,0,0-3.43,1.43c-.61.32-1,1-1.58,1.4a3.9,3.9,0,0,0-1.27,1.88l1,.84c1.19,1,2.4,1.92,3.59,2.9a87.42,87.42,0,0,0,9.3,6.94,3.24,3.24,0,0,1,1.45,2.36,10.06,10.06,0,0,1,.09,1.05,4.05,4.05,0,0,0,.63-.23,2.18,2.18,0,0,1,2.33.09,22.07,22.07,0,0,0,3.44,1.43c2.29.75,4.63,1.34,6.91,2.13,4.87,1.67,9.67,3.59,14.71,4.74a2.92,2.92,0,0,1,2.58,2.52c0,.11.13.2.13.21.92-.36,1.82-.65,2.67-1a8.37,8.37,0,0,1,3.75-.78c2.79.1,5.58.17,8.36.26,4.35.14,8.62-.64,12.91-1.09,2.67-.27,5.29-1.11,8-.59.25-.75.84-.85,1.41-1a8.59,8.59,0,0,0,1.33-.32q4.54-1.87,9.09-3.79a52.57,52.57,0,0,0,7.57-3.81q4.5-2.82,9.05-5.56c1.71-1,3.42-2.1,5.66-1.88a4.71,4.71,0,0,1,1.94-3.53,60.11,60.11,0,0,0,4.85-4.86,79,79,0,0,0,8.69-11.72c2.39-4,4.75-7.93,7.16-11.87a6.11,6.11,0,0,1,1.47-1.49,6.42,6.42,0,0,1,1.37-.6c-.25-.35-.45-.61-.63-.89-.46-.73-.51-1,.08-1.68a8.18,8.18,0,0,0,1.82-3.92c.51-2.36.92-4.73,1.33-7.11,1.05-6.14,2.11-12.29,3.08-18.45a16.57,16.57,0,0,0,.13-6.2,5.87,5.87,0,0,1,.13-3.68,3.05,3.05,0,0,1-1.41-2.68,31.14,31.14,0,0,0-.54-6,48.24,48.24,0,0,0-1.11-5.75c-.73-2.51-1.69-5-2.58-7.42-.47-1.33-1-2.66-1.52-4a94.31,94.31,0,0,1-3.69-9.62,4,4,0,0,1-1.43-.62,26.43,26.43,0,0,1-1.86-2.46c-.52-.7-1.05-1.4-1.58-2.09l-5.69-7.44c-1.56-2.05-3.11-4.11-4.68-6.15-.54-.69-.75-.68-1.61-.43-1.11.32-2.26.54-3.37.85s-2.21.47-2.94,1.45l0,0c-.9.77-1.8,1.54-2.71,2.3-1.21,1-1.42,2.45-1.6,3.87a7.4,7.4,0,0,0,.18,1.66h0a5.21,5.21,0,0,1-.3-1.27c0-.65.15-1.31.18-2a3.5,3.5,0,0,1,.82-2A25.4,25.4,0,0,1,179,59.46a5.63,5.63,0,0,1,2.9-1.33,14.94,14.94,0,0,0,6.32-2.51,6.65,6.65,0,0,1,1.44-.71c.65-.24,1.34-.41,2-.63,1-.32,2-.71,3-1,1.72-.47,3.45-.9,5.19-1.31.72-.16,1.45-.21,2.18-.31a4.37,4.37,0,0,1-1.62.7c-1.62.34-3.28.57-4.88,1-2.08.58-4.12,1.31-6.15,2a3.91,3.91,0,0,0-1,.77,2.39,2.39,0,0,0,1.3-.11l6.91-2.14c.43-.13.89-.2,1.34-.3A35.49,35.49,0,0,0,202,52.7,27.55,27.55,0,0,1,208,51.39c1.17-.12,2.32-.4,3.48-.61v-.27a13.23,13.23,0,0,0-1.53-.16c-1.91,0-3.83,0-5.75,0a5.77,5.77,0,0,0-3,.58l0,0,.4-.94c1.83-.12,3.65-.31,5.48-.33a30.3,30.3,0,0,1,5.56.25,27.67,27.67,0,0,0,7,.44,9.39,9.39,0,0,1,3.56.45,11.42,11.42,0,0,0,1.57.24l1.51,2.18.33-.37a5.25,5.25,0,0,0,.12,2.11,3.89,3.89,0,0,0,1.69-2.76,1.7,1.7,0,0,0-1.12-1.85,14.54,14.54,0,0,0-1.54-.5c-5.27-1.22-10.55-2.37-15.91-3.08a15.39,15.39,0,0,0-4.34-.21c-1.22.18-2.48.15-3.71.29a4.13,4.13,0,0,1-2.31,0c-.16-.07-.41,0-.61.08a24.93,24.93,0,0,0-5.11,1.84c0-.43-.3-.46-.61-.37l-4.64,1.35,0,.17,4.82-1.07a5.32,5.32,0,0,1-1,.5c-1.2.33-2.4.65-3.62.91-1.62.35-3.25.71-4.89.93a7.75,7.75,0,0,0-3,.83c-1.29.76-2.53,1.61-3.84,2.33a18.68,18.68,0,0,1-3.16,1.43c-1.17.39-2.42.54-3.62.84a1.55,1.55,0,0,0-.7.49,21.38,21.38,0,0,0-3,3.83,2.85,2.85,0,0,0-.29,2.24c.18.71.27,1.44.4,2.16A14.61,14.61,0,0,1,165.63,63a4.89,4.89,0,0,1-.18-1.58c0-.36.18-.72.22-1.09A6.45,6.45,0,0,1,168,55.93a10.16,10.16,0,0,1,4.08-2c1.8-.49,3.58-1.05,5.37-1.6a9.08,9.08,0,0,0,1-.45c-2.35-2.28-1.89-2.35-1.27-5.3-.39.17-.73.29-1,.46a4.56,4.56,0,0,1-4.74.13,9.32,9.32,0,0,0-1-.43l-10.57-4.78-.33-.18a56.7,56.7,0,0,0-5.3-2.49c-3.25-1.15-6.55-2.18-9.87-3.11A5.49,5.49,0,0,1,140.32,33s-.13,0-.26-.08c-.37,1-1.17,1.05-2.05,1-1.4-.12-2.82-.21-4.22-.38a43,43,0,0,0-7.35-.29c-3.53.18-7,.44-10.58.63a27.42,27.42,0,0,0-8,1.51c-2.21.8-4.56,1.37-6.92,0a4.34,4.34,0,0,1-2.72,2.24c-1.41.5-2.83,1-4.25,1.46C91,40,88.08,40.78,85.29,42a61.35,61.35,0,0,0-12.05,6.78,19.17,19.17,0,0,1-3.09,1.88,13.45,13.45,0,0,1-2.76.62,1.17,1.17,0,0,1-.08,1.53c-1,1.2-1.94,2.4-2.93,3.57-.52.6-1.14,1.1-1.65,1.71-3.07,3.61-6.11,7.26-9.18,10.87a55.38,55.38,0,0,0-6,7.77,6.61,6.61,0,0,1-1.33,1.47c-.73.65-1.51,1.24-2.27,1.86.27.37.49.73.75,1a1.91,1.91,0,0,1,.3,1.78,19.75,19.75,0,0,1-.78,2.36,27.48,27.48,0,0,0-2,5.64,1.48,1.48,0,0,1-.29.68,8.49,8.49,0,0,0-1.58,3.63c-.76,3.11-1.42,6.24-2.08,9.37-.21,1-.27,2-.41,3.22a5.08,5.08,0,0,0,1.79.21,13.44,13.44,0,0,1,5.09-.23,39.52,39.52,0,0,1,4.18.55,12.92,12.92,0,0,1,1.75.6,1.57,1.57,0,0,0,.69.13c2.12-.42,4,.32,6,1,3.23,1.2,6.44,2.46,9.78,3.35l2.05.59a19.94,19.94,0,0,1-6.31-.69c-1.38-.45-2.75-.94-4.13-1.4-1.81-.61-3.63-1.2-5.44-1.8a2.45,2.45,0,0,0-2,.24c.18.16.25.28.35.31.4.11.81.2,1.21.29a18.89,18.89,0,0,1,6.54,2.32,11,11,0,0,0,2.24,1.08,5.94,5.94,0,0,0,1.69.21c1.2,0,2.41-.07,3.59.08a29.54,29.54,0,0,0,6.44.53c1.07-.09,2.16,0,3.25,0a2.27,2.27,0,0,1-1.19.49c-1.32.16-2.64.32-4,.4a22.42,22.42,0,0,1-2.72,0c-1.16-.07-2.31-.21-3.47-.32h0a7.48,7.48,0,0,0-.82,0c-.47.07-1.06,0-1.37.3a1.53,1.53,0,0,1-1.51.32c-1.24-.34-2.45-.8-3.67-1.21a5,5,0,0,1,2.88.6,2,2,0,0,0,1.89.33l-1.1-.61c-1.05-.59-2.1-1.19-3.15-1.77a17,17,0,0,0-2.65-1.35,46.17,46.17,0,0,0-9.53-1.86,2.52,2.52,0,0,0-.86.09,2.94,2.94,0,0,1-1.93-.27,9.18,9.18,0,0,0-2.95-.92,26.23,26.23,0,0,1-4.35-.9c-1.05-.21-2.09-.48-3.14-.72a13.35,13.35,0,0,0,5.38,2.67,6.61,6.61,0,0,1-1.61-.12c-2.93-.6-5.36-2.2-7.75-3.88a4.29,4.29,0,0,1-.78-.81c-.72-.85-1.39-1.76-2.16-2.58a12.77,12.77,0,0,0-2.68-2.45,39.52,39.52,0,0,0,3.48,4.81,16.7,16.7,0,0,0,4.08,4.47c-.72-.23-1.34-.62-2-.87A6.35,6.35,0,0,1,25,105.56a17.3,17.3,0,0,0-2.13-3,9.86,9.86,0,0,1,3.22,3.82,3,3,0,0,0,2,1.68c-.16-.24-.23-.37-.32-.49-2.19-2.83-4.36-5.68-6.57-8.49A13.39,13.39,0,0,1,18,91.67a4.25,4.25,0,0,0-2-3.14c1.48,3.37,2,7,2.6,10.81a10.1,10.1,0,0,1-1.05-3,16.9,16.9,0,0,0-1.32-4.93c-.42-1-.94-1.94-1.31-3a15.13,15.13,0,0,0-2.57-4.94,1.91,1.91,0,0,1-.39-2c.73-1.93.91-4.08,2.51-5.75l-1.29-.33c-2.84,2.71-2.92,6.17-3,9.65a23.31,23.31,0,0,1-.07-5.6,14.56,14.56,0,0,1,2.13-5.07,1.5,1.5,0,0,0-2.2.45,5,5,0,0,0-.79,1.53A12,12,0,0,0,9,83.5c.28.9.48,1.83.75,2.74.57,1.91,1.16,3.82,1.74,5.73.1.34.19.69.29,1a4,4,0,0,1-.63-1.08c-.85-2.24-2.26-4.29-2.3-6.8,0-.11-.1-.23-.15-.34a11.15,11.15,0,0,1-1.07-6.43,4.36,4.36,0,0,0-.11-.83,6.13,6.13,0,0,0-.9,2.88,8.9,8.9,0,0,0,.86,5.82c.56,1,1.2,2,1.69,3.06a11.82,11.82,0,0,1,.78,2.47c.2.88.12,1.84.39,2.69.73,2.34,1.57,4.64,2.4,7a3.19,3.19,0,0,0,.6.75l0,.36ZM204.94,43.45c.21-.06.51-.06.63-.2.56-.66,1.08-1.36,1.61-2.06a12.11,12.11,0,0,1,3.88-3.45c.63-.34,1.23-.55,1.82.56.07-.64.22-1,.12-1.24s-.44-.5-.74-.82c1.66.3,2.07.95,1.58,2.4a5.47,5.47,0,0,1-.6,1.08c-.16.27-.36.53-.59.87l1.08.71a4.93,4.93,0,0,0,.83-4.14c-.29-.91-.45-1.86-.69-2.78a9.48,9.48,0,0,0-.34-.93,3,3,0,0,0-3,.82,8.21,8.21,0,0,1-4,1.87,2.7,2.7,0,0,0-2,1.35c-1,1.77-2,3.53-3,5.29-.17.31-.28.64-.47,1.08,2.09-1,2.43-1.44,3.15-3.46a5.51,5.51,0,0,1,3.25-3.65,7.65,7.65,0,0,0-3.17,4.84,3.62,3.62,0,0,1-1.5,2.08c-.78.56-1.53,1.16-2.27,1.76a9.37,9.37,0,0,0-.79.9,4.3,4.3,0,0,0,1.11,0A5.6,5.6,0,0,0,204.19,44c.75-1.35,1.56-2.66,2.34-4l.2.11c-.59,1.13-1.18,2.26-1.76,3.41l-.55,1.44.25.08C205,44.55,205.32,44.1,204.94,43.45Zm-144,144.8c0,.45,0,.91,0,1.36a16.5,16.5,0,0,1,0,2.11,36.25,36.25,0,0,1-.68,4.15c-.46,2-1,3.92-1.61,5.87-.24.87-.55,1.71-.83,2.56l.24.1c.69-1.44,1.84-2.65,1.86-4.42a3.44,3.44,0,0,1,.24-1.58c1.25-2.33,1.24-5,1.93-7.45a1.54,1.54,0,0,0-.49-1.57,6.09,6.09,0,0,1-.69-1.13,6.65,6.65,0,0,1,.28-1.19c.64-1.49,1.35-2.94,2-4.43a4.45,4.45,0,0,1,1.47-2c.24-.18.44-.41.74-.69-2-.33-3,.85-4,2a3,3,0,0,0-.65,1.7,12.11,12.11,0,0,1-1.12,4,12.26,12.26,0,0,0-1,3.55,31.07,31.07,0,0,0,.15,4,7,7,0,0,1-1.89,5c-1.64,1.81-3.42,3.5-5.13,5.25a4.32,4.32,0,0,0-.46.71c-.66-.61-.75-.77-.2-1.54,1-1.36,2-2.65,3.06-3.94a3,3,0,0,1,.91-.57l.35.82A8.18,8.18,0,0,0,58,192.77c-.37-1.69.19-3.3.23-5,0-.19.17-.37.23-.57l.9-3.1a4.59,4.59,0,0,1,.42-1.14A8.38,8.38,0,0,1,61,181.44c1.1-1,2.09-2.24,3.84-2.29a5.06,5.06,0,0,0,1.72-.68c.71-.31,1.42-.65,2.15-.94s1.45-.53,2.24-.82a1.6,1.6,0,0,0-1.93-.45,11,11,0,0,1-4.21,1,2.08,2.08,0,0,0-.94.3c-1,.52-2,1.07-3,1.64a6.81,6.81,0,0,1,4.64-2.56,6.5,6.5,0,0,0,3.29-1.7c-.63-.13-1.07-.37-1.38-.25-1.71.63-3.4,1.32-5.07,2.05a16.63,16.63,0,0,0-2.06,1.15,13.08,13.08,0,0,0-1.75,1.18c-.91.77-1.77,1.62-2.48,2.29-.39,1.35-.69,2.55-1.1,3.72a5.19,5.19,0,0,0,0,3.54c.77,2.16.24,4.18-.6,6.16a6.49,6.49,0,0,1-1,1.28,7.25,7.25,0,0,0-1,1.27,25.37,25.37,0,0,0-.93,2.43c-.32.9-.62,1.8-.93,2.7l0,0c-.57.64-1.18,1.25-1.7,1.94a4.86,4.86,0,0,1-3.15,2.05l-4.64.7-1.65.27c1,1,2.07.6,3.08.62A11.38,11.38,0,0,0,49,206.37c.49-.31,1-.55,1.6,0,.08.08.45-.12.69-.19a8.17,8.17,0,0,0,1.26-.71c.88-.71,1.71-1.49,2.57-2.24-1.44,1.57-2.49,3.57-4.68,4.36l-.83-.6a24.24,24.24,0,0,1-3.08,1.15c-2.5.57-5,1.15-7.58.3a1.2,1.2,0,0,0-.5,0c-1.56.2-3.12.39-4.68.62-.45.07-.55.43-.38,1a14.37,14.37,0,0,0,1.64.12c1.66-.07,3.32-.19,5-.28l0,0c-.09.09-.16.23-.26.26-1.62.36-3.25.68-4.86,1.06a3.2,3.2,0,0,1-3.14-.65s-.12.07-.09.05l1.19,2.73c.94-.22,2-.53,3-.71a25.66,25.66,0,0,0,4.89-1.82,5.68,5.68,0,0,1,3.65-.4,11.33,11.33,0,0,0,3.43.32c.06,0,.13.07.2.11l-.47.27a2.52,2.52,0,0,0,1.59,0,6,6,0,0,0,2.8-2.54,19.48,19.48,0,0,1,3.85-4.86,7.7,7.7,0,0,0,1.92-2.25c1-2.19,2-4.39,2-6.88a2.91,2.91,0,0,1,.17-1,9.45,9.45,0,0,0,.49-4.05A1.09,1.09,0,0,1,60.9,188.25Zm9.51,4.86c-.24.38-1.14.48-.46,1.27a6.75,6.75,0,0,0,3-1c-.28-.62-.74-.51-1.19-.44l-1.33.18,1.65-.66-6.13-5c-.31,1.65-.59,3.14-.86,4.64a1.85,1.85,0,0,0,0,.62,12.78,12.78,0,0,1-.81,5.84,31,31,0,0,1-2.36,6.27,5.47,5.47,0,0,1-1.3,1.73c-2.06,1.71-4.49,3-6.12,5.2a1.76,1.76,0,0,1-.74.44c-.33.15-.67.26-1,.39,0,.14,0,.24.06.29a3,3,0,0,0,.38.33A51.89,51.89,0,0,0,64,220.06a2.69,2.69,0,0,0,3.3-1.21c1.22-2.64,2.31-5.35,3.7-7.9,2-3.57,4.17-7,6.24-10.51a3.46,3.46,0,0,0,.51-1.37c.08-.82,0-1.65,0-2.54L76,195.45l-.26.79c-.17-1.38-1.14-1.87-2.3-2.44a4.55,4.55,0,0,0-.31,1.12c0,.75.16,1.49.17,2.23a2.4,2.4,0,0,1-.26,1.28c-.73,1.16-1.55,2.27-2.34,3.39a3.66,3.66,0,0,1-.44.44c.67-1.34,1.47-2.56,2.24-3.79a1.43,1.43,0,0,0,.3-.79c-.07-1.18-.21-2.36-.33-3.6-.62.16-1.22.35-1.82.48a4,4,0,0,1-2.31.14l0,0,1.25-.45v-1.06Zm-35.84-88c.74.12.65-.49.73-.89a73.44,73.44,0,0,1,3.85-13.78c1-2.38,1.66-4.88,2.48-7.32.11-.34.26-.67.41-1-1.86-.82-3.56-1.81-5.63-1.29l1.52-.72c-1.4-.9-2.67-1.86-4-2.6-3.3-1.76-6.65-3.43-10-5.13a1.83,1.83,0,0,1-.44-.23c-.79-.82-1.71-.73-2.76-.66a2.34,2.34,0,0,0-2.25,1.9c-.74,2.12-1.62,4.19-2.37,6.3-.49,1.36-.86,2.77-1.25,4.08.39.46.7.8,1,1.17A14.12,14.12,0,0,1,19,91.77a12.65,12.65,0,0,0,4.74,8.61c1.76,1.45,3.38,3.07,5.09,4.58a3.53,3.53,0,0,0,1.28.72c1.51.46,3,.85,4.57,1.25.1,0,.22-.05.32-.08a2.06,2.06,0,0,0-.35-1.74ZM101,222.63v0c.2-.34.43-.66.62-1,.74-1.34,2.52-1.43,3.29-2.74,0,0,.18,0,.22,0,.25.21.36.14.57-.11a28,28,0,0,0,3.84-5.67,1.92,1.92,0,0,0,.09-2c-.34-.59-1-1.32-.83-1.83.31-1.26-.59-1.2-1.22-1.41-1.62-.52-3.26-.95-4.87-1.48-2.37-.78-4.72-1.64-7.08-2.44l-9-3c-1.26-.42-2.52-.82-3.76-1.3-1-.37-1.15-.39-1.84.38a4,4,0,0,0-.7,1c-.34.76-.6,1.56-.9,2.34l-.07,0,.7-2.71-.22-.13a18.91,18.91,0,0,0-1.45,1.79c-1.58,2.5-3.17,5-4.65,7.56-.85,1.47-1.5,3.05-2.25,4.58q-1.27,2.58-2.57,5.13c-.24.48-.5,1-.78,1.42-.42.65-.41.89.25,1.29a16.76,16.76,0,0,0,1.89,1q5.13,2.28,10.27,4.54c2.17.94,4.33,1.94,6.55,2.75,3,1.11,6.15,2.06,9.23,3.07,1.13.37,2.27.71,3.45,1.07.13-.5.25-.9.34-1.3a8,8,0,0,1,1.44-3.65,2.27,2.27,0,0,0,.24-2.48,2.14,2.14,0,0,1,0-1.8c.27-.65.58-1.29.87-1.93a8.77,8.77,0,0,0,1.07-2.87C102.63,221,102.29,221.26,101,222.63Zm44.5-13.39a.46.46,0,0,1-.75-.1c-.45-.59-.87-1.19-1.3-1.77-2.52.32-5,.7-7.55.95s-5.21.52-7.83.56c-3.16.05-6.32-.09-9.48-.23a11.91,11.91,0,0,0-5,1,1.21,1.21,0,0,0-.85,1.12,7.7,7.7,0,0,0,.8,4.71,1.58,1.58,0,0,1,.19.93c-.07.8-.22,1.6-.32,2.27-.17-1.18.33-2.71-1.26-3.68a35.3,35.3,0,0,0-.87,5c-.12,1.48-.26,3-.48,4.45-.26,1.72-.72,3.42-.89,5.15a13.14,13.14,0,0,0,.13,3.91,13.86,13.86,0,0,0,1.31,2.94,34.72,34.72,0,0,0,3.8.4c3.71,0,7.41-.1,11.11-.16,3.87-.06,7.73-.06,11.59-.49,2.64-.29,5.3-.44,7.92-.81,1.89-.27,3.73-.8,5.59-1.22.67-.15,1-.65,1.28-1.23.84-1.55.35-3-.19-4.44a.85.85,0,0,0-.94-.65c-.91.12-1.37-.4-1.76-1.11-.6-1.12-1.07-2.36-2.47-2.78-.1,0-.18-.18-.28-.24a16.84,16.84,0,0,1-2.6-2.67,4.34,4.34,0,0,1-1.22-3c0-.67,0-1.33,0-2a2.7,2.7,0,0,1,.17-.58c.12.91,0,1.79.14,2.66a4.43,4.43,0,0,0,.56,2c1,1.34,2,2.81,3.53,3.44a5,5,0,0,1,2.47,2.6c.07.11.13.22.19.33a1.15,1.15,0,0,0,1.2.7c.9-.09,1.35.46,1.65,1.23.13.34.11.8.79,1.16a9.22,9.22,0,0,0-.27-1.21c-.22-.58-.54-1.13-.74-1.72-.62-1.85-1.2-3.71-1.79-5.58-1.3-4.16-3-8.21-3.79-12.52a3,3,0,0,0-.65-1.19,1.24,1.24,0,0,0-.82-.45,12.36,12.36,0,0,0-1.74.22,2.52,2.52,0,0,0,1.37,2.07Zm62.76-49a2.29,2.29,0,0,1-.19-.65c0-.41.09-.82.08-1.22a2.21,2.21,0,0,0-1.32-1.74c-.62-.12-1.24.31-1.66,1.07-.82,1.5-1.61,3-2.5,4.47q-2.71,4.48-5.54,8.9a64.84,64.84,0,0,1-8,10.4c-1.83,1.88-3.74,3.67-5.62,5.5a1.66,1.66,0,0,0-.39,2.43,6.25,6.25,0,0,0,.75.8c.34.41.69.81,1,1.24s.39.74.65,1.05q2.76,3.39,5.56,6.74a5.49,5.49,0,0,0,.67.55c-.24-3.75-.55-5.09-1.56-6.68-.91.44-1.3-.23-1.68-.91l.83.6.65-.55a4.48,4.48,0,0,1,1.38,2.25,19.92,19.92,0,0,1,.88,5.14,2.66,2.66,0,0,0,.33,1.27,31.82,31.82,0,0,0,4.9,5.65,15.31,15.31,0,0,0,2.62,1.89,2,2,0,0,0,2.6-.46c.71-.81,1.46-1.59,2.14-2.43,1.11-1.35,2.11-2.79,3.27-4.09,3-3.32,6-6.56,9-9.89a40.84,40.84,0,0,0,5.5-7.25,17.13,17.13,0,0,0,1.94-4c-.15-.12-.23-.22-.33-.28-1.49-.95-1.69-.9-2.52.67a1.73,1.73,0,0,1-1.5,1.13,3.11,3.11,0,0,0,1.36-1.78,13.82,13.82,0,0,1,1.1-1.64,1.86,1.86,0,0,1-.23-.59,6.24,6.24,0,0,0-1.78-3.59.77.77,0,0,1-.14-.21c-.5-.85-1-1.7-1.46-2.58a1.49,1.49,0,0,1-.15-1.06c.45-1.11-.28-2-.42-3a.62.62,0,0,0-.31-.37c-.55-.27-1.11-.5-1.68-.76-1,1.37-2,2.6-1.63,4.4a4.27,4.27,0,0,1-.36-1.68c0-1.44,1-2.49,1.62-3.74a3,3,0,0,0-2.42-.73l0,0,.34-.47-.67-.73a10.59,10.59,0,0,1,1.18.29c.26.11.47.41.73.45a2.89,2.89,0,0,1,1.78,1.23,2.41,2.41,0,0,0,1.11.72,2,2,0,0,1,1.36,1.32c.19.47.46.91.82,1.61.65-1.2,1.19-2.11,1.63-3.07a1.14,1.14,0,0,0-.14-1c-1-1.3-2.09-2.57-3.15-3.83a2.66,2.66,0,0,0-1.5-.82,30.61,30.61,0,0,1-7.25-2.54,5.72,5.72,0,0,0-1-.32c-.32,1-.59,1.83-.85,2.67,0,.05.09.13.13.19Zm-41.38,41c-.84-.45-1-1.16-.67-2.26-.37.23-.65.29-.68.42-.26,1-.75,1.95-.26,3a4.87,4.87,0,0,1,.45,1c.16.71.39,1.47-.49,1.93l0,0a2,2,0,0,0-.07-2.12,4,4,0,0,1-.52-2.52,2.89,2.89,0,0,0,0-.66l-15.42,6.27c.17.82.34,1.7.54,2.58,1.11,5,3.18,9.81,4.05,14.91.51,3,2,5.64,3.13,8.38a1.56,1.56,0,0,0,.56.64,2.3,2.3,0,0,0,2.55.29c3.67-1.76,7.41-3.38,11-5.23,3.45-1.75,6.78-3.72,10.17-5.58,5-2.75,10.17-5.33,14.69-8.94,1.46-1.17,2.07-2.42,1.57-4.2a2.15,2.15,0,0,0-.5-1,44,44,0,0,1-5.51-5.58c-2.94-3.56-6-7-9-10.56a2.9,2.9,0,0,0-3.92-.9,29.28,29.28,0,0,0-3,1.77c-2.62,1.69-5.21,3.43-7.83,5.13a2.46,2.46,0,0,0-.92,1.12,2.68,2.68,0,0,0,0,2.15ZM113.22,26.57c.65.62.28,1.22-.09,1.77a7.3,7.3,0,0,1-.87.89c-1,1-1.08,1.78-.39,3.18.71-.07,1.45-.18,2.18-.23l6.34-.34,7.57-.41a12.62,12.62,0,0,1,1.74,0,1.31,1.31,0,0,0,1.52-1,13.85,13.85,0,0,0,.84-2.33A1.37,1.37,0,0,1,133.15,27c.83-.25,1.65-.54,2.48-.79a7.71,7.71,0,0,0,1.79-.48,7.06,7.06,0,0,0,1.29-1.37h0a1.48,1.48,0,0,0-.17.33,2,2,0,0,1-1.84,1.71,22.17,22.17,0,0,0-3.3,1.13.94.94,0,0,0-.53.46c-.36,1.14-.67,2.29-1,3.52a5.47,5.47,0,0,0,.7.16c1.65.16,3.3.34,5,.48s1.66.05,2-1.52.5-3,.84-4.53c1-4.63,2.46-9.17,3.15-13.87.21-1.44.53-2.86.67-4.3A2.28,2.28,0,0,0,142,5.41c-1.87-.12-3.75-.15-5.61-.37a74.57,74.57,0,0,0-9.21-.47c-.75,0-1.51,0-2.25,0a47.68,47.68,0,0,0-9.85.16c-3.09.37-6.18.84-9.25,1.4-2.61.47-5.2,1.11-7.78,1.73a4.63,4.63,0,0,0-2.7,1.91A2,2,0,0,0,95,11.5c.3,1.13.48,2.28.82,3.4.61,2,1.28,4,2,6,.84,2.43,2,4.76,2.32,7.36a2.62,2.62,0,0,0,.29.67c.33.67.66,1.33,1,2,.52,1.12,1,2.24,1.55,3.37,2.12.36,5-.7,7.81-1.93a3.92,3.92,0,0,1,1.71-4,4.72,4.72,0,0,0,.48-.41,1.18,1.18,0,0,0,.34-1.45ZM216.56,157.05c.46.4,1.12.71,1.36,1.21.65,1.38,1.87,1.24,3.08,1.53a2.17,2.17,0,0,1,.93-2.17,17.06,17.06,0,0,1,2.18-1.07c.07-.26.17-.71.31-1.14.54-1.59,1.25-3.14,3.05-3.49a4.07,4.07,0,0,0,2.46-1.7,6.63,6.63,0,0,0,1.13-1.58,6.24,6.24,0,0,0,.4-2.07,5.83,5.83,0,0,1,1.19-3.35c.7-.93,1.46-1.82,2.22-2.7a3.1,3.1,0,0,1,.75-.43c-.8,1-1.48,1.88-2.18,2.75a6,6,0,0,0-1.63,4.18,4.56,4.56,0,0,1-1.56,3.92,3.06,3.06,0,0,0-.49.7,5,5,0,0,0,4.43,0c1.05-.49,2-1.15,3-1.7a1.86,1.86,0,0,0,1-1.59c.43-2.92.84-5.85,1.46-8.73a61.79,61.79,0,0,0,1.73-14.83c0-.75-.11-1.49-.16-2.24q-.25-3.74-.5-7.46a2.42,2.42,0,0,0-1.64-2.27c-1.29-.54-2.5-1.27-3.76-1.91a1.6,1.6,0,0,0-.69-.22c-1.42,0-2.84-.1-4.25,0-4.06.33-8.12.74-12.17,1.13a7.85,7.85,0,0,0-4.17,1.56c.53.12,1,.2,1.53.34a19.82,19.82,0,0,0,6.47,1.2c1.39-.06,2.8,0,4.2,0a25,25,0,0,1-10.72-.76,2.25,2.25,0,0,0-2,.33,6.83,6.83,0,0,0,.13.77,13,13,0,0,1,.3,5.57q-.81,5.75-1.82,11.45c-.83,4.63-1.78,9.23-2.66,13.85-.36,1.91-.59,3.82,1.26,5.21.08.06,0,.3,0,.46a3,3,0,0,1-2-2.36l-1.3,3.33c2.73,2.94,6.22,4.44,9.88,6l-.76-1.81ZM170,44.16c1.27.56,2.27,1.06,3.31,1.43a2.08,2.08,0,0,0,1.32-.11,5.89,5.89,0,0,0,3.54-2.95,5.42,5.42,0,0,1,.78-1.13c2.34-2.86,4.63-5.78,7.18-8.47,2.78-2.92,2.92-3.27,3.82-6.68.44-1.65.44-1.68-1-2.74a9.68,9.68,0,0,0-1.46-.92c-1.35-.62-2.73-1.17-4.09-1.77-1.56-.69-3.12-1.38-4.65-2.13-1.72-.84-3.38-1.8-5.1-2.64-2.24-1.09-4.57-2-6.76-3.19a62.79,62.79,0,0,0-9-3.74A10,10,0,0,0,156,8.69a1.76,1.76,0,0,0-1,.06,23,23,0,0,0-4.35,2.49c.66,2.67,1.7,5.25,1.2,8,.16-2.33-.72-4.41-1.57-6.49a7.23,7.23,0,0,0-1-1.42c.95-1.53,3-1.74,4.53-3-1.4-.29-2.61-.56-3.83-.79s-1.58-.15-2.26,1c-.56.93-1,1.94-1.57,2.84a6.19,6.19,0,0,0-.9,2.55c-.35,2.22-.59,4.46-1.13,6.63-.77,3.11-1.74,6.17-2.7,9.22a2,2,0,0,0,.56,2.38,6.42,6.42,0,0,0,2.8,1.55,57.45,57.45,0,0,1,14.06,5c1.37.71,2.71,1.47,4.1,2.14,1.72.83,3.5,1.54,5.2,2.41a2.31,2.31,0,0,0,2.22,0c2.28-1.06,2.27-1,2.93-3.44a1.58,1.58,0,0,0-.32-1.61c-.74-.85-1.43-1.74-2.17-2.58-.35-.39-.53-.75-.18-1.1l3.84,4.35c.24-1,.48-1.86.62-2.74a1.5,1.5,0,0,0-.28-.88c-.19-.32-.54-.55-.7-.87a.94.94,0,0,1,0-.79,18.32,18.32,0,0,1,1.41-1.47l-1.08,2.31.8.7c.69-.51.5-1.57,1.32-2-.48,1.43-1,2.73-1.34,4-.31,1-.47,2.11-.76,3.15a3,3,0,0,1-.66,1.29,9.55,9.55,0,0,1-1.67,1.27C171.54,43.34,170.87,43.67,170,44.16Zm38.58,34.15.18.18c-.37.4-.74.82-1.13,1.21a2.66,2.66,0,0,0-.61,3.09,5.34,5.34,0,0,1,.41,1.18,7.17,7.17,0,0,1,.2,2.81,4.56,4.56,0,0,0,.28,3.1c1.41,4,3.08,8,3.85,12.24a1.17,1.17,0,0,0,1.1,1c.51.08,1,.09,1.57.13v.14l-1.22.09.36.82c-.34-.27-.53-.44-.73-.58s-.41-.22-.79-.42c.22,2.8.43,5.42.65,8.17l1.35-.42c1.58-.48,3.15-1.08,4.76-1.43a37.43,37.43,0,0,1,5.06-.64c1.4-.1,2.81,0,4.21,0s3,.11,4.49.17a1.8,1.8,0,0,0,.74,0,3.93,3.93,0,0,1,2.9,0,3.88,3.88,0,0,0,3.86-1.53c.8-.87.44-2,.24-3,0-.25-.13-.48-.19-.73-.4-1.78-.84-3.56-1.21-5.35a103.84,103.84,0,0,0-4.23-15.88c-.36-.93-.66-1.88-1-2.82-1.23-3.31-2.48-6.61-3.71-9.93a1.72,1.72,0,0,0-1.68-1.21c-1.45-.11-2.89-.36-4.34-.41a4.92,4.92,0,0,0-2,.45c-.95.42-1.84,1-2.74,1.49-4.14,2.33-8.35,4.49-12.68,6.44-1.09.49-2.11,1.14-3.13,1.69a35.08,35.08,0,0,0,3.55,8.24,10.1,10.1,0,0,0,0-1.67,18.06,18.06,0,0,0-.55-2,2.77,2.77,0,0,1,.45-2.72C207.32,79.5,208,78.92,208.57,78.31ZM54.26,65.16c.27-.39.43-.68.64-.93q1.68-2,3.37-4c1.32-1.55,2.65-3.1,4-4.66a2.59,2.59,0,0,0,.3-2.78l1.33,1.36c.62-.68,1.24-1.34,1.82-2s.58-.87-.1-1.54c-1.42-1.41-2.89-2.77-4.23-4.25-3.53-3.88-7-7.82-10.5-11.72a2.22,2.22,0,0,0-2.58-.74,29.39,29.39,0,0,0-3.19,1.78c-.07,0-.11.13-.16.19-2.19,2.17-4.33,4.38-6.57,6.49a44.2,44.2,0,0,0-6.47,7.4c-2,2.93-3.88,5.92-5.75,8.91-1.32,2.12-2.57,4.28-3.8,6.45a2.8,2.8,0,0,0-.19,1.42,3.71,3.71,0,0,0,2.47,3.17c2,.93,4,1.88,6,2.66,3.89,1.48,7.87,2.71,11.5,4.81a2.28,2.28,0,0,0,.45.2,2.07,2.07,0,0,0,2.1-.28A7.39,7.39,0,0,0,46.63,75a40,40,0,0,1,4.16-5.76c1-1.13,1.87-2.32,2.88-3.57-.77-.64-.86-1.73-1.92-2.23-1.11,1.27-.21,2.84-.62,4.18A3.66,3.66,0,0,1,48.59,67a1.42,1.42,0,0,0-1.8,0,4.94,4.94,0,0,1-1.23.41,7.29,7.29,0,0,1,1.25-1,1.41,1.41,0,0,1,1.73-.06,2.54,2.54,0,0,0,2,.47c0-1,.06-2,.14-2.9a1,1,0,0,1,.86-1.06,1.26,1.26,0,0,1,1.41.53C53.29,64,53.69,64.43,54.26,65.16ZM91.48,16.57c-.2-.92-.18-1,.64-2.57a8.17,8.17,0,0,0,.57-1.24c.34-1-1.21-3.23-2.22-3.23a3.32,3.32,0,0,0-1,.18,10.37,10.37,0,0,0-1.18.42c-2.13.9-4.3,1.73-6.4,2.72C75.27,16,68.54,19,62.09,22.57,59.62,24,57,25.17,55,27.12a15.09,15.09,0,0,0-2.08,2.61,2.08,2.08,0,0,0-.31,1.3,5.35,5.35,0,0,0,1.3,3.17q3.77,4.17,7.43,8.42c1.57,1.83,3,3.76,4.57,5.6a3.07,3.07,0,0,0,4.13.63c.53-.32,1.07-.63,1.59-1,.93-.65,1-.79.46-1.93-.42-.16-1,.54-1.37-.24.55-.13,1.12-.44,1.56-.31s.62.73.92,1.14c.76-.51,1.5-1.05,2.28-1.52,4.27-2.61,8.61-5.07,13.48-6.4a4.9,4.9,0,0,0,.89-.51c-.8-.28-1.39-.46-2-.69-1-.43-1.19-.41-1.94.4-.33.35-.67.68-1.1,1.13a1.82,1.82,0,0,0-1.56-1.21,8.14,8.14,0,0,1-2.09-.78c-1-.5-1.06-.94-.2-2l-.16,1.25,4.4,1.6,1-1.13c.1-1-.52-1.78-.07-2.69-.08,1.87,1.13,2.59,2.61,3,.67.19,1.34.29,1.64,1.11l.25-.15-.25-2.9c2.12-.3,2.16-.35,2.27-2.36a2,2,0,0,0,0-.25c0-.79.09-1.58-1.08-1.91l1.54-1.89c-.51-1-.59-1-1.41-.65-1.18.52-2.35,1.05-3.51,1.6-.52.25-1.12.46-1.5,0A2.36,2.36,0,0,1,86,28c.47-2.07.92-4.18,2.69-6a3.16,3.16,0,0,1-.26.78,9.08,9.08,0,0,0-1.69,4.75A6,6,0,0,0,87,29.08l5.78-2.5a1,1,0,0,0-.95-1.06,2,2,0,0,1-1.73-2.21,4.91,4.91,0,0,0-.17-1,1.78,1.78,0,0,1,.34-1.52c.8-1.11,1.55-2.26,2.35-3.37a4.56,4.56,0,0,0,.54-4.23C92.24,14.46,91.18,15.64,91.48,16.57ZM10.55,108.62C9,109.26,9,109.26,9,110.75c0,2.59,0,5.17-.13,7.75a116.48,116.48,0,0,0,.05,14.23c.17,2,.3,4.07.58,6.08.2,1.48.6,2.93.93,4.39.21,1,.44,2,.67,2.92,1,.37,1.94.71,2.88,1.13a4,4,0,0,0,3-.07A36.64,36.64,0,0,1,20.68,146a90,90,0,0,0,9.15-2.44c1.34-.45,2.73-.73,4.09-1.13a7.94,7.94,0,0,0,1.16-.52v-.31c-1.52-.47-2.8-1.6-4.53-1.5-.82.05-1.64.1-2.46.19a2.48,2.48,0,0,1-2.24-.47,6,6,0,0,0,3.85-.41c.37-1-.41-1.56-.84-2.3.92.33,1.16,1.15,1.51,1.81l1.57-.34-.69.86,4.5,1.67a1.38,1.38,0,0,0,.63-1.61,15.84,15.84,0,0,1-.35-2.46c-.34-3.1-.67-6.2-1-9.3-.09-1-.1-1-1.08-1.34a37.8,37.8,0,0,1-4.7-1.63,49.86,49.86,0,0,1-9.18-5.53,34.51,34.51,0,0,1-8.9-9.68C11,109.27,10.79,109,10.55,108.62Zm31.3,46.21c-.48-1.34-.94-2.67-1.42-4A3.51,3.51,0,0,0,40,150a12.65,12.65,0,0,1-2-3.73,1.62,1.62,0,0,0-1.9-1.22,19.6,19.6,0,0,0-3.54.62c-3.77,1.18-7.62,2-11.47,2.93a75.58,75.58,0,0,0-8,2.8c-.06,0-.11.12-.17.19-.17,4.26,1.35,8,3.39,11.75,2-.47,4-.92,6-1.39a3.49,3.49,0,0,1,2.91.18,6,6,0,0,0-3.53.36c-.64.18-1.3.3-1.94.46l-3.21.83c1.2,3.38,5.07,10.82,6.29,12.14,1.36-1.87,2.63-3.82,4.11-5.58s3.24-3.43,4.94-5.21l-1.35-1.41.11-.11,1.41,1.31a6.14,6.14,0,0,0,2-1.92,9.91,9.91,0,0,1,1.34-1.8C37.53,159,39.68,157,41.85,154.83Zm184.32-92.4c-2.31-3-4.6-6-6.86-9a1.44,1.44,0,0,0-1.18-.55,7.15,7.15,0,0,0-3.17.54,15.43,15.43,0,0,1-5.87,1c-1.49,0-3,0-4.49.16a10.53,10.53,0,0,0-2.29.44c-1.36.41-2.69.89-4,1.36-2.11.76-4.21,1.55-6.33,2.3-.72.25-1.48.43-2.35.68,2.62,2.52,4.23,5.68,7,8.32V64.93h.25a10.06,10.06,0,0,1,0,2,3.11,3.11,0,0,0,.85,2.71,2.37,2.37,0,0,1,.23.3c.9,1.39,1.86,2.75,2.66,4.2s1.84,1.8,3.17,1c.87-.5,1.71-1,2.53-1.6a123,123,0,0,1,10.67-6.16,1.85,1.85,0,0,1,.23,0,12.37,12.37,0,0,0,1.51-.39c1.36-.52,2.67-1.19,4.06-1.6A5.8,5.8,0,0,0,226.17,62.43ZM53.5,174.63A17.92,17.92,0,0,1,51.7,176c-1.51.86-3.07,1.64-4.6,2.46a4.6,4.6,0,0,0-.81.58c-.75.65-1.53,1.28-2.23,2a7.21,7.21,0,0,0-2.26,3.84c.1.06.13.09.16.09a.48.48,0,0,0,.24-.06,3.18,3.18,0,0,1,3.6-.23,5.36,5.36,0,0,0,1.48.19c-.07.46-.49.42-.84.36-.53-.1-1-.3-1.57-.4-.36-.07-.82-.2-1.08,0a9.87,9.87,0,0,0-3.31,2.56c-1.42,2-2.89,4-4.22,6-.84,1.29-1.11,2.61.18,3.66A16.62,16.62,0,0,1,39,199.54a33.82,33.82,0,0,0,5.57,5.52c.24.18.62.41.85.34a5.92,5.92,0,0,0,1.88-.89,17.6,17.6,0,0,0,2.13-2.1,3.07,3.07,0,0,0,.94-3.16,6.19,6.19,0,0,1-.25-1.21,15,15,0,0,1,1.09-6.82,21.24,21.24,0,0,0,.91-3.35,19.14,19.14,0,0,1,2.5-7.26c.58-.9,1.17-1.8,1.75-2.68Zm142-145.74A2.8,2.8,0,0,1,195,29a3.32,3.32,0,0,0-2.8,1.93,20.81,20.81,0,0,1-3.95,4.63c-2,1.88-4,3.73-6.05,5.57a11.63,11.63,0,0,0-2.72,3.7A16.78,16.78,0,0,0,178.37,48,1.88,1.88,0,0,0,180,50.4c.1-.52.17-1.06.32-1.57.45-1.5.6-1.58,2.44-1.24l-1.41.4c-.28.92-.78,1.84-.27,3l.64-.2c1.95-.58,3.89-1.2,5.85-1.74,1.11-.3,2.28-.45,3.4-.73a33.09,33.09,0,0,0,6-2.47,6.63,6.63,0,0,0,3.65-4c.42-1.17.77-2.37,1.19-3.54a10.68,10.68,0,0,1,.74-1.57c.27-.5.6-1,.93-1.52Zm-95.59,206c1.35.41,2.48.79,3.64,1.1a1.6,1.6,0,0,0,1.21,0,6,6,0,0,0,2.6-3.66c.39-2.33.81-4.66,1.19-7a20.81,20.81,0,0,0,.35-2.6A44.12,44.12,0,0,1,110,214.4a3.86,3.86,0,0,0,0-.9,8.47,8.47,0,0,0-1.12,1.52q-1.61,2.37-3.24,4.71a.49.49,0,0,1-.28.23c-.88.18-1.08.95-1.42,1.6-.44.85-.91,1.68-1.33,2.53-.26.52-.44,1.07-.66,1.61a1.74,1.74,0,0,0,.05,1.43,2.67,2.67,0,0,1,0,2.61,3.42,3.42,0,0,0-.26,1.08,1.12,1.12,0,0,1-.11.15l-.22-.56C100.37,231.74,100.36,233.29,99.9,234.85Zm-8.77-197a39.77,39.77,0,0,0,6.93-2.23,1.5,1.5,0,0,0,1-1.44,6.15,6.15,0,0,0-.26-1.7c-.44-1.42-1-2.8-1.41-4.23-1.13-4-2.21-8-3.33-12a1.07,1.07,0,0,0-.2-.35l-1.84,3a9.65,9.65,0,0,1-.79,1.27,3.31,3.31,0,0,0-.54,3.25c.18.65.3,1.14,1,1.35A1.71,1.71,0,0,1,93,26.26a2.31,2.31,0,0,0,.21.84,2.06,2.06,0,0,1-.32,2.78v4.23c.8,0,1.33-.62,1.95-1a1.7,1.7,0,0,0,.8-1.85c.25,1.68.12,1.61-1.22,2.52a8.59,8.59,0,0,1-3.9,1.66ZM51.39,168.92a8,8,0,0,1,1.46,1.75,7.67,7.67,0,0,1,.2,2.16c1.22-.47,1.89.22,2.51,1.06s1.11,1.42,1.67,2.12a30.84,30.84,0,0,1,7.51-4c-.64-.56-1.27-1.15-1.93-1.71-1.33-1.12-2.68-2.22-4-3.35a2,2,0,0,0-2.21-.24c-.6.28-1.21.54-1.82.81ZM55.62,181a32.55,32.55,0,0,1,11.32-7.05c-.38-.31-.78-.65-1.16-.63a10.41,10.41,0,0,0-4.29,1l.73.49a7.07,7.07,0,0,1-2.53,1.9,9.17,9.17,0,0,0-3.35,2.9c-.48.77-1.16,1.4-1.67,2.15a12.14,12.14,0,0,0-1.68,4.8,37.17,37.17,0,0,1-1.26,5.58,29,29,0,0,0-.93,4.37,1.09,1.09,0,0,0,.41,1.31c.52-1.14.44-2.44,1.28-3.56l-.14,1.53a1.87,1.87,0,0,0,.88-.94,14.51,14.51,0,0,0,1-6.47,10.5,10.5,0,0,1,.65-4.75C55.16,182.84,55.32,182.09,55.62,181Zm-25-12-.2-.2a40.87,40.87,0,0,0-4.46,5.65,5.17,5.17,0,0,0-.21.7,6.19,6.19,0,0,1-.49,1.37,15.46,15.46,0,0,1-1.89,2.62,6.4,6.4,0,0,0-1.78,3.74c-.08.53-.19,1.06-.27,1.59s-.14,1.06-.22,1.59l.26.07c1.22-2.09,2.72-4.06,3.42-6.43a23.42,23.42,0,0,1,4.32-8.33A24.45,24.45,0,0,0,30.6,169ZM210.51,42.12a14,14,0,0,0-2.24,3.16l5.47,1,.11-.26Zm-165,81c1.84.58,3.66,1.27,5.54,1.71a8.47,8.47,0,0,1,4.44,2.56,11.06,11.06,0,0,0,3.57,2.3,20.56,20.56,0,0,0-3.89-3.59,48.69,48.69,0,0,0-6.09-2.8A5.38,5.38,0,0,0,45.48,123.12ZM177.21,53.65l-.09-.24c-2.11.57-4.23,1.09-6.32,1.71a7,7,0,0,0-3.37,2.65,3.63,3.63,0,0,0-.38,1,24.57,24.57,0,0,0,2.23-2,3.37,3.37,0,0,1,1.39-.72c1-.26,2.14-.32,3.16-.63A11.2,11.2,0,0,0,177.21,53.65ZM36,122.48a14.26,14.26,0,0,0-4.42-3.19c-2.11-1.06-4.17-2.22-6.25-3.34l-.69-.34a13.63,13.63,0,0,0,5,3.59,39.51,39.51,0,0,1,5.3,2.72C35.3,122.13,35.66,122.29,36,122.48Zm1.45,60.75.23.19a5.67,5.67,0,0,1,.65-.56,9.46,9.46,0,0,0,3.48-4.13,4.56,4.56,0,0,1,.89-1.33,4,4,0,0,0,.88-2.76,5.73,5.73,0,0,0-.95,1.58,7,7,0,0,1-1.56,2.52q-1.27,1.27-2.43,2.67A17.26,17.26,0,0,0,37.45,183.23Zm12.07-73,.08-.39a5.7,5.7,0,0,0-1.09-.45c-1.21-.21-2.44-.39-3.66-.54-.86-.11-1.73-.18-2.59-.24a2.75,2.75,0,0,0-.68.14c.14.17.18.28.23.29,1.41.17,2.69,1.1,4.2.67a2.46,2.46,0,0,1,.85.15ZM46.44,211.47l0-.19c-.22-.1-.43-.29-.64-.3-.94,0-1.88,0-2.82,0a5.84,5.84,0,0,0-3.65,1.4Zm-6.39-7.33-3.44-2.63-.19.15,1,2.75A5.65,5.65,0,0,0,40.05,204.14Zm-7.93-9.08,1.72-4.88C31.41,191.56,31,193.06,32.12,195.06ZM206,35.76c2.12.06,3.56-1.29,5.11-2.42A9.59,9.59,0,0,0,206,35.76ZM53.09,208.06c1.36-1.49,3.35-2.44,4.17-4.7A13.58,13.58,0,0,0,53.09,208.06Zm-2.16-35.67a6.2,6.2,0,0,0-2.88,3.16c.84-.46,1.54-.81,2.21-1.2C51.09,173.86,51.2,173.53,50.93,172.39ZM224.67,53.11a5.66,5.66,0,0,1-.33,1.28c-.49.92-.1,1.54.69,2.22.53-.87,1.39-1.44,1.35-2.74l-1.46,1.75-.23-.11C224.94,54.74,225.58,54,224.67,53.11ZM7.42,88.62a5.57,5.57,0,0,0,1.14,3.81A5.46,5.46,0,0,0,7.42,88.62ZM221.8,52.05l-.13.22L223,53.84l.3-.1.08-1.3ZM61.49,197.26c-.42.87-1.09,1.69-.65,2.79A3.4,3.4,0,0,0,61.49,197.26Zm-32.62,8-1.7-.59C27.5,205.54,28.12,205.56,28.87,205.24Zm31.67-29.8c-1,0-1,0-1.44.94Zm7.57-40,.14-.19-1.09-.3,0,.13Zm106-95-.23,0-.13.83.23,0Zm37.74-1.64-.36-.07c0,.21-.05.41-.06.62a.93.93,0,0,0,.29.05A5.8,5.8,0,0,0,211.86,38.75ZM41.28,80.89l-.09.2.73.28.06-.15Z"/><path class="cls-1" d="M33.84,171l.38-.35v0l.52-.47.18.1a14.83,14.83,0,0,1-1,2.38c-1,1.65-2.15,3.23-3.27,4.82-.14.18-.53.19-1.08.37.38-1.38.71-2.4,1.81-3,.14-.08.34-.11.42-.22.67-1,1.33-2,2-3A1.51,1.51,0,0,0,33.84,171Z"/><path class="cls-1" d="M13.29,102.15,11.85,97l.07,0c1,2.52,2,5,3,7.57a5.14,5.14,0,0,1,.16.88c-.94,0-.8-1-1.38-1.3l0,0-.53-1.68Z"/><path class="cls-1" d="M193.78,48.79l-.39.08-4.82,1.07,0-.17,4.64-1.35C193.48,48.33,193.77,48.36,193.78,48.79Z"/><path class="cls-1" d="M224.78,51.05l1.08.19a2.24,2.24,0,0,0,.41.58,1,1,0,0,1,.34,1.08v0l-.33.37Z"/><path class="cls-1" d="M68.11,135.44l-1-.36,0-.13,1.09.3Z"/><path class="cls-1" d="M204.94,43.45c.38.65.05,1.1-.27,1.55l-.25-.08.54-1.45Z"/><path class="cls-1" d="M13.26,102.51l.53,1.68C13.61,103.63,13.44,103.07,13.26,102.51Z"/><path class="cls-1" d="M174.12,40.39l-.13.82-.23,0,.13-.83Z"/><path class="cls-1" d="M211.86,38.75a5.8,5.8,0,0,1-.13.6.93.93,0,0,1-.29-.05c0-.21,0-.41.06-.62Z"/><path class="cls-1" d="M80.29,176.21l.73.34-.18.26-.52-.63Z"/><path class="cls-1" d="M41.28,80.89l.7.33-.06.15-.73-.28Z"/><path class="cls-1" d="M42.93,120a21.56,21.56,0,0,1,5.2.18A38,38,0,0,1,57,122.47a32.69,32.69,0,0,1,7.8,4.16,8.33,8.33,0,0,0,1.48.92c2.72,1.25,5.44,2.47,8.17,3.71l.78.39a10.3,10.3,0,0,1-3.79-.68,4.21,4.21,0,0,0-1.7-.18,9.45,9.45,0,0,1-2.33-.31c-.52-.1-1-.26-1.56-.4a1.82,1.82,0,0,0,1.79,1.8,5.5,5.5,0,0,0,1.62,0,8.84,8.84,0,0,1,3.44.23l10.41,2a11.41,11.41,0,0,1,2,.38c-.8-.06-1.62-.05-2.41-.19-3.36-.56-6.72-1.18-10.08-1.74a14.16,14.16,0,0,0-4-.21,2.74,2.74,0,0,1-3.21-2,1.16,1.16,0,0,0-1.41-.91,2.27,2.27,0,0,1-2.34-1.3,7.07,7.07,0,0,0-3.3-2.76,4.23,4.23,0,0,1-1.09-.67,3.1,3.1,0,0,1,.69.1c1.83.66,3.54,1.44,4.54,3.29a1.58,1.58,0,0,0,1.18.74,7.87,7.87,0,0,1,2.63.69c.77.27,1.56.48,2.49.77-.14-.27-.16-.37-.21-.4a57.19,57.19,0,0,1-6-3.82,37,37,0,0,0-12.5-5.17A34.55,34.55,0,0,0,42.93,120Z"/><path class="cls-1" d="M89.39,171.65a5.74,5.74,0,0,1-3.15-.19,17.32,17.32,0,0,1-5.61-2,6.54,6.54,0,0,0-1.53-.5,2.65,2.65,0,0,1-.92-.33c-1.11-1-2.48-.76-3.89-1,.51.93,1.43.93,2.11,1.32a15,15,0,0,1,2,1.31,23.29,23.29,0,0,1-6.75-3.76c.66.16,1.28.33,1.91.47a8.67,8.67,0,0,0,2.06.25A23.36,23.36,0,0,0,71,164.4a46.09,46.09,0,0,0-4.82-2.27c-1.66-.75-3.21-1.76-5.06-2l.06-.24a9.72,9.72,0,0,1,2.1.48c2.26,1,4.65,1.71,6.9,2.82,3.13,1.55,6.1,3.36,9.14,5A26.8,26.8,0,0,0,86.88,171c.84.17,1.65.46,2.47.7Z"/><path class="cls-1" d="M36.49,171.38c.31-.9.67-1.79.94-2.71a17.1,17.1,0,0,1,2.93-5.32c1-1.3,1.85-2.66,2.71-4A3,3,0,0,1,44.5,158a7.31,7.31,0,0,0,1.07-.63,4.7,4.7,0,0,1,1-.52c3-.8,6.1-1.61,9.32-1a10.87,10.87,0,0,1,3.12.71,4.64,4.64,0,0,0,1.6.11l-1.22.42a3.23,3.23,0,0,0,2.41,1.08,11.45,11.45,0,0,1,4.71,1.72,14.88,14.88,0,0,1,2.81,1.92l-.76-.35a22.77,22.77,0,0,0-7.07-2.71,5.43,5.43,0,0,1-3-1.63,2.27,2.27,0,0,0-1-.63,22.41,22.41,0,0,0-5.72-.38,3,3,0,0,0-2.48,1.21,2.49,2.49,0,0,1-2.14,1.06,5.58,5.58,0,0,0-4.74,2.77,19.14,19.14,0,0,1-1.81,2.54,15.77,15.77,0,0,0-3.34,6.34c-.15.46-.07,1.12-.76,1.28Z"/><path class="cls-1" d="M175.84,74.12a10.09,10.09,0,0,0-.83-1.19,13.76,13.76,0,0,0-1.27-1.14,4.09,4.09,0,0,1-1.81-3.22,12.17,12.17,0,0,1,2-6.95c.72-1.07,1.44-2.14,2.26-3.13a4.18,4.18,0,0,1,1.59-1.13,34.22,34.22,0,0,1,3.56-1.13c1.8-.5,3.64-.88,5.42-1.43a10.82,10.82,0,0,0,2.28-1.25c.38-.24.69-.46,1.2.08a15.72,15.72,0,0,1-1.92,1c-2.28.78-4.56,1.57-6.87,2.24a10,10,0,0,0-5.23,3c-.93,1.12-1.91,2.2-2.76,3.38a4.5,4.5,0,0,0-.58,4.49,3.44,3.44,0,0,1,.33,1.45,3.16,3.16,0,0,0,1.21,2.59A4.35,4.35,0,0,1,175.84,74.12Zm-3.07-3.94a2.33,2.33,0,0,0-.59-2.52A2.14,2.14,0,0,0,172.77,70.18Z"/><path class="cls-1" d="M11.47,84c1.62,3.59,3.28,7.17,4.82,10.79.64,1.48,1,3.06,1.53,4.6.07.23,0,.5.05.73a3.94,3.94,0,0,0,.56,1.46,18.25,18.25,0,0,0,2.75,2.67,48.09,48.09,0,0,1,5.51,4.87c.7.7,1.52,1.28,2.29,1.91l4.36,3.53a.53.53,0,0,1,.16.51l-3.11-2.53a5.85,5.85,0,0,0-.68-.55,27.91,27.91,0,0,1-5.38-4.62,32,32,0,0,0-2.65-2.27c-.55-.43-1.25-.66-1.77-1.11a7.15,7.15,0,0,1-2.68-4.44,29,29,0,0,0-2.58-7.79c-1-2-1.94-4-2.88-6.08a13.66,13.66,0,0,1-.54-1.6Z"/><path class="cls-1" d="M31.92,111.49a12.54,12.54,0,0,1,2.14,1.26,5.33,5.33,0,0,0,3.2,1.15,18.64,18.64,0,0,1,8.5,3,3,3,0,0,0,2.22.45,16.65,16.65,0,0,1,3.59.16c2.1.25,4.18.64,6.28.91A14,14,0,0,1,63,120.15c-.72-.17-1.43-.38-2.15-.52-1.55-.29-3.11-.55-4.67-.81-1.76-.3-3.53-.57-5.29-.87a7.89,7.89,0,0,0-3.21,0,2.32,2.32,0,0,1-2-.4,19,19,0,0,0-9.4-3.36,3.56,3.56,0,0,1-2.12-.91,21.6,21.6,0,0,0-2.33-1.64Z"/><path class="cls-1" d="M66.94,166.69a2.73,2.73,0,0,1-2.3-.72,10.33,10.33,0,0,0-7-2.31,4.42,4.42,0,0,1-.63,0c-3-.48-5.62.63-8,2.25-1.1.74-2,1.69-3.09,2.52a7.26,7.26,0,0,1-1,.53l2.47-2.48a12.71,12.71,0,0,1,7.73-3.67,20,20,0,0,1,5.55.39c2.08.34,3.82,1.58,5.66,2.53C66.6,165.88,66.73,166.36,66.94,166.69Z"/><path class="cls-1" d="M36.64,175.33l-.17,1.19c1.66-1,1.88-2.81,2.86-4.07A18.73,18.73,0,0,1,36.39,178a4.23,4.23,0,0,0-.92,2.65c.1,3.12-1.46,5.55-3.23,7.9a9.47,9.47,0,0,1-1.52,1.68,2.28,2.28,0,0,1,.07-.75c.83-1.72,1.69-3.42,2.55-5.13,0-.11.12-.25.22-.29,1.32-.5,1.14-1.71,1.2-2.72a7.44,7.44,0,0,1,1-3.78,9.85,9.85,0,0,0,.76-2.22Zm-4.7,12.32.23.12c.48-.76,1.17-1.42,1.09-2.49Z"/><path class="cls-1" d="M198.94,49l3.06-.88,0-.2h-2.49v-.22h1.28c1.12,0,2.24,0,3.35,0,2.48-.15,4.82.74,7.26.91a33.58,33.58,0,0,1,5.88,1,19.1,19.1,0,0,0,3.51.21,7.13,7.13,0,0,1-3.7.31c-2.64-.26-5.27-.6-7.9-.92A7.12,7.12,0,0,1,208,48.9a12,12,0,0,0-7.24-.1c-.55.16-1.12.24-1.68.36Z"/><path class="cls-1" d="M170.65,57.56c.49,2-1,3.3-1,5,.57-1.07.89-2.35,2.32-2.67a8.84,8.84,0,0,0-1.21,1.47,11.55,11.55,0,0,0-.59,1.89,10.57,10.57,0,0,1-.51,1.4,7.43,7.43,0,0,1-.68,1,5.2,5.2,0,0,1-.49-5.51,7.3,7.3,0,0,1,2.18-2.67,1.55,1.55,0,0,1,2.07.15Zm-2,4.77c1.22-1.46,2-3.11,1.74-3.9A4.3,4.3,0,0,0,168.69,62.33Zm.75,1.25-.34-.2-.28.88.27.1Z"/><path class="cls-1" d="M46.6,162.49c.78-1.22,2.06-1.37,3.32-1.48,1.1-.1,2.21-.1,3.32-.12,2.1-.06,4.21-.13,6.31-.12a4,4,0,0,1,1.54.46c1.47.65,2.92,1.34,4.37,2a2.87,2.87,0,0,1,.55.44l0,0c-1.43-.54-2.89-1-4.26-1.67a6.64,6.64,0,0,0-2.57-.83,34.18,34.18,0,0,0-7.82.49c-.52.09-1,.34-1.54.48a6.42,6.42,0,0,1-3.28.31Z"/><path class="cls-1" d="M36.72,112.58a12.89,12.89,0,0,1,6.36,1,6.38,6.38,0,0,0,1.68.36c2.39.26,4.79.48,7.18.72a5.41,5.41,0,0,0,2.82-.23c.66-.29.7-.23,1.58.17A12.58,12.58,0,0,1,52,115a42.53,42.53,0,0,0-5.87-.1,7.74,7.74,0,0,1-4-.86,12,12,0,0,0-5-1.38Z"/><path class="cls-1" d="M28.82,113.37l-2.34-1-.09.88a1.71,1.71,0,0,1-1.95-.73c-2-2.27-4.21-4.46-5.2-7.5a6.12,6.12,0,0,1,.73.9,13.66,13.66,0,0,0,4.6,5c.9.56,1.9,1,2.86,1.47.5.25,1,.48,1.53.73Z"/><path class="cls-1" d="M29.13,185.84a2.77,2.77,0,0,1,.25-2.05c.45-.84.91-1.67,1.4-2.49a1.44,1.44,0,0,1,.62-.58,4.48,4.48,0,0,0,2-2c1.06-1.64,2.09-3.3,3.14-4.94a.46.46,0,0,1,.41-.26l-2.19,3.84c-.37.65-.69,1.33-1.12,1.94a7.5,7.5,0,0,1-1.56,1.75A4.57,4.57,0,0,0,30,184.65a4.5,4.5,0,0,1-.56,1.28Z"/><path class="cls-1" d="M51.83,159.24c-1.65.52-3.31,1-4.95,1.59s-2.63,2-4.12,2.65l-.27-.34a4.17,4.17,0,0,1,.64-.79c1.1-.82,2.21-1.62,3.35-2.37a1.68,1.68,0,0,1,1.74-.31c.22.1.56-.08.84-.13l2.79-.46Z"/><path class="cls-1" d="M88.12,176.16c-2.07-.19-4.14-.26-5.83-1.85a17.82,17.82,0,0,0-2.79-1.86c-.34-.22-.71-.38-1.06-.57l.11-.25c1.16.52,2.34,1,3.47,1.57.91.47,1.76,1.09,2.63,1.65a2.36,2.36,0,0,0,1.6.5,5.88,5.88,0,0,1,2,.56Z"/><path class="cls-1" d="M51.23,112.63a22.14,22.14,0,0,1-2.31-.33,25.87,25.87,0,0,0-7.45-.23,24.58,24.58,0,0,1-6.68-.6,1.38,1.38,0,0,1-.73-.47c.81.07,1.62.09,2.42.21a69.78,69.78,0,0,0,10.32.44A13.82,13.82,0,0,1,51.23,112.63Z"/><path class="cls-1" d="M46.57,162.46a12.15,12.15,0,0,0-4.68,5.2,25.23,25.23,0,0,1-2.89,4l3.47-6.28a6.29,6.29,0,0,1,3.28-2.75,2.89,2.89,0,0,1,.84-.1Z"/><path class="cls-1" d="M190.26,51a5.6,5.6,0,0,1-3.21,1.38,1.53,1.53,0,0,0-.7.16c-.89.43-1.77.89-2.66,1.34a6.6,6.6,0,0,1-3.66,1,8.77,8.77,0,0,0-2.07.35,1.2,1.2,0,0,1,1.33-.76,7,7,0,0,0,3.91-.91,23.28,23.28,0,0,1,6.14-2.22,6.89,6.89,0,0,0,.95-.29Z"/><path class="cls-1" d="M7.81,94.89a18,18,0,0,1-4-11.63C4.18,87.48,5.91,91.22,7.81,94.89Z"/><path class="cls-1" d="M90.13,128.83c-1.78,1.64-4.72,2.11-7.87,1.19Z"/><path class="cls-1" d="M32,184.34c-.53,1.25-1.14,2.48-1.58,3.76-.49,1.45-.83,3-1.23,4.45-.09.35-.27.7.1,1,.06.06-.09.34-.14.51-.18-.11-.5-.22-.51-.35a6.2,6.2,0,0,1,0-1.49,17.54,17.54,0,0,1,2.15-6.08c.34-.62.69-1.24,1-1.85Z"/><path class="cls-1" d="M70.73,120.63c-2.8-.47-4.92-2.45-7.66-3.47a2.85,2.85,0,0,1,.7-.21,1.38,1.38,0,0,1,.59.17l6.54,3.25Z"/><path class="cls-1" d="M201.15,50.92a4.57,4.57,0,0,1-1.29.64c-1.19.16-2.41.12-3.59.3-1.38.22-2.74.58-4.11.88-.11,0-.22,0-.33.06-.2-.46,0-.62.4-.7l2.91-.63c1.22-.25,2.44-.47,3.8-.74l-.84.54c1.11.4,2.07-.23,3.07-.33Z"/><path class="cls-1" d="M172.83,59.71c0-.21-.05-.48.06-.61.91-1.15,1.82-2.3,2.8-3.39a3.61,3.61,0,0,1,1.24-.75c.1-.05.33.19.57.34-1.5,1.51-3.58,2.38-4.4,4.49Z"/><path class="cls-1" d="M49.68,113.22a10.72,10.72,0,0,1-5.69-.33C45.9,111.87,47.64,112.6,49.68,113.22Z"/><path class="cls-1" d="M89.72,173l7.49-2.7a3.18,3.18,0,0,1-.6.52c-1.66.75-3.33,1.5-5,2.2A2.28,2.28,0,0,1,89.72,173Z"/><path class="cls-1" d="M35.58,116.62c.51.16,1,.33,1.53.48,1,.3,2,.67,3,.87s2,.23,3,.35l-.44-.74,0,0,1.64.72c-.27.21-.36.34-.46.34a18.1,18.1,0,0,1-8-1.78c-.08,0-.1-.19-.15-.3Z"/><path class="cls-1" d="M91.54,169.16c-1.4,1.14-3.46,1.32-5.85.64Z"/><path class="cls-1" d="M74.66,110.3a50.58,50.58,0,0,1,5.64-1.7A7.52,7.52,0,0,1,74.66,110.3Z"/><path class="cls-1" d="M83.53,109.67a15.82,15.82,0,0,1-4.45,2C80.53,110.23,82.22,109.44,83.53,109.67Z"/><path class="cls-1" d="M30.17,113.93c.82.85,1.61,1.74,2.48,2.55a12.67,12.67,0,0,0,2,1.44,12.81,12.81,0,0,1,1.9,1.15c-.9-.37-1.8-.71-2.68-1.12a3.24,3.24,0,0,1-1-.71c-1-1-1.89-2.11-2.83-3.18Z"/><path class="cls-1" d="M94.4,169.69l6.62-3.42c-1.92,1.92-4.33,2.51-6.41,3.69Z"/><path class="cls-1" d="M86,178.13l6.66,1.54c-2.37.38-4.5-.66-6.73-1.19Z"/><path class="cls-1" d="M178.31,60.64l1.12-.43,1.19-.4c-.85,1.56-2.21,2-3.61,2.83.53-.8.94-1.42,1.34-2Z"/><path class="cls-1" d="M86.28,173.48a11.89,11.89,0,0,1-6-2.25Z"/><path class="cls-1" d="M174.22,68.43a14,14,0,0,0,.45,2,1.5,1.5,0,0,0,.82.87A2.48,2.48,0,0,1,177,72.92a6.56,6.56,0,0,1,.61,1.71,11.53,11.53,0,0,1-.62-1,4.52,4.52,0,0,0-1.61-1.84c-1.2-.78-1.3-2-1.11-3.34Z"/><path class="cls-1" d="M90.86,168.22l4.41-1.72A5,5,0,0,1,90.86,168.22Z"/><path class="cls-1" d="M95.35,160.08c-.55,1.24-1.34,2.15-2.91,2C93.08,160.89,94.24,160.54,95.35,160.08Z"/><path class="cls-1" d="M171.44,70.3c.54,1.61,1.75,3,2.13,5C172.12,73.74,171.86,72,171.44,70.3Z"/><path class="cls-1" d="M190.29,51.07l5.88-2c-.24.4-.33.75-.5.8-1.67.46-3.36.88-5,1.29-.1,0-.23,0-.36-.08Z"/><path class="cls-1" d="M71.66,127c2,.18,4-.16,6,.9Z"/><path class="cls-1" d="M84.2,119.06c-1.34,1.12-2.83.68-4.25.73Z"/><path class="cls-1" d="M89.11,177c-1.46.07-3,.69-4.29-.39l.05-.29a20.13,20.13,0,0,0,2,.52C87.62,177,88.37,177,89.11,177Z"/><path class="cls-1" d="M183.28,52.87,179.71,54l-.08-.27c1.05-.84,2.36-.81,3.59-1.09Z"/><path class="cls-1" d="M171.57,63.65c-.15.64-.31,1.27-.45,1.91s-.26,1.27-.45,1.89C170.34,66.05,171.14,64.85,171.57,63.65Z"/><path class="cls-1" d="M84.44,165.53c.78,0,1.56.14,2.34.13,1,0,2-.13,3-.2-.87.75-3.12.74-5.33,0Z"/><path class="cls-1" d="M65.21,115.68c0,.76.58.68,1.06.71l3.94.26v.25c-.47,0-.94,0-1.4,0-.91-.06-1.82-.15-2.72-.22-.72-.05-.79-.13-.86-1Z"/><path class="cls-1" d="M74.55,130.43c1.36-.31,2.21.68,3.33,1l-.11.29Z"/><path class="cls-1" d="M69.05,112.9l4.5.62v.07c-.48,0-1,0-1.44,0s-1.06-.13-1.58-.22-1.05-.18-1.57-.27Z"/><path class="cls-1" d="M105.79,148.72c-.08,1.35-1,1.95-1.4,2.82C104.35,150.45,105.13,149.78,105.79,148.72Z"/><path class="cls-1" d="M186.28,82.75c-.51-1.25-.07-2.47-.86-3.47.18.16.48.3.51.48C186.08,80.67,186.15,81.59,186.28,82.75Z"/><path class="cls-1" d="M84.58,115.88a8.21,8.21,0,0,1,3.37-.7l0,.27Z"/><path class="cls-1" d="M177.61,63.14l-2.33,2A3.32,3.32,0,0,1,177.61,63.14Z"/><path class="cls-1" d="M80.35,131.49l3.05.55C82.24,132.73,81.31,132,80.35,131.49Z"/><path class="cls-1" d="M75.42,119.87l2.13-.54C77,120.15,77,120.15,75.42,119.87Z"/><path class="cls-1" d="M70.19,121.23l-2.64-.78.08-.29,2.63.84Z"/><path class="cls-1" d="M176,68.48v1.94C175.35,69.91,175.35,69.87,176,68.48Z"/><path class="cls-1" d="M89.35,171.68l2.14-.23,0,.22-2.58.55-.06-.16.5-.4Z"/><path class="cls-1" d="M169.61,68.7c-.08.67-.17,1.34-.25,2l-.28,0,.3-2Z"/><path class="cls-1" d="M97.33,152.2l.57-1.87.3.09-.58,1.87Z"/><path class="cls-1" d="M47.43,118.86l3.07.59,0,.25-3-.59Z"/><path class="cls-1" d="M40.29,117.72l-2.82-.88c.36-.08.44-.14.51-.12l2.46.72Z"/><path class="cls-1" d="M77,114.81l2.85-.69A3.65,3.65,0,0,1,77,114.81Z"/><path class="cls-1" d="M75.29,126.34H72.91a7.35,7.35,0,0,1,2.36-.32Z"/><path class="cls-1" d="M176.65,82l.8,1.69C176.63,83.38,176.64,82.69,176.65,82Z"/><path class="cls-1" d="M77.4,135.43l2.08.43,0,.26-2.06-.37Z"/><path class="cls-1" d="M170.4,69l.16,1.3h-.12L170.2,69a1.09,1.09,0,0,1,0-.24Z"/><path class="cls-1" d="M84.71,124.79l-2.21.63C83.41,124.64,83.41,124.64,84.71,124.79Z"/><path class="cls-1" d="M81.34,128.68c0-.06.07-.16.12-.17l2.33-.34A3.2,3.2,0,0,1,81.34,128.68Z"/><path class="cls-1" d="M36.46,171.35l-.68,2.17a2.77,2.77,0,0,1,.71-2.14Z"/><path class="cls-1" d="M96.24,156.19l.54-1.28.27.1-.41,1.3Z"/><path class="cls-1" d="M79.9,117.16l1.49-.25,0,.28-1.49.23Z"/><path class="cls-1" d="M101.1,165.83l1.62-1.26C102.13,165.55,102.13,165.55,101.1,165.83Z"/><path class="cls-1" d="M96.13,170l-1.7.72-.1-.24,1.7-.7Z"/><path class="cls-1" d="M172.31,78.13l-.44-1.29.24-.09.47,1.29Z"/><path class="cls-1" d="M64.71,123.61l1.47.32,0,.23-1.52-.25Z"/><path class="cls-1" d="M77.35,121.56,79,121A1.54,1.54,0,0,1,77.35,121.56Z"/><path class="cls-1" d="M99,159.34l-1.17,1.26A1.44,1.44,0,0,1,99,159.34Z"/><path class="cls-1" d="M174.65,77.39l.3,1.25-.11,0c-.11-.37-.23-.74-.35-1.11l0-.12Z"/><path class="cls-1" d="M73.74,120.73l-1.39-.29.05-.23,1.39.25Z"/><path class="cls-1" d="M100.49,154.62l-.44.84-.21-.09.34-.92Z"/><path class="cls-1" d="M59.48,117h1.68v.13H59.45Z"/><path class="cls-1" d="M30.46,193.37c-.35-1-.35-1,.09-1.51Z"/><path class="cls-1" d="M88,117.69l1.35-.54.1.26-1.37.49Z"/><path class="cls-1" d="M176.49,78.72l-.27-1.23.09,0,.29,1.23Z"/><path class="cls-1" d="M74.51,121.73h1.6v.07H74.56Z"/><path class="cls-1" d="M226.61,52.9a1,1,0,0,0-.34-1.08,2.24,2.24,0,0,1-.41-.58C227,52,227,52,226.61,52.9Z"/><path class="cls-1" d="M175.36,76l-.43-.92.22-.1.37,1Z"/><path class="cls-1" d="M42.62,117.58c-.66.2-1.1-.23-1.51-.69l1.48.72Z"/><path class="cls-1" d="M173.37,76.76l-.66-1.09.18-.12.67,1Z"/><path class="cls-1" d="M75.24,124.14l1.43.08v.15H75.19Z"/><path class="cls-1" d="M183.44,78V76.91h.06V78Z"/><path class="cls-1" d="M167.27,66.6v1.06h-.09V66.6Z"/><path class="cls-1" d="M35.6,116.59c-.58.17-.87-.26-1.11-.75l1.09.78Z"/><path class="cls-1" d="M95.21,178.91H94v-.12l1.25-.12Z"/><path class="cls-1" d="M53.33,116.59H52.22v-.07h1.13Z"/><path class="cls-1" d="M35.5,115.78c-.45-.77-.13-.82.41-.78Z"/><path class="cls-1" d="M184.08,85.65l-.36-.68.13-.09.43.65Z"/><path class="cls-1" d="M71.14,162.85l-.94-.46.08-.18,1,.39Z"/><path class="cls-1" d="M101.89,171.77l.69-.64.19.2-.69.64Z"/><path class="cls-1" d="M181.15,75l-.57-.85.73.64Z"/><path class="cls-1" d="M94,166l.81-.45.1.17-.79.47Z"/><path class="cls-1" d="M177.76,86l.27.78-.11,0-.31-.7Z"/><path class="cls-1" d="M94.06,124.41l.46-.43.11.13-.46.42Z"/><path class="cls-1" d="M76.91,138.51h.68v.07l-.69,0Z"/><path class="cls-1" d="M100.08,169.7l-.44.41-.11-.11.43-.47Z"/><path class="cls-1" d="M99.38,157.41l.44-.62.16.09-.4.66Z"/><path class="cls-1" d="M32.52,172.58c0-.59.47-.88.9-1.16Z"/><path class="cls-1" d="M182.83,75.21l0,.49-.17,0-.15-.46Z"/><path class="cls-1" d="M37.18,174.08l.38-.46.11.06a1.55,1.55,0,0,1-.14.29,1.88,1.88,0,0,1-.26.22Z"/><path class="cls-1" d="M66,163.71l1.06.23-.09.25-.94-.51Z"/><path class="cls-1" d="M55.63,154.69l.8.07v.07h-.81Z"/><path class="cls-1" d="M216.57,157.05c-2,.42-3.09-.73-3.93-2.32l1.17,1.05c.05-.31.15-.52.09-.66a1.16,1.16,0,0,1,.15-1.16,2.45,2.45,0,0,0-.31-3.11c-1.33-1.31-1.25-2.66-.51-4.2.61-1.26,1.1-2.59,1.66-3.94a1.84,1.84,0,0,1,0,.7c-.38,1-.83,2-1.22,3a13,13,0,0,0-.66,1.87,1.47,1.47,0,0,0,.52,1.57,6.24,6.24,0,0,1,.81.95,2.41,2.41,0,0,1,.15,3.1,1.82,1.82,0,0,0,.86,2.8c.38.15.79.25,1.18.37Z"/><path class="cls-1" d="M229.92,148.29c-1.94-2-2.23-3.86-1.24-6.2a13.59,13.59,0,0,0,.56-2.52l-1.55-.8c1.83.33,1.9.42,1.68,2a4.14,4.14,0,0,1-.26,1.33,4.88,4.88,0,0,0,.53,5.58A4.26,4.26,0,0,1,229.92,148.29Z"/><path class="cls-1" d="M138.71,24.33l.18-2.4H139c-.11.79-.22,1.59-.32,2.38Z"/><path class="cls-1" d="M113.22,26.57l-.07-1h.07v1Z"/><path class="cls-1" d="M166.82,201.21c.66.56,1.33,1.09,2,1.69a1.61,1.61,0,0,1,.29,1,4.9,4.9,0,0,1-2.21-2.68Z"/><path class="cls-1" d="M165.2,205.29l-.06,1.05-.2,0c.1-.33.19-.66.29-1Z"/><path class="cls-1" d="M208.23,160.22c0,.91.05,1.77,1.21,2a.77.77,0,0,1,.5.48,5.41,5.41,0,0,1,.2,3c-.39,1.13-.56,2.33-.9,3.48a1.4,1.4,0,0,0,.67,1.79,7.49,7.49,0,0,1,.64.55c-1.72-.6-2-1-1.71-2.63.19-1.06.4-2.12.66-3.16a3,3,0,0,0-.9-3.35,1.82,1.82,0,0,1-.43-1.08,4.74,4.74,0,0,1,.06-1.12Z"/><path class="cls-1" d="M212.22,173.58a2.07,2.07,0,0,1,1.32,2.1c.07,1.06,0,2.14,0,3.18C212.83,177.22,213.35,175.19,212.22,173.58Z"/><path class="cls-1" d="M214.61,182.44s-.09,0-.12,0l-4-2.12a5,5,0,0,1,4.1,2.14Z"/><path class="cls-1" d="M210.15,179.35c.17-1.23.34-2.46.47-3.45a1.83,1.83,0,0,1,.09,1.57c-.15.63-.33,1.26-.49,1.89Z"/><path class="cls-1" d="M214.59,182.46c.56.22,1.11.46,1.68.66s1.1.59,1.73.23l0,0c0,.52-.46.41-.75.35a4.5,4.5,0,0,1-2.62-1.24Z"/><path class="cls-1" d="M211.69,164.64c.64-.6,1.33-.26,2-.11l0,0-2,.13Z"/><path class="cls-1" d="M218,183.35l1.29-1c-.35.43-.52,1.12-1.31,1Z"/><path class="cls-1" d="M216.86,172.55l.24,1.13-.13,0-.21-1.12Z"/><path class="cls-1" d="M211.51,162.72l-.68-.85.18-.13.5,1Z"/><path class="cls-1" d="M211.51,162.72l.18,1.92h0c-.07-.64-.13-1.28-.19-1.92Z"/><path class="cls-1" d="M211.3,172.79l-.34-.48.09-.11.45.35Z"/><path class="cls-1" d="M219.43,107.45l4,.25v.21l-4-.21Z"/><path class="cls-1" d="M219.27,99.07c-.08.25-.16.51-.26.75-.15.42-.31.83-.48,1.28-.46-.94.2-1.46.77-2Z"/><path class="cls-1" d="M219.3,99.1a2.81,2.81,0,0,1,2.28-.73l-2.31.71Z"/><path class="cls-1" d="M219.73,103.65l-.46-1.91A2.06,2.06,0,0,1,219.73,103.65Z"/><path class="cls-1" d="M217,104.58h-.56l-.14-.86a2.28,2.28,0,0,0,.18.26C216.68,104.19,216.86,104.39,217,104.58Z"/><path class="cls-1" d="M215,106l-1-1.06,0,0,1,1Z"/><path class="cls-1" d="M224.74,99.56a1,1,0,0,1-1.32-.29Z"/><path class="cls-1" d="M41.3,64.14a1.41,1.41,0,0,0,1.45-.48,2.69,2.69,0,0,1,.66-.56,1.26,1.26,0,0,0,.67-1.23,5.58,5.58,0,0,1,.32-1.28h0l-.19.89.18.07.35-.41c.27.38.29,1.12,1.16.86L47,57.35c-.35-.24-.79-.54-1.21-.86-1.16-.85-1.3-1.32-.86-2.66a9.4,9.4,0,0,0,.22-.95l0,0a2.47,2.47,0,0,1,0,.93,1.5,1.5,0,0,0,.68,2c.63.41,1.24.84,1.83,1.3a2.55,2.55,0,0,1,.68.82c.45.93.84,1.89,1.32,3l1.7-1.92c-.1,1.26-1.62,1.77-1.32,3.15l-2.16-4.41c-1.23,1.5-.95,3.35-1.74,4.85l-1-.29-2.67,2a.66.66,0,0,1-1.11-.26Z"/><path class="cls-1" d="M45.1,52.88a3.14,3.14,0,0,0-.83-.53A3.82,3.82,0,0,1,42,50.49a23.29,23.29,0,0,1-2-3.44L41.43,49a17.82,17.82,0,0,0,1.23,1.72c.43.48,1,.84,1.47,1.28.33.29.62.63.93.94Z"/><path class="cls-1" d="M101,222.63c-.65.17-.45.71-.47,1.12,0,1,0,2,0,3.08l-1.48.33v6.24h-.09c-.08-1.82-.2-3.63-.24-5.45,0-1,.06-2.06.1-3.09a5.25,5.25,0,0,1,.26.94c.06.54.38.72.95.85v-3.47l-1.52.86.34.86-.91-1,0,0c.63-.44,1.27-.86,1.88-1.32a.85.85,0,0,1,1.21.07S101,222.63,101,222.63Z"/><path class="cls-1" d="M97.9,223.87a.92.92,0,0,1-1.28-.76,3.13,3.13,0,0,1,.84-3,7.65,7.65,0,0,1-.07.89c-.1.31-.26.61-.36.92-.41,1.22-.33,1.38.84,2Z"/><path class="cls-1" d="M34.6,105.11a4,4,0,0,1-.92-.53c-.92-.9-1.82-1.8-3.31-1.51a1.79,1.79,0,0,1,2.16.1,23.67,23.67,0,0,1,2,2Z"/><path class="cls-1" d="M27.89,102.76h1.49v.15l-1.49-.09Z"/><path class="cls-1" d="M31.81,160l-1.11,1.2C31,160.32,31,160.32,31.81,160Z"/><path class="cls-1" d="M68.33,194.7l-1.64,2.22c.28-.84.45-1.9,1.67-2.19Z"/><path class="cls-1" d="M50.47,202.49c.28-.27.66-.49.83-.82a27.09,27.09,0,0,1,3.73-5c.6-.7,1.31-1.33.89-2.4a.89.89,0,0,1,.08-.49c.59-1.68.32-3.45.51-5.18a3.61,3.61,0,0,0-.32-1.44,3.38,3.38,0,0,1,.74-3.68c.45-.46.8-1,1.29-1.48a2.46,2.46,0,0,1-.91,1.81,2.61,2.61,0,0,0-.65,3.37,3.17,3.17,0,0,1,.27,1.33c0,1.74-.08,3.48-.13,5.22a1.2,1.2,0,0,0,0,.38,2.89,2.89,0,0,1-.94,3c-.45.49-.92,1-1.35,1.47-1.52,1.76-3,3.52-4.62,5.39.23-.6.42-1.09.6-1.58Z"/><path class="cls-1" d="M74.22,175.23c-1.46-.85-3.14-1.46-4.13-2.9a10.54,10.54,0,0,0-2.27-2.39,18.44,18.44,0,0,1-2.32-2.12,2.58,2.58,0,0,1,.54.23c1.12.8,2.21,1.62,3.34,2.39a9.13,9.13,0,0,0,2,1.19c1.67.56,2.88,1.77,4.24,2.78a5,5,0,0,1,.66.75c-.56.46-1.12.16-1.62.26Zm.55-.62c-1.17-1-2.25-2.18-4.1-2.52A7.85,7.85,0,0,0,74.77,174.61Z"/><path class="cls-1" d="M74.22,175.23l.48.19a9.38,9.38,0,0,0,3.71,1.13l-.28-1c.62,0,.77.46,1.08.78l-.68.91,0,0c-1.28-.43-2.57-.85-3.83-1.32C74.51,175.77,74,175.77,74.22,175.23Z"/><path class="cls-1" d="M72.54,171.18l-2.93-1.42a4.13,4.13,0,0,1,2.91,1.45Z"/><path class="cls-1" d="M76.79,174.27a.73.73,0,0,1-.21-.06c-.63-.51-1.27-1-1.86-1.59A4,4,0,0,1,76.79,174.27Z"/><path class="cls-1" d="M72.52,171.21c.26.09.53.17.78.28s.22.17.2.44l-1-.75Z"/><path class="cls-1" d="M44.86,210c.29-.43.41-.83.66-.95a6.57,6.57,0,0,1,4.45-.41c.06,0,.1.12.14.19C49.56,209.87,47.44,210.39,44.86,210Zm1.23-.55,0,.39,2-.46-.06-.3Z"/><path class="cls-1" d="M40,209.9l1.43-.17v.15H40Z"/><path class="cls-1" d="M31.94,187.65l1.32-2.37c.08,1.07-.61,1.73-1.09,2.49Z"/><path class="cls-1" d="M169.44,63.58l-.35.78-.27-.1.28-.88Z"/></svg>